%TF.GenerationSoftware,KiCad,Pcbnew,8.0.3*%
%TF.CreationDate,2024-07-11T13:48:36-07:00*%
%TF.ProjectId,radioboard_dev,72616469-6f62-46f6-9172-645f6465762e,rev?*%
%TF.SameCoordinates,Original*%
%TF.FileFunction,Copper,L2,Bot*%
%TF.FilePolarity,Positive*%
%FSLAX46Y46*%
G04 Gerber Fmt 4.6, Leading zero omitted, Abs format (unit mm)*
G04 Created by KiCad (PCBNEW 8.0.3) date 2024-07-11 13:48:36*
%MOMM*%
%LPD*%
G01*
G04 APERTURE LIST*
%TA.AperFunction,Conductor*%
%ADD10C,0.200000*%
%TD*%
%TA.AperFunction,ComponentPad*%
%ADD11C,0.600000*%
%TD*%
%TA.AperFunction,SMDPad,CuDef*%
%ADD12R,1.350000X4.200000*%
%TD*%
%TA.AperFunction,ComponentPad*%
%ADD13R,1.700000X1.700000*%
%TD*%
%TA.AperFunction,ComponentPad*%
%ADD14O,1.700000X1.700000*%
%TD*%
%TA.AperFunction,ComponentPad*%
%ADD15O,6.880000X3.440000*%
%TD*%
%TA.AperFunction,ViaPad*%
%ADD16C,0.600000*%
%TD*%
%TA.AperFunction,ViaPad*%
%ADD17C,2.000000*%
%TD*%
%TA.AperFunction,Conductor*%
%ADD18C,0.700000*%
%TD*%
%TA.AperFunction,Conductor*%
%ADD19C,0.300000*%
%TD*%
%TA.AperFunction,Conductor*%
%ADD20C,0.500000*%
%TD*%
%TA.AperFunction,Conductor*%
%ADD21C,3.000000*%
%TD*%
G04 APERTURE END LIST*
D10*
%TO.N,VBAT*%
X48000000Y-163250000D02*
X46250000Y-167000000D01*
X40000000Y-167250000D01*
X36750000Y-165500000D01*
X31750000Y-160250000D01*
X27500000Y-160250000D01*
X26500000Y-161000000D01*
X26250000Y-161000000D01*
X28500000Y-150000000D01*
X35500000Y-149750000D01*
X48000000Y-163250000D01*
%TA.AperFunction,Conductor*%
G36*
X48000000Y-163250000D02*
G01*
X46250000Y-167000000D01*
X40000000Y-167250000D01*
X36750000Y-165500000D01*
X31750000Y-160250000D01*
X27500000Y-160250000D01*
X26500000Y-161000000D01*
X26250000Y-161000000D01*
X28500000Y-150000000D01*
X35500000Y-149750000D01*
X48000000Y-163250000D01*
G37*
%TD.AperFunction*%
%TO.N,SDA*%
X22750000Y-151500000D02*
X22750000Y-47000000D01*
%TO.N,SCL*%
X23500000Y-47000000D02*
X23500000Y-151500000D01*
%TD*%
D11*
%TO.P,U12,*%
%TO.N,GND*%
X28250000Y-83500000D03*
X28875000Y-84000000D03*
X27625000Y-84000000D03*
X28250000Y-84500000D03*
%TD*%
D12*
%TO.P,CN12,4,GND*%
%TO.N,GND*%
X38425000Y-27900000D03*
%TO.P,CN12,5,GND*%
X44075000Y-27900000D03*
%TD*%
D13*
%TO.P,J5,1,Pin_1*%
%TO.N,SPI1_MOSI*%
X29500000Y-120893332D03*
D14*
%TO.P,J5,2,Pin_2*%
%TO.N,SPI1_MISO*%
X29500000Y-123433332D03*
%TO.P,J5,3,Pin_3*%
%TO.N,SPI1_SCK*%
X29500000Y-125973332D03*
%TO.P,J5,4,Pin_4*%
%TO.N,SPI1_NSS*%
X29500000Y-128513332D03*
%TD*%
%TO.P,J3,4,Pin_4*%
%TO.N,GND*%
X52070000Y-81719998D03*
%TO.P,J3,3,Pin_3*%
%TO.N,GPSRXD*%
X52070000Y-79179998D03*
%TO.P,J3,2,Pin_2*%
%TO.N,GPSTXD*%
X52070000Y-76639998D03*
D13*
%TO.P,J3,1,Pin_1*%
%TO.N,VGPS*%
X52070000Y-74099998D03*
%TD*%
D15*
%TO.P,BT1,N*%
%TO.N,GND*%
X43000000Y-91750000D03*
%TO.P,BT1,P*%
%TO.N,VBAT*%
X43000000Y-164650000D03*
%TD*%
D13*
%TO.P,J4,1,Pin_1*%
%TO.N,+3.3V*%
X29500000Y-135965000D03*
D14*
%TO.P,J4,2,Pin_2*%
%TO.N,LPUART1_TX*%
X29500000Y-138505000D03*
%TO.P,J4,3,Pin_3*%
%TO.N,LPUART1_RX*%
X29500000Y-141045000D03*
%TO.P,J4,4,Pin_4*%
%TO.N,GND*%
X29500000Y-143585000D03*
%TD*%
D13*
%TO.P,J1,1,Pin_1*%
%TO.N,+5V*%
X29500000Y-163000000D03*
D14*
%TO.P,J1,2,Pin_2*%
%TO.N,GND*%
X29500000Y-165540000D03*
%TD*%
D13*
%TO.P,J9,1,Pin_1*%
%TO.N,+3.3V*%
X29500000Y-105821666D03*
D14*
%TO.P,J9,2,Pin_2*%
%TO.N,SCL*%
X29500000Y-108361666D03*
%TO.P,J9,3,Pin_3*%
%TO.N,SDA*%
X29500000Y-110901666D03*
%TO.P,J9,4,Pin_4*%
%TO.N,GND*%
X29500000Y-113441666D03*
%TD*%
D13*
%TO.P,J2,1,Pin_1*%
%TO.N,VBAT*%
X29500000Y-151040000D03*
D14*
%TO.P,J2,2,Pin_2*%
%TO.N,GND*%
X29500000Y-148500000D03*
%TD*%
D13*
%TO.P,J6,1,Pin_1*%
%TO.N,+3.3V*%
X29500000Y-90750000D03*
D14*
%TO.P,J6,2,Pin_2*%
%TO.N,SWDIO*%
X29500000Y-93290000D03*
%TO.P,J6,3,Pin_3*%
%TO.N,SWCLK*%
X29500000Y-95830000D03*
%TO.P,J6,4,Pin_4*%
%TO.N,GND*%
X29500000Y-98370000D03*
%TD*%
D16*
%TO.N,+3.3V*%
X43950000Y-58420000D03*
X53340000Y-44958000D03*
X48051577Y-50815909D03*
X52324000Y-69088000D03*
%TO.N,GND*%
X50750000Y-55750000D03*
X28750000Y-102750000D03*
X24750000Y-56000000D03*
X40000000Y-73500000D03*
X32500000Y-82750000D03*
X47000000Y-57500000D03*
X44750000Y-55250000D03*
X31750000Y-82750000D03*
X51750000Y-50500000D03*
X28750000Y-102000000D03*
X29500000Y-102750000D03*
X51000000Y-46000000D03*
X45750000Y-42750000D03*
X31250000Y-68750000D03*
X45750000Y-40750000D03*
X32500000Y-82000000D03*
X42250000Y-60500000D03*
X31750000Y-62000000D03*
X38500000Y-49500000D03*
X38000000Y-74500000D03*
X39000000Y-73500000D03*
X35550735Y-52350735D03*
X38000000Y-73500000D03*
X40000000Y-74500000D03*
X41000000Y-56000000D03*
X43500000Y-54000000D03*
X32000000Y-52750000D03*
X38250000Y-59000000D03*
X29500000Y-102000000D03*
X49750000Y-43000000D03*
X39000000Y-74500000D03*
X41250000Y-44750000D03*
X44000000Y-61500000D03*
X35550000Y-54600000D03*
X41750000Y-52250000D03*
X31750000Y-82000000D03*
X27500000Y-56000000D03*
D17*
%TO.N,VBAT*%
X32500000Y-85500000D03*
D16*
X26500000Y-161000000D03*
%TO.N,VDDRF*%
X36924265Y-52750000D03*
X47250000Y-60000000D03*
X37200000Y-49750000D03*
%TO.N,Net-(U8-V2)*%
X34300000Y-42700000D03*
X41200000Y-42050000D03*
%TO.N,Net-(U8-V1)*%
X41875000Y-42650000D03*
X34300000Y-43800000D03*
%TO.N,Net-(U8-VDD)*%
X40525000Y-41550000D03*
X34300000Y-41600000D03*
%TO.N,+3.3V*%
X48500000Y-91750000D03*
X39500000Y-63250000D03*
X39250000Y-68750000D03*
X31500000Y-73750000D03*
X39541819Y-58773292D03*
%TO.N,VDDRF1V55*%
X36299265Y-53299265D03*
X45575000Y-60825000D03*
X35500000Y-49000000D03*
%TO.N,SDA*%
X22750000Y-151750000D03*
X22750000Y-110500000D03*
X22800000Y-87250000D03*
X22750000Y-68000000D03*
%TO.N,SCL*%
X23500000Y-88250000D03*
X23500000Y-67000000D03*
X23508949Y-151400000D03*
X48000000Y-85000000D03*
X46250000Y-87750000D03*
X23500000Y-107600000D03*
%TO.N,LPUART1_TX*%
X52250000Y-136500000D03*
X53100000Y-53250000D03*
%TO.N,LPUART1_RX*%
X52500000Y-137500000D03*
X53700000Y-52500000D03*
%TO.N,SPI1_SCK*%
X25000000Y-121250000D03*
X25500000Y-64750000D03*
%TO.N,SWCLK*%
X30250000Y-64000000D03*
%TO.N,SWDIO*%
X29500000Y-60500000D03*
%TO.N,VDD_APP*%
X41200000Y-48600000D03*
X38400000Y-48200000D03*
%TO.N,GPSPOW*%
X51555637Y-65055637D03*
X43750000Y-63000000D03*
%TO.N,OSC_IN*%
X35650000Y-51500000D03*
X32250000Y-50250000D03*
%TO.N,VR_PA*%
X40268783Y-47978043D03*
X40000000Y-49600000D03*
%TO.N,/microcontroller_RF/FE_CTRL1*%
X47752000Y-54249560D03*
X31800000Y-43800000D03*
X42252330Y-47902330D03*
X34931671Y-46936657D03*
%TO.N,/microcontroller_RF/FE_CTRL2*%
X48445075Y-53850000D03*
X31800000Y-42700000D03*
%TO.N,/microcontroller_RF/FE_CTRL3*%
X31800000Y-41600000D03*
X48974324Y-53250084D03*
%TO.N,SPI1_NSS*%
X24250000Y-58500000D03*
X24250000Y-123000000D03*
%TO.N,CURROUT*%
X27713343Y-60981671D03*
X27750000Y-77750000D03*
%TO.N,SPI1_MISO*%
X26250000Y-65500000D03*
X25750000Y-119750000D03*
%TO.N,SPI1_MOSI*%
X27000000Y-66250000D03*
X26500000Y-118000000D03*
%TO.N,VCURR*%
X28250000Y-59250000D03*
X28000000Y-79155000D03*
%TO.N,BUT1*%
X46500000Y-49350000D03*
X25750000Y-40500000D03*
%TO.N,LED2*%
X47750000Y-40750000D03*
X47500000Y-49500000D03*
%TO.N,LED1*%
X50500000Y-40750000D03*
X47296265Y-50552265D03*
%TO.N,GPSRXD*%
X46500000Y-76000000D03*
%TO.N,GND*%
X52800000Y-63303137D03*
X52800000Y-58503137D03*
X52800000Y-56103137D03*
X52800000Y-39303137D03*
X52800000Y-38103137D03*
X52800000Y-36903137D03*
X52800000Y-33303137D03*
X51600000Y-57303137D03*
X51600000Y-48903137D03*
X51600000Y-36903137D03*
X51600000Y-35703137D03*
X51600000Y-33303137D03*
X50400000Y-50103137D03*
X50400000Y-33303137D03*
X50400000Y-32103137D03*
X49200000Y-38103137D03*
X49200000Y-35703137D03*
X49200000Y-34503137D03*
X49200000Y-33303137D03*
X48000000Y-32103137D03*
X48000000Y-28503137D03*
X48000000Y-27303137D03*
X46800000Y-38103137D03*
X46800000Y-33303137D03*
X46800000Y-32103137D03*
X46800000Y-29703137D03*
X46800000Y-28503137D03*
X45600000Y-36903137D03*
X45600000Y-35703137D03*
X52800000Y-59703137D03*
X45600000Y-34503137D03*
X45600000Y-28503137D03*
X44400000Y-36903137D03*
X44400000Y-34503137D03*
X44400000Y-33303137D03*
X44400000Y-32103137D03*
X43200000Y-36903137D03*
X43200000Y-34503137D03*
X48000000Y-29703137D03*
X43200000Y-33303137D03*
X43200000Y-30903137D03*
X39600000Y-38103137D03*
X39600000Y-33303137D03*
X39600000Y-32103137D03*
X39600000Y-30903137D03*
X38400000Y-33303137D03*
X38400000Y-30903137D03*
X51600000Y-34503137D03*
X37200000Y-36903137D03*
X45600000Y-30903137D03*
X37200000Y-35703137D03*
X38400000Y-38103137D03*
X37200000Y-33303137D03*
X37200000Y-32103137D03*
X36000000Y-39303137D03*
X36000000Y-38103137D03*
X52800000Y-62103137D03*
X36000000Y-36903137D03*
X36000000Y-35703137D03*
X36000000Y-34503137D03*
X36000000Y-32103137D03*
X36000000Y-30903137D03*
X44400000Y-30903137D03*
X36000000Y-29703137D03*
X36000000Y-28503137D03*
X36000000Y-27303137D03*
X34800000Y-63303137D03*
X34800000Y-62103137D03*
X34800000Y-60903137D03*
X39600000Y-35703137D03*
X34800000Y-39303137D03*
X34800000Y-35703137D03*
X34800000Y-34503137D03*
X52800000Y-34503137D03*
X34800000Y-33303137D03*
X34800000Y-29703137D03*
X36000000Y-33303137D03*
X33600000Y-60903137D03*
X33600000Y-38103137D03*
X33600000Y-36903137D03*
X48000000Y-30903137D03*
X33600000Y-35703137D03*
X33600000Y-34503137D03*
X33600000Y-28503137D03*
X33600000Y-27303137D03*
X32400000Y-46503137D03*
X34800000Y-30903137D03*
X32400000Y-39303137D03*
X45600000Y-29703137D03*
X32400000Y-38103137D03*
X32400000Y-36903137D03*
X48000000Y-33303137D03*
X32400000Y-35703137D03*
X46800000Y-30903137D03*
X32400000Y-34503137D03*
X32400000Y-32103137D03*
X32400000Y-30903137D03*
X32400000Y-29703137D03*
X37200000Y-30903137D03*
X49200000Y-36903137D03*
X32400000Y-28503137D03*
X32400000Y-27303137D03*
X31200000Y-48903137D03*
X52800000Y-35703137D03*
X31200000Y-46503137D03*
X31200000Y-45303137D03*
X31200000Y-39303137D03*
X31200000Y-38103137D03*
X31200000Y-36903137D03*
X31200000Y-35703137D03*
X31200000Y-34503137D03*
X38400000Y-34503137D03*
X31200000Y-33303137D03*
X31200000Y-29703137D03*
X31200000Y-27303137D03*
X49200000Y-32103137D03*
X30000000Y-46503137D03*
X46800000Y-34503137D03*
X30000000Y-45303137D03*
X30000000Y-44103137D03*
X46800000Y-27303137D03*
X30000000Y-42903137D03*
X45600000Y-32103137D03*
X30000000Y-41703137D03*
X33600000Y-32103137D03*
X43200000Y-35703137D03*
X30000000Y-39303137D03*
X30000000Y-38103137D03*
X30000000Y-36903137D03*
X30000000Y-35703137D03*
X30000000Y-34503137D03*
X30000000Y-33303137D03*
X30000000Y-32103137D03*
X30000000Y-30903137D03*
X30000000Y-29703137D03*
X30000000Y-28503137D03*
X34800000Y-28503137D03*
X30000000Y-27303137D03*
X28800000Y-48903137D03*
X45600000Y-33303137D03*
X28800000Y-42903137D03*
X28800000Y-41703137D03*
X28800000Y-39303137D03*
X37200000Y-34503137D03*
X28800000Y-38103137D03*
X28800000Y-35703137D03*
X33600000Y-29703137D03*
X28800000Y-34503137D03*
X28800000Y-33303137D03*
X28800000Y-32103137D03*
X28800000Y-30903137D03*
X28800000Y-29703137D03*
X28800000Y-28503137D03*
X28800000Y-27303137D03*
X27600000Y-53703137D03*
X27600000Y-52503137D03*
X27600000Y-51303137D03*
X50400000Y-34503137D03*
X27600000Y-50103137D03*
X44400000Y-35703137D03*
X27600000Y-48903137D03*
X51600000Y-32103137D03*
X27600000Y-47703137D03*
X27600000Y-46503137D03*
X31200000Y-28503137D03*
X27600000Y-42903137D03*
X27600000Y-41703137D03*
X27600000Y-39303137D03*
X27600000Y-38103137D03*
X27600000Y-36903137D03*
X27600000Y-35703137D03*
X48000000Y-34503137D03*
X27600000Y-34503137D03*
X27600000Y-33303137D03*
X33600000Y-33303137D03*
X37200000Y-45303137D03*
X27600000Y-32103137D03*
X27600000Y-30903137D03*
X28800000Y-36903137D03*
X26400000Y-63303137D03*
X26400000Y-62103137D03*
X26400000Y-60903137D03*
X49200000Y-39303137D03*
X26400000Y-59703137D03*
X26400000Y-54903137D03*
X26400000Y-53703137D03*
X26400000Y-52503137D03*
X26400000Y-51303137D03*
X39600000Y-36903137D03*
X26400000Y-50103137D03*
X26400000Y-48903137D03*
X26400000Y-47703137D03*
X26400000Y-46503137D03*
X52800000Y-32103137D03*
X26400000Y-42903137D03*
X26400000Y-41703137D03*
X26400000Y-39303137D03*
X26400000Y-38103137D03*
X26400000Y-36903137D03*
X37200000Y-38103137D03*
X26400000Y-35703137D03*
X26400000Y-34503137D03*
X39600000Y-34503137D03*
X26400000Y-33303137D03*
X33600000Y-63303137D03*
X26400000Y-32103137D03*
X38400000Y-36903137D03*
X25200000Y-59703137D03*
X33600000Y-62103137D03*
X34800000Y-27303137D03*
X25200000Y-53703137D03*
X25200000Y-52503137D03*
X33600000Y-39303137D03*
X25200000Y-51303137D03*
X25200000Y-34503137D03*
X33600000Y-30903137D03*
X34800000Y-36903137D03*
X25200000Y-36903137D03*
X24000000Y-41703137D03*
X25200000Y-38103137D03*
X32400000Y-48903137D03*
X38400000Y-32103137D03*
X44400000Y-46503137D03*
X24000000Y-40503137D03*
X24000000Y-39303137D03*
X43200000Y-32103137D03*
X24000000Y-38103137D03*
X24000000Y-36903137D03*
X24000000Y-35703137D03*
X24000000Y-34503137D03*
X24000000Y-32103137D03*
X52800000Y-57303137D03*
X25200000Y-60903137D03*
X31200000Y-30903137D03*
X25200000Y-48903137D03*
X30000000Y-48903137D03*
X25200000Y-50103137D03*
X52800000Y-60903137D03*
X25200000Y-32103137D03*
X52800000Y-64503137D03*
X25200000Y-39303137D03*
X45600000Y-27303137D03*
X22800000Y-45303137D03*
X26400000Y-58503137D03*
X38400000Y-35703137D03*
X22800000Y-44103137D03*
X22800000Y-42903137D03*
X24000000Y-33303137D03*
X22800000Y-41703137D03*
X34800000Y-38103137D03*
X51600000Y-39303137D03*
X22800000Y-40503137D03*
X25200000Y-63303137D03*
X24000000Y-42903137D03*
X22800000Y-39303137D03*
X22800000Y-36903137D03*
X25200000Y-62103137D03*
X32400000Y-33303137D03*
X22800000Y-35703137D03*
X22800000Y-38103137D03*
X31200000Y-32103137D03*
X22800000Y-34503137D03*
X22800000Y-33303137D03*
X25200000Y-35703137D03*
X22800000Y-30903137D03*
X34800000Y-32103137D03*
X22800000Y-27303137D03*
X51600000Y-38103137D03*
X22800000Y-32103137D03*
X25200000Y-33303137D03*
%TD*%
D10*
%TO.N,GPSRXD*%
X49679998Y-79179998D02*
X52000000Y-79179998D01*
X46500000Y-76000000D02*
X49679998Y-79179998D01*
%TO.N,+3.3V*%
X51600000Y-54051471D02*
X47850000Y-57801471D01*
X46937000Y-61267000D02*
X46175000Y-61267000D01*
X47850000Y-60354000D02*
X46937000Y-61267000D01*
X51600000Y-53001471D02*
X51600000Y-54051471D01*
X51248529Y-52650000D02*
X51600000Y-53001471D01*
X50872000Y-52650000D02*
X51248529Y-52650000D01*
X49037909Y-50815909D02*
X50872000Y-52650000D01*
X48051577Y-50815909D02*
X49037909Y-50815909D01*
X47850000Y-57801471D02*
X47850000Y-60354000D01*
%TO.N,/microcontroller_RF/FE_CTRL3*%
X32600000Y-42400000D02*
X31800000Y-41600000D01*
X32600000Y-43100000D02*
X32600000Y-42400000D01*
X35500000Y-46000000D02*
X32600000Y-43100000D01*
X41764215Y-46000000D02*
X35500000Y-46000000D01*
X43252330Y-47488115D02*
X41764215Y-46000000D01*
X47715246Y-53249560D02*
X43252330Y-48786644D01*
X43252330Y-48786644D02*
X43252330Y-47488115D01*
X48693164Y-53249560D02*
X47715246Y-53249560D01*
X48693688Y-53250084D02*
X48693164Y-53249560D01*
X48974324Y-53250084D02*
X48693688Y-53250084D01*
%TO.N,/microcontroller_RF/FE_CTRL2*%
X32048529Y-42948529D02*
X31800000Y-42700000D01*
X32400000Y-43600000D02*
X32400000Y-43551471D01*
X35200000Y-46400000D02*
X32400000Y-43600000D01*
X32400000Y-43551471D02*
X32048529Y-43200000D01*
X41598529Y-46400000D02*
X35200000Y-46400000D01*
X32048529Y-43200000D02*
X32048529Y-42948529D01*
X42852330Y-48952330D02*
X42852330Y-47653801D01*
X42852330Y-47653801D02*
X41598529Y-46400000D01*
X47549560Y-53649560D02*
X42852330Y-48952330D01*
X48445075Y-53850000D02*
X48244635Y-53649560D01*
X48244635Y-53649560D02*
X47549560Y-53649560D01*
%TO.N,/microcontroller_RF/FE_CTRL1*%
X47552000Y-54049560D02*
X47383874Y-54049560D01*
X47383874Y-54049560D02*
X42252330Y-48918016D01*
X47752000Y-54249560D02*
X47552000Y-54049560D01*
X42252330Y-48918016D02*
X42252330Y-47902330D01*
%TO.N,+3.3V*%
X45212000Y-62230000D02*
X41402000Y-62230000D01*
X46175000Y-61267000D02*
X45212000Y-62230000D01*
X44018529Y-58420000D02*
X46175000Y-60576471D01*
X46175000Y-60576471D02*
X46175000Y-61267000D01*
X43950000Y-58420000D02*
X44018529Y-58420000D01*
X41402000Y-62230000D02*
X41148000Y-61976000D01*
X41148000Y-61976000D02*
X39541819Y-61976000D01*
D18*
X39541819Y-61976000D02*
X39541819Y-58773292D01*
X39541819Y-63208181D02*
X39541819Y-61976000D01*
D19*
X53340000Y-45527486D02*
X53340000Y-44958000D01*
X48051577Y-50815909D02*
X53340000Y-45527486D01*
D10*
%TO.N,LED1*%
X48250000Y-42500000D02*
X50000000Y-40750000D01*
X47296265Y-50552265D02*
X48250000Y-49598530D01*
X48250000Y-49598530D02*
X48250000Y-42500000D01*
X50000000Y-40750000D02*
X50500000Y-40750000D01*
D18*
%TO.N,+3.3V*%
X51986000Y-68750000D02*
X52324000Y-69088000D01*
X39250000Y-68750000D02*
X51986000Y-68750000D01*
D20*
%TO.N,GND*%
X31750000Y-68250000D02*
X31750000Y-62000000D01*
X35549265Y-52352205D02*
X35550735Y-52350735D01*
X31250000Y-68750000D02*
X31750000Y-68250000D01*
X35549265Y-54599265D02*
X35549265Y-52352205D01*
X35550000Y-54600000D02*
X35549265Y-54599265D01*
D21*
%TO.N,VBAT*%
X37000000Y-90000000D02*
X37000000Y-94000000D01*
X32500000Y-85500000D02*
X37000000Y-90000000D01*
X37000000Y-94000000D02*
X39250000Y-96250000D01*
X39250000Y-96250000D02*
X39250000Y-156375000D01*
X39250000Y-156375000D02*
X37125000Y-158500000D01*
D10*
%TO.N,VDDRF*%
X36924265Y-50075735D02*
X37250000Y-49750000D01*
D19*
X47250000Y-60000000D02*
X40000000Y-52750000D01*
D10*
X36924265Y-52750000D02*
X36924265Y-50075735D01*
D19*
X40000000Y-52750000D02*
X36924265Y-52750000D01*
D10*
%TO.N,Net-(U8-V2)*%
X34300000Y-42700000D02*
X40550000Y-42700000D01*
X40550000Y-42700000D02*
X41200000Y-42050000D01*
%TO.N,Net-(U8-V1)*%
X34300000Y-43800000D02*
X40725000Y-43800000D01*
X40725000Y-43800000D02*
X41875000Y-42650000D01*
%TO.N,Net-(U8-VDD)*%
X34300000Y-41600000D02*
X40475000Y-41600000D01*
X40475000Y-41600000D02*
X40525000Y-41550000D01*
D18*
%TO.N,+3.3V*%
X31500000Y-74202082D02*
X31500000Y-73750000D01*
X39250000Y-66000000D02*
X39541819Y-65708181D01*
X39500000Y-63250000D02*
X39541819Y-63208181D01*
X39250000Y-68750000D02*
X39250000Y-66000000D01*
X39500000Y-63250000D02*
X39541819Y-63291819D01*
X39541819Y-63291819D02*
X39541819Y-65708181D01*
X48500000Y-91750000D02*
X48500000Y-91202082D01*
X48500000Y-91202082D02*
X31500000Y-74202082D01*
D10*
%TO.N,VDDRF1V55*%
X43825000Y-60825000D02*
X36299265Y-53299265D01*
X35500000Y-49000000D02*
X36250000Y-49750000D01*
X36250000Y-53250000D02*
X36299265Y-53299265D01*
X45575000Y-60825000D02*
X43825000Y-60825000D01*
X36250000Y-49750000D02*
X36250000Y-53250000D01*
%TO.N,SCL*%
X46750000Y-87250000D02*
X46250000Y-87750000D01*
X48000000Y-85000000D02*
X46750000Y-86250000D01*
X46750000Y-86250000D02*
X46750000Y-87250000D01*
%TO.N,LPUART1_TX*%
X52250000Y-83750000D02*
X52250000Y-136500000D01*
X53500000Y-82500000D02*
X52250000Y-83750000D01*
X53100000Y-53250000D02*
X53100000Y-54226471D01*
X53500000Y-54626471D02*
X53500000Y-82500000D01*
X53100000Y-54226471D02*
X53500000Y-54626471D01*
%TO.N,LPUART1_RX*%
X53700000Y-53950000D02*
X53900000Y-54150000D01*
X53900000Y-83100000D02*
X53000000Y-84000000D01*
X53000000Y-84000000D02*
X53000000Y-137000000D01*
X53000000Y-137000000D02*
X52500000Y-137500000D01*
X53900000Y-54150000D02*
X53900000Y-83100000D01*
X53700000Y-52500000D02*
X53700000Y-53950000D01*
%TO.N,SPI1_SCK*%
X25000000Y-65250000D02*
X25500000Y-64750000D01*
X25000000Y-121250000D02*
X25000000Y-65250000D01*
%TO.N,SWCLK*%
X29500000Y-95750000D02*
X29500000Y-95830000D01*
X32250000Y-93000000D02*
X29500000Y-95750000D01*
X32250000Y-89250000D02*
X32250000Y-93000000D01*
X30250000Y-64000000D02*
X30250000Y-87250000D01*
X30250000Y-87250000D02*
X32250000Y-89250000D01*
%TO.N,SWDIO*%
X29500000Y-93290000D02*
X31500000Y-91290000D01*
X29500000Y-87750000D02*
X29500000Y-60500000D01*
X31500000Y-89750000D02*
X29500000Y-87750000D01*
X31500000Y-91290000D02*
X31500000Y-89750000D01*
%TO.N,VDD_APP*%
X40578043Y-47378043D02*
X41200000Y-48000000D01*
X41200000Y-48000000D02*
X41200000Y-48600000D01*
X38400000Y-48200000D02*
X39221957Y-47378043D01*
X39221957Y-47378043D02*
X40578043Y-47378043D01*
%TO.N,GPSPOW*%
X44000000Y-63000000D02*
X46000000Y-65000000D01*
X51500000Y-65000000D02*
X51555637Y-65055637D01*
X43750000Y-63000000D02*
X44000000Y-63000000D01*
X46000000Y-65000000D02*
X51500000Y-65000000D01*
%TO.N,OSC_IN*%
X33500000Y-51500000D02*
X32250000Y-50250000D01*
X35650000Y-51500000D02*
X33500000Y-51500000D01*
D19*
%TO.N,VR_PA*%
X40268783Y-49331217D02*
X40000000Y-49600000D01*
X40268783Y-47978043D02*
X40268783Y-49331217D01*
D10*
%TO.N,/microcontroller_RF/FE_CTRL1*%
X31900000Y-43800000D02*
X34900000Y-46800000D01*
X31800000Y-43800000D02*
X31900000Y-43800000D01*
X41150000Y-46800000D02*
X42252330Y-47902330D01*
X34900000Y-46800000D02*
X41150000Y-46800000D01*
%TO.N,SPI1_NSS*%
X24250000Y-58500000D02*
X24250000Y-123000000D01*
%TO.N,CURROUT*%
X27750000Y-61000000D02*
X27750000Y-77750000D01*
%TO.N,SPI1_MISO*%
X25750000Y-66000000D02*
X26250000Y-65500000D01*
X25750000Y-119750000D02*
X25750000Y-66000000D01*
%TO.N,SPI1_MOSI*%
X26500000Y-66750000D02*
X26500000Y-118000000D01*
X27000000Y-66250000D02*
X26500000Y-66750000D01*
%TO.N,VCURR*%
X28250000Y-59250000D02*
X28500000Y-59500000D01*
X28500000Y-59500000D02*
X28500000Y-78655000D01*
X28500000Y-78655000D02*
X28000000Y-79155000D01*
%TO.N,BUT1*%
X41250000Y-40500000D02*
X25750000Y-40500000D01*
X46500000Y-49350000D02*
X46500000Y-45750000D01*
X46500000Y-45750000D02*
X41250000Y-40500000D01*
%TO.N,LED2*%
X47750000Y-49250000D02*
X47500000Y-49500000D01*
X47750000Y-40750000D02*
X47750000Y-49250000D01*
%TD*%
%TA.AperFunction,Conductor*%
%TO.N,GND*%
G36*
X37193039Y-25769685D02*
G01*
X37238794Y-25822489D01*
X37250000Y-25874000D01*
X37250000Y-27650000D01*
X39600000Y-27650000D01*
X39600000Y-25874000D01*
X39619685Y-25806961D01*
X39672489Y-25761206D01*
X39724000Y-25750000D01*
X42776000Y-25750000D01*
X42843039Y-25769685D01*
X42888794Y-25822489D01*
X42900000Y-25874000D01*
X42900000Y-27650000D01*
X45250000Y-27650000D01*
X45250000Y-25874000D01*
X45269685Y-25806961D01*
X45322489Y-25761206D01*
X45374000Y-25750000D01*
X54376000Y-25750000D01*
X54443039Y-25769685D01*
X54488794Y-25822489D01*
X54500000Y-25874000D01*
X54500000Y-52436538D01*
X54480315Y-52503577D01*
X54479599Y-52504197D01*
X54498519Y-52544355D01*
X54500000Y-52563461D01*
X54500000Y-54077674D01*
X54480315Y-54144713D01*
X54427511Y-54190468D01*
X54358353Y-54200412D01*
X54294797Y-54171387D01*
X54257023Y-54112609D01*
X54256225Y-54109768D01*
X54253110Y-54098142D01*
X54230341Y-54013168D01*
X54183671Y-53932332D01*
X54117668Y-53866329D01*
X54090819Y-53839480D01*
X54057334Y-53778157D01*
X54054500Y-53751799D01*
X54054500Y-52987811D01*
X54074185Y-52920772D01*
X54090819Y-52900130D01*
X54095469Y-52895479D01*
X54095471Y-52895476D01*
X54095474Y-52895474D01*
X54184355Y-52779643D01*
X54240228Y-52644754D01*
X54253061Y-52547275D01*
X54274537Y-52498726D01*
X54257023Y-52471473D01*
X54253061Y-52452723D01*
X54240228Y-52355247D01*
X54240228Y-52355246D01*
X54184355Y-52220358D01*
X54095474Y-52104526D01*
X53979643Y-52015645D01*
X53979640Y-52015644D01*
X53979638Y-52015642D01*
X53844757Y-51959773D01*
X53844752Y-51959771D01*
X53700001Y-51940715D01*
X53699999Y-51940715D01*
X53555247Y-51959771D01*
X53555245Y-51959772D01*
X53420361Y-52015643D01*
X53420358Y-52015644D01*
X53420358Y-52015645D01*
X53367524Y-52056186D01*
X53304526Y-52104526D01*
X53215643Y-52220361D01*
X53159772Y-52355245D01*
X53159771Y-52355247D01*
X53140715Y-52499998D01*
X53140715Y-52500001D01*
X53148516Y-52559257D01*
X53137750Y-52628292D01*
X53091370Y-52680548D01*
X53041764Y-52698381D01*
X52955246Y-52709772D01*
X52955245Y-52709772D01*
X52820361Y-52765643D01*
X52820358Y-52765644D01*
X52820358Y-52765645D01*
X52704526Y-52854526D01*
X52627583Y-52954801D01*
X52615643Y-52970361D01*
X52559772Y-53105245D01*
X52559771Y-53105247D01*
X52540715Y-53249998D01*
X52540715Y-53250001D01*
X52559771Y-53394752D01*
X52559773Y-53394757D01*
X52615642Y-53529638D01*
X52615642Y-53529639D01*
X52615644Y-53529642D01*
X52615645Y-53529643D01*
X52653448Y-53578909D01*
X52704530Y-53645479D01*
X52709181Y-53650130D01*
X52742666Y-53711453D01*
X52745500Y-53737811D01*
X52745500Y-54179800D01*
X52745500Y-54273142D01*
X52769659Y-54363303D01*
X52783569Y-54387397D01*
X52816328Y-54444137D01*
X52816330Y-54444140D01*
X53109181Y-54736990D01*
X53142666Y-54798313D01*
X53145500Y-54824671D01*
X53145500Y-68876399D01*
X53125815Y-68943438D01*
X53073011Y-68989193D01*
X53003853Y-68999137D01*
X52940297Y-68970112D01*
X52902523Y-68911334D01*
X52901725Y-68908493D01*
X52887304Y-68854672D01*
X52807720Y-68716828D01*
X52357172Y-68266280D01*
X52357171Y-68266279D01*
X52357168Y-68266277D01*
X52219330Y-68186697D01*
X52219329Y-68186696D01*
X52149539Y-68167996D01*
X52065584Y-68145500D01*
X52065581Y-68145500D01*
X39978500Y-68145500D01*
X39911461Y-68125815D01*
X39865706Y-68073011D01*
X39854500Y-68021500D01*
X39854500Y-66301754D01*
X39874185Y-66234715D01*
X39890819Y-66214073D01*
X39958053Y-66146839D01*
X40025539Y-66079353D01*
X40105123Y-65941510D01*
X40146319Y-65787765D01*
X40146319Y-65628598D01*
X40146319Y-63212235D01*
X40146319Y-62454500D01*
X40166004Y-62387461D01*
X40218808Y-62341706D01*
X40270319Y-62330500D01*
X40949799Y-62330500D01*
X41016838Y-62350185D01*
X41037480Y-62366819D01*
X41184332Y-62513671D01*
X41265168Y-62560341D01*
X41355329Y-62584500D01*
X41448671Y-62584500D01*
X43136340Y-62584500D01*
X43203379Y-62604185D01*
X43249134Y-62656989D01*
X43259078Y-62726147D01*
X43250901Y-62755953D01*
X43209772Y-62855245D01*
X43209771Y-62855247D01*
X43190715Y-62999998D01*
X43190715Y-63000001D01*
X43209771Y-63144752D01*
X43209773Y-63144757D01*
X43265642Y-63279638D01*
X43265645Y-63279644D01*
X43354525Y-63395473D01*
X43354526Y-63395474D01*
X43470355Y-63484354D01*
X43470361Y-63484357D01*
X43503325Y-63498011D01*
X43605246Y-63540228D01*
X43677623Y-63549756D01*
X43749999Y-63559285D01*
X43750000Y-63559285D01*
X43750001Y-63559285D01*
X43770410Y-63556598D01*
X43894754Y-63540228D01*
X43920125Y-63529718D01*
X43989591Y-63522249D01*
X44052071Y-63553522D01*
X44055259Y-63556598D01*
X45716329Y-65217668D01*
X45782332Y-65283671D01*
X45863168Y-65330341D01*
X45953329Y-65354500D01*
X51024880Y-65354500D01*
X51091919Y-65374185D01*
X51123255Y-65403013D01*
X51160161Y-65451109D01*
X51160160Y-65451109D01*
X51275992Y-65539991D01*
X51275998Y-65539994D01*
X51303062Y-65551204D01*
X51410883Y-65595865D01*
X51483260Y-65605393D01*
X51555636Y-65614922D01*
X51555637Y-65614922D01*
X51555638Y-65614922D01*
X51603888Y-65608569D01*
X51700391Y-65595865D01*
X51835280Y-65539992D01*
X51951111Y-65451111D01*
X52039992Y-65335280D01*
X52095865Y-65200391D01*
X52114922Y-65055637D01*
X52095865Y-64910883D01*
X52039992Y-64775995D01*
X51951111Y-64660163D01*
X51835280Y-64571282D01*
X51835277Y-64571281D01*
X51835275Y-64571279D01*
X51700394Y-64515410D01*
X51700389Y-64515408D01*
X51555638Y-64496352D01*
X51555636Y-64496352D01*
X51410884Y-64515408D01*
X51410882Y-64515409D01*
X51275997Y-64571280D01*
X51275994Y-64571282D01*
X51212666Y-64619876D01*
X51147497Y-64645070D01*
X51137180Y-64645500D01*
X46198201Y-64645500D01*
X46131162Y-64625815D01*
X46110520Y-64609181D01*
X44297520Y-62796181D01*
X44264035Y-62734858D01*
X44269019Y-62665166D01*
X44310891Y-62609233D01*
X44376355Y-62584816D01*
X44385201Y-62584500D01*
X45258669Y-62584500D01*
X45258671Y-62584500D01*
X45348832Y-62560341D01*
X45429668Y-62513671D01*
X46285520Y-61657819D01*
X46346843Y-61624334D01*
X46373201Y-61621500D01*
X46983669Y-61621500D01*
X46983671Y-61621500D01*
X47073832Y-61597341D01*
X47154668Y-61550671D01*
X48133671Y-60571668D01*
X48180341Y-60490832D01*
X48204500Y-60400671D01*
X48204500Y-60307329D01*
X48204500Y-57999672D01*
X48224185Y-57932633D01*
X48240819Y-57911991D01*
X48635010Y-57517800D01*
X51883671Y-54269139D01*
X51904148Y-54233671D01*
X51930341Y-54188303D01*
X51954500Y-54098142D01*
X51954500Y-52954800D01*
X51930341Y-52864639D01*
X51883671Y-52783803D01*
X51817668Y-52717800D01*
X51466197Y-52366329D01*
X51385361Y-52319659D01*
X51385362Y-52319659D01*
X51355307Y-52311606D01*
X51295200Y-52295500D01*
X51295198Y-52295500D01*
X51070200Y-52295500D01*
X51003161Y-52275815D01*
X50982519Y-52259181D01*
X49255578Y-50532239D01*
X49255573Y-50532235D01*
X49174725Y-50485558D01*
X49126510Y-50434991D01*
X49113286Y-50366384D01*
X49139254Y-50301520D01*
X49149035Y-50290499D01*
X53663681Y-45775855D01*
X53716934Y-45683617D01*
X53744500Y-45580739D01*
X53744500Y-45474233D01*
X53744500Y-45383803D01*
X53764185Y-45316764D01*
X53770125Y-45308316D01*
X53824354Y-45237644D01*
X53824353Y-45237644D01*
X53824355Y-45237643D01*
X53880228Y-45102754D01*
X53899285Y-44958000D01*
X53880228Y-44813246D01*
X53824355Y-44678358D01*
X53735474Y-44562526D01*
X53619643Y-44473645D01*
X53619640Y-44473644D01*
X53619638Y-44473642D01*
X53484757Y-44417773D01*
X53484752Y-44417771D01*
X53340001Y-44398715D01*
X53339999Y-44398715D01*
X53195247Y-44417771D01*
X53195245Y-44417772D01*
X53060361Y-44473643D01*
X52944526Y-44562526D01*
X52855643Y-44678361D01*
X52799772Y-44813245D01*
X52799771Y-44813247D01*
X52780715Y-44957998D01*
X52780715Y-44958001D01*
X52799771Y-45102752D01*
X52799773Y-45102757D01*
X52855642Y-45237638D01*
X52855643Y-45237639D01*
X52855645Y-45237643D01*
X52877213Y-45265750D01*
X52902407Y-45330917D01*
X52888369Y-45399362D01*
X52866518Y-45428917D01*
X48816181Y-49479255D01*
X48754858Y-49512740D01*
X48685166Y-49507756D01*
X48629233Y-49465884D01*
X48604816Y-49400420D01*
X48604500Y-49391574D01*
X48604500Y-42698200D01*
X48624185Y-42631161D01*
X48640814Y-42610524D01*
X50028390Y-41222947D01*
X50089711Y-41189464D01*
X50159403Y-41194448D01*
X50191556Y-41212255D01*
X50220355Y-41234354D01*
X50220361Y-41234357D01*
X50229615Y-41238190D01*
X50355246Y-41290228D01*
X50427623Y-41299756D01*
X50499999Y-41309285D01*
X50500000Y-41309285D01*
X50500001Y-41309285D01*
X50548251Y-41302932D01*
X50644754Y-41290228D01*
X50779643Y-41234355D01*
X50895474Y-41145474D01*
X50984355Y-41029643D01*
X51040228Y-40894754D01*
X51055382Y-40779644D01*
X51059285Y-40750001D01*
X51059285Y-40749998D01*
X51040228Y-40605247D01*
X51040228Y-40605246D01*
X50984355Y-40470358D01*
X50895474Y-40354526D01*
X50779643Y-40265645D01*
X50779640Y-40265644D01*
X50779638Y-40265642D01*
X50644757Y-40209773D01*
X50644752Y-40209771D01*
X50500001Y-40190715D01*
X50499999Y-40190715D01*
X50355247Y-40209771D01*
X50355245Y-40209772D01*
X50220361Y-40265643D01*
X50220358Y-40265644D01*
X50220358Y-40265645D01*
X50104526Y-40354526D01*
X50104524Y-40354527D01*
X50104519Y-40354532D01*
X50099866Y-40359185D01*
X50038541Y-40392667D01*
X50012189Y-40395500D01*
X49953329Y-40395500D01*
X49893221Y-40411606D01*
X49863167Y-40419659D01*
X49804849Y-40453329D01*
X49804848Y-40453328D01*
X49782335Y-40466326D01*
X49782330Y-40466330D01*
X48316181Y-41932480D01*
X48254858Y-41965965D01*
X48185166Y-41960981D01*
X48129233Y-41919109D01*
X48104816Y-41853645D01*
X48104500Y-41844799D01*
X48104500Y-41237811D01*
X48124185Y-41170772D01*
X48140819Y-41150130D01*
X48145469Y-41145479D01*
X48145471Y-41145476D01*
X48145474Y-41145474D01*
X48234355Y-41029643D01*
X48290228Y-40894754D01*
X48305382Y-40779644D01*
X48309285Y-40750001D01*
X48309285Y-40749998D01*
X48290228Y-40605247D01*
X48290228Y-40605246D01*
X48234355Y-40470358D01*
X48145474Y-40354526D01*
X48029643Y-40265645D01*
X48029640Y-40265644D01*
X48029638Y-40265642D01*
X47894757Y-40209773D01*
X47894752Y-40209771D01*
X47750001Y-40190715D01*
X47749999Y-40190715D01*
X47605247Y-40209771D01*
X47605245Y-40209772D01*
X47470361Y-40265643D01*
X47354526Y-40354526D01*
X47265643Y-40470361D01*
X47209772Y-40605245D01*
X47209771Y-40605247D01*
X47190715Y-40749998D01*
X47190715Y-40750001D01*
X47209771Y-40894752D01*
X47209773Y-40894757D01*
X47265642Y-41029638D01*
X47265642Y-41029639D01*
X47265644Y-41029642D01*
X47265645Y-41029643D01*
X47301888Y-41076876D01*
X47354530Y-41145479D01*
X47359181Y-41150130D01*
X47392666Y-41211453D01*
X47395500Y-41237811D01*
X47395500Y-48860244D01*
X47375815Y-48927283D01*
X47323011Y-48973038D01*
X47318953Y-48974805D01*
X47220360Y-49015643D01*
X47220357Y-49015645D01*
X47143766Y-49074415D01*
X47078596Y-49099609D01*
X47010152Y-49085570D01*
X46969905Y-49051527D01*
X46895474Y-48954526D01*
X46895470Y-48954522D01*
X46895467Y-48954519D01*
X46890815Y-48949866D01*
X46857333Y-48888541D01*
X46854500Y-48862189D01*
X46854500Y-45703330D01*
X46849218Y-45683617D01*
X46830341Y-45613168D01*
X46783671Y-45532332D01*
X46717668Y-45466329D01*
X41467668Y-40216329D01*
X41386832Y-40169659D01*
X41386833Y-40169659D01*
X41356778Y-40161606D01*
X41296671Y-40145500D01*
X41296669Y-40145500D01*
X26237811Y-40145500D01*
X26170772Y-40125815D01*
X26150130Y-40109181D01*
X26145479Y-40104530D01*
X26145474Y-40104526D01*
X26029643Y-40015645D01*
X26029640Y-40015644D01*
X26029638Y-40015642D01*
X25894757Y-39959773D01*
X25894752Y-39959771D01*
X25750001Y-39940715D01*
X25749999Y-39940715D01*
X25605247Y-39959771D01*
X25605245Y-39959772D01*
X25470361Y-40015643D01*
X25470358Y-40015644D01*
X25470358Y-40015645D01*
X25354526Y-40104526D01*
X25268738Y-40216328D01*
X25265643Y-40220361D01*
X25209772Y-40355245D01*
X25209771Y-40355247D01*
X25190715Y-40499998D01*
X25190715Y-40500001D01*
X25209771Y-40644752D01*
X25209773Y-40644757D01*
X25265642Y-40779638D01*
X25265645Y-40779644D01*
X25354525Y-40895473D01*
X25354526Y-40895474D01*
X25470355Y-40984354D01*
X25470361Y-40984357D01*
X25485711Y-40990715D01*
X25605246Y-41040228D01*
X25673548Y-41049220D01*
X25749999Y-41059285D01*
X25750000Y-41059285D01*
X25750001Y-41059285D01*
X25826452Y-41049220D01*
X25894754Y-41040228D01*
X26029643Y-40984355D01*
X26145474Y-40895474D01*
X26145476Y-40895472D01*
X26150134Y-40890815D01*
X26211459Y-40857333D01*
X26237811Y-40854500D01*
X31527427Y-40854500D01*
X31594466Y-40874185D01*
X31640221Y-40926989D01*
X31650165Y-40996147D01*
X31621140Y-41059703D01*
X31574880Y-41093061D01*
X31520360Y-41115643D01*
X31424155Y-41189464D01*
X31404526Y-41204526D01*
X31354012Y-41270358D01*
X31315643Y-41320361D01*
X31259772Y-41455245D01*
X31259771Y-41455247D01*
X31240715Y-41599998D01*
X31240715Y-41600001D01*
X31259771Y-41744752D01*
X31259773Y-41744757D01*
X31315642Y-41879638D01*
X31315645Y-41879644D01*
X31404525Y-41995473D01*
X31404526Y-41995474D01*
X31477702Y-42051625D01*
X31518905Y-42108053D01*
X31523059Y-42177799D01*
X31488846Y-42238719D01*
X31477702Y-42248375D01*
X31404528Y-42304523D01*
X31315643Y-42420361D01*
X31259772Y-42555245D01*
X31259771Y-42555247D01*
X31240715Y-42699998D01*
X31240715Y-42700001D01*
X31259771Y-42844752D01*
X31259773Y-42844757D01*
X31315642Y-42979638D01*
X31315645Y-42979644D01*
X31404525Y-43095473D01*
X31404526Y-43095474D01*
X31477702Y-43151625D01*
X31518905Y-43208053D01*
X31523059Y-43277799D01*
X31488846Y-43338719D01*
X31477702Y-43348375D01*
X31404528Y-43404523D01*
X31315643Y-43520361D01*
X31259772Y-43655245D01*
X31259771Y-43655247D01*
X31240715Y-43799998D01*
X31240715Y-43800001D01*
X31259771Y-43944752D01*
X31259773Y-43944757D01*
X31315642Y-44079638D01*
X31315645Y-44079644D01*
X31404525Y-44195473D01*
X31404526Y-44195474D01*
X31520355Y-44284354D01*
X31520361Y-44284357D01*
X31587801Y-44312291D01*
X31655246Y-44340228D01*
X31721049Y-44348891D01*
X31799999Y-44359285D01*
X31799999Y-44359284D01*
X31800000Y-44359285D01*
X31878945Y-44348891D01*
X31947978Y-44359656D01*
X31982810Y-44384149D01*
X34348100Y-46749439D01*
X34381585Y-46810762D01*
X34383358Y-46853303D01*
X34372386Y-46936652D01*
X34372386Y-46936658D01*
X34391442Y-47081409D01*
X34391444Y-47081414D01*
X34447313Y-47216295D01*
X34447316Y-47216301D01*
X34536196Y-47332130D01*
X34536197Y-47332131D01*
X34652026Y-47421011D01*
X34652032Y-47421014D01*
X34701355Y-47441444D01*
X34786917Y-47476885D01*
X34859294Y-47486413D01*
X34931670Y-47495942D01*
X34931671Y-47495942D01*
X34931672Y-47495942D01*
X34979922Y-47489589D01*
X35076425Y-47476885D01*
X35211314Y-47421012D01*
X35327145Y-47332131D01*
X35416026Y-47216300D01*
X35416025Y-47216300D01*
X35420974Y-47209852D01*
X35422030Y-47210662D01*
X35466484Y-47168281D01*
X35523298Y-47154500D01*
X38644799Y-47154500D01*
X38711838Y-47174185D01*
X38757593Y-47226989D01*
X38767537Y-47296147D01*
X38738512Y-47359703D01*
X38732485Y-47366174D01*
X38602718Y-47495942D01*
X38494264Y-47604396D01*
X38432941Y-47637881D01*
X38406583Y-47640715D01*
X38399999Y-47640715D01*
X38255247Y-47659771D01*
X38255245Y-47659772D01*
X38120361Y-47715643D01*
X38120358Y-47715644D01*
X38120358Y-47715645D01*
X38004526Y-47804526D01*
X37929479Y-47902330D01*
X37915643Y-47920361D01*
X37859772Y-48055245D01*
X37859771Y-48055247D01*
X37840715Y-48199998D01*
X37840715Y-48200001D01*
X37859771Y-48344752D01*
X37859773Y-48344757D01*
X37915642Y-48479638D01*
X37915645Y-48479644D01*
X38004525Y-48595473D01*
X38004526Y-48595474D01*
X38120355Y-48684354D01*
X38120361Y-48684357D01*
X38187801Y-48712291D01*
X38255246Y-48740228D01*
X38289625Y-48744754D01*
X38399999Y-48759285D01*
X38400000Y-48759285D01*
X38400001Y-48759285D01*
X38448251Y-48752932D01*
X38544754Y-48740228D01*
X38679643Y-48684355D01*
X38795474Y-48595474D01*
X38884355Y-48479643D01*
X38940228Y-48344754D01*
X38959285Y-48200000D01*
X38959285Y-48199998D01*
X38959285Y-48193415D01*
X38978970Y-48126376D01*
X38995604Y-48105734D01*
X39332477Y-47768862D01*
X39393800Y-47735377D01*
X39420158Y-47732543D01*
X39600424Y-47732543D01*
X39667463Y-47752228D01*
X39713218Y-47805032D01*
X39723363Y-47872728D01*
X39709498Y-47978041D01*
X39709498Y-47978044D01*
X39728554Y-48122795D01*
X39728556Y-48122800D01*
X39784425Y-48257681D01*
X39784428Y-48257687D01*
X39838658Y-48328359D01*
X39863853Y-48393528D01*
X39864283Y-48403846D01*
X39864283Y-48973174D01*
X39844598Y-49040213D01*
X39791794Y-49085968D01*
X39787737Y-49087735D01*
X39747201Y-49104526D01*
X39720358Y-49115645D01*
X39622525Y-49190715D01*
X39604526Y-49204526D01*
X39515643Y-49320361D01*
X39459772Y-49455245D01*
X39459771Y-49455247D01*
X39440715Y-49599998D01*
X39440715Y-49600001D01*
X39459771Y-49744752D01*
X39459773Y-49744757D01*
X39515642Y-49879638D01*
X39515645Y-49879644D01*
X39604525Y-49995473D01*
X39604526Y-49995474D01*
X39720355Y-50084354D01*
X39720361Y-50084357D01*
X39787801Y-50112291D01*
X39855246Y-50140228D01*
X39895094Y-50145474D01*
X39999999Y-50159285D01*
X40000000Y-50159285D01*
X40000001Y-50159285D01*
X40048251Y-50152932D01*
X40144754Y-50140228D01*
X40279643Y-50084355D01*
X40395474Y-49995474D01*
X40484355Y-49879643D01*
X40540228Y-49744754D01*
X40551855Y-49656431D01*
X40580119Y-49592537D01*
X40587098Y-49584951D01*
X40592464Y-49579586D01*
X40645717Y-49487348D01*
X40673283Y-49384470D01*
X40673283Y-49277964D01*
X40673283Y-49146215D01*
X40692968Y-49079176D01*
X40745772Y-49033421D01*
X40814930Y-49023477D01*
X40872770Y-49047840D01*
X40920355Y-49084354D01*
X40920361Y-49084357D01*
X40957183Y-49099609D01*
X41055246Y-49140228D01*
X41127623Y-49149756D01*
X41199999Y-49159285D01*
X41200000Y-49159285D01*
X41200001Y-49159285D01*
X41248251Y-49152932D01*
X41344754Y-49140228D01*
X41479643Y-49084355D01*
X41595474Y-48995474D01*
X41675457Y-48891238D01*
X41731882Y-48850039D01*
X41801628Y-48845884D01*
X41862549Y-48880096D01*
X41895301Y-48941814D01*
X41896925Y-48957813D01*
X41897829Y-48964684D01*
X41921989Y-49054848D01*
X41968658Y-49135682D01*
X41968660Y-49135685D01*
X47166207Y-54333232D01*
X47169569Y-54335812D01*
X47171685Y-54338710D01*
X47171953Y-54338978D01*
X47171911Y-54339019D01*
X47207234Y-54387397D01*
X47208662Y-54386806D01*
X47267642Y-54529198D01*
X47267645Y-54529204D01*
X47356525Y-54645033D01*
X47356526Y-54645034D01*
X47472355Y-54733914D01*
X47472361Y-54733917D01*
X47539801Y-54761851D01*
X47607246Y-54789788D01*
X47672001Y-54798313D01*
X47751999Y-54808845D01*
X47752000Y-54808845D01*
X47752001Y-54808845D01*
X47831999Y-54798313D01*
X47896754Y-54789788D01*
X48031643Y-54733915D01*
X48147474Y-54645034D01*
X48236355Y-54529203D01*
X48257840Y-54477333D01*
X48301678Y-54422932D01*
X48367972Y-54400866D01*
X48388585Y-54401848D01*
X48445074Y-54409285D01*
X48445075Y-54409285D01*
X48445076Y-54409285D01*
X48509024Y-54400866D01*
X48589829Y-54390228D01*
X48724718Y-54334355D01*
X48840549Y-54245474D01*
X48929430Y-54129643D01*
X48985303Y-53994754D01*
X48997914Y-53898961D01*
X49026180Y-53835065D01*
X49084505Y-53796594D01*
X49104656Y-53792210D01*
X49119078Y-53790312D01*
X49253967Y-53734439D01*
X49369798Y-53645558D01*
X49458679Y-53529727D01*
X49514552Y-53394838D01*
X49533609Y-53250084D01*
X49514552Y-53105330D01*
X49458679Y-52970442D01*
X49369798Y-52854610D01*
X49253967Y-52765729D01*
X49253964Y-52765728D01*
X49253962Y-52765726D01*
X49119081Y-52709857D01*
X49119076Y-52709855D01*
X48974325Y-52690799D01*
X48974323Y-52690799D01*
X48829571Y-52709855D01*
X48829569Y-52709856D01*
X48694685Y-52765727D01*
X48694682Y-52765728D01*
X48694682Y-52765729D01*
X48578850Y-52854610D01*
X48578848Y-52854611D01*
X48578847Y-52854613D01*
X48574714Y-52858746D01*
X48513389Y-52892228D01*
X48487037Y-52895060D01*
X47913446Y-52895060D01*
X47846407Y-52875375D01*
X47825765Y-52858741D01*
X43643149Y-48676124D01*
X43609664Y-48614801D01*
X43606830Y-48588443D01*
X43606830Y-47441445D01*
X43606830Y-47441444D01*
X43582671Y-47351283D01*
X43536001Y-47270447D01*
X43469998Y-47204444D01*
X43465667Y-47200113D01*
X43465656Y-47200103D01*
X41981884Y-45716330D01*
X41981883Y-45716329D01*
X41901047Y-45669659D01*
X41901048Y-45669659D01*
X41870993Y-45661606D01*
X41810886Y-45645500D01*
X41810884Y-45645500D01*
X35698201Y-45645500D01*
X35631162Y-45625815D01*
X35610520Y-45609181D01*
X34503013Y-44501674D01*
X34469528Y-44440351D01*
X34474512Y-44370659D01*
X34516384Y-44314726D01*
X34543241Y-44299433D01*
X34579643Y-44284355D01*
X34695474Y-44195474D01*
X34695476Y-44195472D01*
X34700134Y-44190815D01*
X34761459Y-44157333D01*
X34787811Y-44154500D01*
X40771669Y-44154500D01*
X40771671Y-44154500D01*
X40861832Y-44130341D01*
X40942668Y-44083671D01*
X41780734Y-43245603D01*
X41842057Y-43212119D01*
X41868415Y-43209285D01*
X41875001Y-43209285D01*
X41926211Y-43202543D01*
X42019754Y-43190228D01*
X42154643Y-43134355D01*
X42270474Y-43045474D01*
X42359355Y-42929643D01*
X42415228Y-42794754D01*
X42434285Y-42650000D01*
X42415228Y-42505246D01*
X42414305Y-42503019D01*
X42414087Y-42500992D01*
X42413124Y-42497395D01*
X42413684Y-42497244D01*
X42406837Y-42433552D01*
X42438112Y-42371073D01*
X42498201Y-42335420D01*
X42568026Y-42337913D01*
X42616548Y-42367887D01*
X46109181Y-45860520D01*
X46142666Y-45921843D01*
X46145500Y-45948201D01*
X46145500Y-48862189D01*
X46125815Y-48929228D01*
X46109185Y-48949866D01*
X46104532Y-48954519D01*
X46104527Y-48954524D01*
X46104526Y-48954526D01*
X46024681Y-49058582D01*
X46015643Y-49070361D01*
X45959772Y-49205245D01*
X45959771Y-49205247D01*
X45940715Y-49349998D01*
X45940715Y-49350001D01*
X45959771Y-49494752D01*
X45959773Y-49494757D01*
X46015642Y-49629638D01*
X46015645Y-49629644D01*
X46104525Y-49745473D01*
X46104526Y-49745474D01*
X46220355Y-49834354D01*
X46220361Y-49834357D01*
X46269049Y-49854524D01*
X46355246Y-49890228D01*
X46389610Y-49894752D01*
X46499999Y-49909285D01*
X46500000Y-49909285D01*
X46500001Y-49909285D01*
X46548251Y-49902932D01*
X46644754Y-49890228D01*
X46779643Y-49834355D01*
X46856234Y-49775583D01*
X46921400Y-49750390D01*
X46989845Y-49764428D01*
X47030091Y-49798470D01*
X47085352Y-49870487D01*
X47110546Y-49935654D01*
X47096508Y-50004099D01*
X47047694Y-50054089D01*
X47034433Y-50060531D01*
X47016629Y-50067906D01*
X47016626Y-50067907D01*
X46900791Y-50156791D01*
X46829269Y-50250001D01*
X46811908Y-50272626D01*
X46756037Y-50407510D01*
X46756036Y-50407512D01*
X46736980Y-50552263D01*
X46736980Y-50552266D01*
X46756036Y-50697017D01*
X46756038Y-50697022D01*
X46811907Y-50831903D01*
X46811910Y-50831909D01*
X46900790Y-50947738D01*
X46900791Y-50947739D01*
X47016620Y-51036619D01*
X47016626Y-51036622D01*
X47084066Y-51064556D01*
X47151511Y-51092493D01*
X47174747Y-51095552D01*
X47296264Y-51111550D01*
X47296265Y-51111550D01*
X47296266Y-51111550D01*
X47325215Y-51107738D01*
X47441019Y-51092493D01*
X47447094Y-51089976D01*
X47516558Y-51082504D01*
X47579040Y-51113774D01*
X47592917Y-51129038D01*
X47656103Y-51211383D01*
X47714018Y-51255823D01*
X47771932Y-51300263D01*
X47771938Y-51300266D01*
X47839378Y-51328200D01*
X47906823Y-51356137D01*
X47979200Y-51365665D01*
X48051576Y-51375194D01*
X48051577Y-51375194D01*
X48051578Y-51375194D01*
X48099828Y-51368841D01*
X48196331Y-51356137D01*
X48331220Y-51300264D01*
X48447051Y-51211383D01*
X48447053Y-51211381D01*
X48451711Y-51206724D01*
X48513036Y-51173242D01*
X48539388Y-51170409D01*
X48839708Y-51170409D01*
X48906747Y-51190094D01*
X48927389Y-51206728D01*
X50583988Y-52863326D01*
X50583998Y-52863337D01*
X50654333Y-52933672D01*
X50679132Y-52947989D01*
X50735168Y-52980341D01*
X50825329Y-53004500D01*
X50918671Y-53004500D01*
X51050328Y-53004500D01*
X51117367Y-53024185D01*
X51138009Y-53040819D01*
X51209181Y-53111991D01*
X51242666Y-53173314D01*
X51245500Y-53199672D01*
X51245500Y-53853270D01*
X51225815Y-53920309D01*
X51209181Y-53940951D01*
X47566330Y-57583801D01*
X47566328Y-57583804D01*
X47519659Y-57664638D01*
X47495500Y-57754801D01*
X47495500Y-59331640D01*
X47475815Y-59398679D01*
X47423011Y-59444434D01*
X47355316Y-59454579D01*
X47306432Y-59448144D01*
X47242536Y-59419879D01*
X47234935Y-59412886D01*
X40248371Y-52426322D01*
X40248369Y-52426320D01*
X40156131Y-52373066D01*
X40053253Y-52345500D01*
X40053252Y-52345500D01*
X37402765Y-52345500D01*
X37335726Y-52325815D01*
X37289971Y-52273011D01*
X37278765Y-52221500D01*
X37278765Y-50400415D01*
X37298450Y-50333376D01*
X37351254Y-50287621D01*
X37355298Y-50285860D01*
X37479643Y-50234355D01*
X37595474Y-50145474D01*
X37684355Y-50029643D01*
X37740228Y-49894754D01*
X37752932Y-49798251D01*
X37759285Y-49750001D01*
X37759285Y-49749998D01*
X37740228Y-49605247D01*
X37740228Y-49605246D01*
X37684355Y-49470358D01*
X37595474Y-49354526D01*
X37479643Y-49265645D01*
X37479640Y-49265644D01*
X37479638Y-49265642D01*
X37344757Y-49209773D01*
X37344752Y-49209771D01*
X37200001Y-49190715D01*
X37199999Y-49190715D01*
X37055247Y-49209771D01*
X37055245Y-49209772D01*
X36920361Y-49265643D01*
X36920358Y-49265644D01*
X36920358Y-49265645D01*
X36902114Y-49279644D01*
X36804526Y-49354526D01*
X36715642Y-49470361D01*
X36715639Y-49470368D01*
X36715205Y-49471416D01*
X36714602Y-49472163D01*
X36711579Y-49477400D01*
X36710761Y-49476928D01*
X36671357Y-49525814D01*
X36605061Y-49547871D01*
X36537363Y-49530583D01*
X36512969Y-49511630D01*
X36095604Y-49094265D01*
X36062119Y-49032942D01*
X36059285Y-49006584D01*
X36059285Y-48999998D01*
X36044611Y-48888541D01*
X36040228Y-48855246D01*
X35984355Y-48720358D01*
X35895474Y-48604526D01*
X35779643Y-48515645D01*
X35779640Y-48515644D01*
X35779638Y-48515642D01*
X35644757Y-48459773D01*
X35644752Y-48459771D01*
X35500001Y-48440715D01*
X35499999Y-48440715D01*
X35355247Y-48459771D01*
X35355245Y-48459772D01*
X35220361Y-48515643D01*
X35220358Y-48515644D01*
X35220358Y-48515645D01*
X35104526Y-48604526D01*
X35077456Y-48639805D01*
X35015643Y-48720361D01*
X34959772Y-48855245D01*
X34959771Y-48855247D01*
X34940715Y-48999998D01*
X34940715Y-49000001D01*
X34959771Y-49144752D01*
X34959773Y-49144757D01*
X35015642Y-49279638D01*
X35015645Y-49279644D01*
X35104525Y-49395473D01*
X35104526Y-49395474D01*
X35220355Y-49484354D01*
X35220361Y-49484357D01*
X35287801Y-49512291D01*
X35355246Y-49540228D01*
X35413301Y-49547871D01*
X35499999Y-49559285D01*
X35506584Y-49559285D01*
X35573623Y-49578970D01*
X35594265Y-49595604D01*
X35859181Y-49860520D01*
X35892666Y-49921843D01*
X35895500Y-49948201D01*
X35895500Y-50831640D01*
X35875815Y-50898679D01*
X35823011Y-50944434D01*
X35755316Y-50954579D01*
X35650003Y-50940715D01*
X35649999Y-50940715D01*
X35505247Y-50959771D01*
X35505245Y-50959772D01*
X35370361Y-51015643D01*
X35370358Y-51015644D01*
X35370358Y-51015645D01*
X35254526Y-51104526D01*
X35254524Y-51104527D01*
X35254519Y-51104532D01*
X35249866Y-51109185D01*
X35188541Y-51142667D01*
X35162189Y-51145500D01*
X33698201Y-51145500D01*
X33631162Y-51125815D01*
X33610520Y-51109181D01*
X32845604Y-50344265D01*
X32812119Y-50282942D01*
X32809285Y-50256584D01*
X32809285Y-50249998D01*
X32790228Y-50105247D01*
X32790228Y-50105246D01*
X32734355Y-49970358D01*
X32645474Y-49854526D01*
X32529643Y-49765645D01*
X32529640Y-49765644D01*
X32529638Y-49765642D01*
X32394757Y-49709773D01*
X32394752Y-49709771D01*
X32250001Y-49690715D01*
X32249999Y-49690715D01*
X32105247Y-49709771D01*
X32105245Y-49709772D01*
X31970361Y-49765643D01*
X31970358Y-49765644D01*
X31970358Y-49765645D01*
X31854526Y-49854526D01*
X31792275Y-49935654D01*
X31765643Y-49970361D01*
X31709772Y-50105245D01*
X31709771Y-50105247D01*
X31690715Y-50249998D01*
X31690715Y-50250001D01*
X31709771Y-50394752D01*
X31709773Y-50394757D01*
X31765642Y-50529638D01*
X31765645Y-50529644D01*
X31854525Y-50645473D01*
X31854526Y-50645474D01*
X31970355Y-50734354D01*
X31970361Y-50734357D01*
X32037801Y-50762291D01*
X32105246Y-50790228D01*
X32177623Y-50799756D01*
X32249999Y-50809285D01*
X32256584Y-50809285D01*
X32323623Y-50828970D01*
X32344265Y-50845604D01*
X33216329Y-51717668D01*
X33282332Y-51783671D01*
X33363168Y-51830341D01*
X33453329Y-51854500D01*
X35162189Y-51854500D01*
X35229228Y-51874185D01*
X35249866Y-51890815D01*
X35254523Y-51895472D01*
X35370355Y-51984354D01*
X35370361Y-51984357D01*
X35437801Y-52012291D01*
X35505246Y-52040228D01*
X35544684Y-52045420D01*
X35649999Y-52059285D01*
X35650000Y-52059285D01*
X35650001Y-52059285D01*
X35694293Y-52053453D01*
X35755315Y-52045420D01*
X35824350Y-52056186D01*
X35876606Y-52102565D01*
X35895500Y-52168359D01*
X35895500Y-52872503D01*
X35875815Y-52939542D01*
X35869876Y-52947989D01*
X35814910Y-53019622D01*
X35814908Y-53019625D01*
X35759037Y-53154510D01*
X35759036Y-53154512D01*
X35739980Y-53299263D01*
X35739980Y-53299266D01*
X35759036Y-53444017D01*
X35759038Y-53444022D01*
X35814907Y-53578903D01*
X35814910Y-53578909D01*
X35903790Y-53694738D01*
X35903791Y-53694739D01*
X36019620Y-53783619D01*
X36019626Y-53783622D01*
X36066798Y-53803161D01*
X36154511Y-53839493D01*
X36226888Y-53849021D01*
X36299264Y-53858550D01*
X36305849Y-53858550D01*
X36372888Y-53878235D01*
X36393530Y-53894869D01*
X43607332Y-61108671D01*
X43607334Y-61108672D01*
X43607338Y-61108675D01*
X43638088Y-61126428D01*
X43688169Y-61155342D01*
X43778329Y-61179501D01*
X43778331Y-61179501D01*
X43879268Y-61179501D01*
X43879284Y-61179500D01*
X45087189Y-61179500D01*
X45154228Y-61199185D01*
X45174866Y-61215815D01*
X45179523Y-61220472D01*
X45295355Y-61309354D01*
X45295361Y-61309357D01*
X45361455Y-61336734D01*
X45415859Y-61380574D01*
X45437924Y-61446869D01*
X45420645Y-61514568D01*
X45401684Y-61538976D01*
X45101480Y-61839181D01*
X45040157Y-61872666D01*
X45013799Y-61875500D01*
X41600201Y-61875500D01*
X41533162Y-61855815D01*
X41512520Y-61839181D01*
X41365669Y-61692330D01*
X41365668Y-61692329D01*
X41284832Y-61645659D01*
X41284833Y-61645659D01*
X41254778Y-61637606D01*
X41194671Y-61621500D01*
X41194669Y-61621500D01*
X40270319Y-61621500D01*
X40203280Y-61601815D01*
X40157525Y-61549011D01*
X40146319Y-61497500D01*
X40146319Y-58693710D01*
X40146319Y-58693708D01*
X40105123Y-58539964D01*
X40065331Y-58471042D01*
X40025541Y-58402123D01*
X40025537Y-58402118D01*
X39912992Y-58289573D01*
X39912987Y-58289569D01*
X39775149Y-58209989D01*
X39775148Y-58209988D01*
X39736711Y-58199689D01*
X39621403Y-58168792D01*
X39462235Y-58168792D01*
X39369988Y-58193509D01*
X39308489Y-58209988D01*
X39308488Y-58209989D01*
X39170650Y-58289569D01*
X39170645Y-58289573D01*
X39058100Y-58402118D01*
X39058096Y-58402123D01*
X38978516Y-58539961D01*
X38978515Y-58539962D01*
X38957917Y-58616836D01*
X38937319Y-58693708D01*
X38937319Y-58693710D01*
X38937319Y-62998022D01*
X38933094Y-63030114D01*
X38895500Y-63170417D01*
X38895500Y-63329583D01*
X38933094Y-63469887D01*
X38937319Y-63501977D01*
X38937319Y-65406427D01*
X38917634Y-65473466D01*
X38901000Y-65494108D01*
X38766281Y-65628826D01*
X38766277Y-65628831D01*
X38686697Y-65766669D01*
X38686696Y-65766670D01*
X38681045Y-65787762D01*
X38645500Y-65920416D01*
X38645500Y-68829584D01*
X38666644Y-68908493D01*
X38686696Y-68983329D01*
X38686697Y-68983330D01*
X38766277Y-69121168D01*
X38766279Y-69121171D01*
X38766280Y-69121172D01*
X38878828Y-69233720D01*
X39016672Y-69313304D01*
X39170416Y-69354500D01*
X39329584Y-69354500D01*
X51684246Y-69354500D01*
X51751285Y-69374185D01*
X51771927Y-69390819D01*
X51952828Y-69571720D01*
X52090672Y-69651304D01*
X52244416Y-69692500D01*
X52244419Y-69692500D01*
X52403580Y-69692500D01*
X52403583Y-69692500D01*
X52557328Y-69651304D01*
X52695172Y-69571720D01*
X52807720Y-69459172D01*
X52887304Y-69321328D01*
X52901726Y-69267504D01*
X52938090Y-69207845D01*
X53000937Y-69177316D01*
X53070312Y-69185611D01*
X53124190Y-69230096D01*
X53145465Y-69296648D01*
X53145500Y-69299599D01*
X53145500Y-72884271D01*
X53125815Y-72951310D01*
X53073011Y-72997065D01*
X53003853Y-73007009D01*
X52997311Y-73005889D01*
X52945067Y-72995498D01*
X51194936Y-72995498D01*
X51120698Y-73010264D01*
X51036515Y-73066513D01*
X50980266Y-73150697D01*
X50980264Y-73150701D01*
X50965500Y-73224926D01*
X50965500Y-74975061D01*
X50980266Y-75049299D01*
X51036515Y-75133482D01*
X51070234Y-75156012D01*
X51120699Y-75189732D01*
X51120702Y-75189732D01*
X51120703Y-75189733D01*
X51142684Y-75194105D01*
X51194933Y-75204498D01*
X52945066Y-75204497D01*
X52997313Y-75194105D01*
X53066901Y-75200334D01*
X53122078Y-75243197D01*
X53145322Y-75309087D01*
X53145500Y-75315723D01*
X53145500Y-75861438D01*
X53125815Y-75928477D01*
X53073011Y-75974232D01*
X53003853Y-75984176D01*
X52940297Y-75955151D01*
X52922547Y-75936166D01*
X52889731Y-75892711D01*
X52738462Y-75754812D01*
X52738460Y-75754810D01*
X52564430Y-75647055D01*
X52564424Y-75647052D01*
X52413993Y-75588775D01*
X52373556Y-75573110D01*
X52172347Y-75535498D01*
X51967653Y-75535498D01*
X51766444Y-75573110D01*
X51766441Y-75573110D01*
X51766441Y-75573111D01*
X51575575Y-75647052D01*
X51575569Y-75647055D01*
X51401539Y-75754810D01*
X51401537Y-75754812D01*
X51250269Y-75892710D01*
X51126912Y-76056062D01*
X51035673Y-76239293D01*
X50979654Y-76436181D01*
X50960768Y-76639997D01*
X50960768Y-76639998D01*
X50979654Y-76843814D01*
X51035673Y-77040702D01*
X51126912Y-77223933D01*
X51250269Y-77387285D01*
X51401537Y-77525183D01*
X51401539Y-77525185D01*
X51575569Y-77632940D01*
X51575575Y-77632943D01*
X51616010Y-77648607D01*
X51766444Y-77706886D01*
X51967653Y-77744498D01*
X51967656Y-77744498D01*
X52172344Y-77744498D01*
X52172347Y-77744498D01*
X52373556Y-77706886D01*
X52564427Y-77632942D01*
X52738462Y-77525184D01*
X52889732Y-77387283D01*
X52922546Y-77343829D01*
X52978655Y-77302194D01*
X53048367Y-77297503D01*
X53109549Y-77331245D01*
X53142776Y-77392708D01*
X53145500Y-77418557D01*
X53145500Y-78401438D01*
X53125815Y-78468477D01*
X53073011Y-78514232D01*
X53003853Y-78524176D01*
X52940297Y-78495151D01*
X52922547Y-78476166D01*
X52889731Y-78432711D01*
X52738462Y-78294812D01*
X52738460Y-78294810D01*
X52564430Y-78187055D01*
X52564424Y-78187052D01*
X52413993Y-78128775D01*
X52373556Y-78113110D01*
X52172347Y-78075498D01*
X51967653Y-78075498D01*
X51766444Y-78113110D01*
X51766441Y-78113110D01*
X51766441Y-78113111D01*
X51575575Y-78187052D01*
X51575569Y-78187055D01*
X51401539Y-78294810D01*
X51401537Y-78294812D01*
X51250269Y-78432710D01*
X51126912Y-78596062D01*
X51046889Y-78756770D01*
X50999386Y-78808007D01*
X50935889Y-78825498D01*
X49878199Y-78825498D01*
X49811160Y-78805813D01*
X49790518Y-78789179D01*
X47095604Y-76094265D01*
X47062119Y-76032942D01*
X47059285Y-76006584D01*
X47059285Y-75999998D01*
X47040228Y-75855247D01*
X47040228Y-75855246D01*
X46984355Y-75720358D01*
X46895474Y-75604526D01*
X46779643Y-75515645D01*
X46779640Y-75515644D01*
X46779638Y-75515642D01*
X46644757Y-75459773D01*
X46644752Y-75459771D01*
X46500001Y-75440715D01*
X46499999Y-75440715D01*
X46355247Y-75459771D01*
X46355245Y-75459772D01*
X46220361Y-75515643D01*
X46104526Y-75604526D01*
X46015643Y-75720361D01*
X45959772Y-75855245D01*
X45959771Y-75855247D01*
X45940715Y-75999998D01*
X45940715Y-76000001D01*
X45959771Y-76144752D01*
X45959773Y-76144757D01*
X46015642Y-76279638D01*
X46015645Y-76279644D01*
X46104525Y-76395473D01*
X46104526Y-76395474D01*
X46220355Y-76484354D01*
X46220361Y-76484357D01*
X46287801Y-76512291D01*
X46355246Y-76540228D01*
X46427623Y-76549756D01*
X46499999Y-76559285D01*
X46506584Y-76559285D01*
X46573623Y-76578970D01*
X46594265Y-76595604D01*
X49462330Y-79463669D01*
X49543166Y-79510339D01*
X49633327Y-79534498D01*
X49726669Y-79534498D01*
X50935889Y-79534498D01*
X51002928Y-79554183D01*
X51046889Y-79603226D01*
X51126912Y-79763933D01*
X51250269Y-79927285D01*
X51401537Y-80065183D01*
X51401539Y-80065185D01*
X51575569Y-80172940D01*
X51575571Y-80172941D01*
X51575573Y-80172942D01*
X51575576Y-80172943D01*
X51575578Y-80172944D01*
X51651737Y-80202448D01*
X51707139Y-80245021D01*
X51730730Y-80310787D01*
X51715019Y-80378868D01*
X51664996Y-80427647D01*
X51639040Y-80437849D01*
X51606519Y-80446563D01*
X51606507Y-80446568D01*
X51392422Y-80546397D01*
X51392420Y-80546398D01*
X51198926Y-80681884D01*
X51198920Y-80681889D01*
X51031891Y-80848918D01*
X51031886Y-80848924D01*
X50896400Y-81042418D01*
X50896399Y-81042420D01*
X50796570Y-81256505D01*
X50796567Y-81256511D01*
X50739364Y-81469997D01*
X50739364Y-81469998D01*
X51636988Y-81469998D01*
X51604075Y-81527005D01*
X51570000Y-81654172D01*
X51570000Y-81785824D01*
X51604075Y-81912991D01*
X51636988Y-81969998D01*
X50739364Y-81969998D01*
X50796567Y-82183484D01*
X50796570Y-82183490D01*
X50896399Y-82397576D01*
X51031894Y-82591080D01*
X51198917Y-82758103D01*
X51392421Y-82893598D01*
X51606507Y-82993427D01*
X51606516Y-82993431D01*
X51820000Y-83050632D01*
X51820000Y-82153010D01*
X51877007Y-82185923D01*
X52004174Y-82219998D01*
X52135826Y-82219998D01*
X52262993Y-82185923D01*
X52320000Y-82153010D01*
X52320000Y-83074559D01*
X52321467Y-83076568D01*
X52325624Y-83146314D01*
X52292460Y-83206200D01*
X52032332Y-83466329D01*
X51966330Y-83532330D01*
X51966328Y-83532333D01*
X51919659Y-83613167D01*
X51895500Y-83703330D01*
X51895500Y-136012189D01*
X51875815Y-136079228D01*
X51859185Y-136099866D01*
X51854532Y-136104519D01*
X51854527Y-136104524D01*
X51854526Y-136104526D01*
X51854501Y-136104559D01*
X51765643Y-136220361D01*
X51709772Y-136355245D01*
X51709771Y-136355247D01*
X51690715Y-136499998D01*
X51690715Y-136500001D01*
X51709771Y-136644752D01*
X51709773Y-136644757D01*
X51765642Y-136779638D01*
X51765645Y-136779644D01*
X51854525Y-136895473D01*
X51854526Y-136895474D01*
X51970355Y-136984354D01*
X51970357Y-136984355D01*
X51992838Y-136993667D01*
X52047241Y-137037506D01*
X52069307Y-137103800D01*
X52052029Y-137171499D01*
X52043763Y-137183713D01*
X52015644Y-137220358D01*
X52015643Y-137220360D01*
X51959772Y-137355245D01*
X51959771Y-137355247D01*
X51940715Y-137499998D01*
X51940715Y-137500001D01*
X51959771Y-137644752D01*
X51959773Y-137644757D01*
X52015642Y-137779638D01*
X52015645Y-137779644D01*
X52104525Y-137895473D01*
X52104526Y-137895474D01*
X52220355Y-137984354D01*
X52220361Y-137984357D01*
X52287801Y-138012291D01*
X52355246Y-138040228D01*
X52427623Y-138049756D01*
X52499999Y-138059285D01*
X52500000Y-138059285D01*
X52500001Y-138059285D01*
X52548251Y-138052932D01*
X52644754Y-138040228D01*
X52779643Y-137984355D01*
X52895474Y-137895474D01*
X52984355Y-137779643D01*
X53040228Y-137644754D01*
X53059285Y-137500000D01*
X53059285Y-137499998D01*
X53059285Y-137493415D01*
X53078970Y-137426376D01*
X53095604Y-137405734D01*
X53146093Y-137355245D01*
X53283671Y-137217668D01*
X53311957Y-137168674D01*
X53330341Y-137136832D01*
X53354500Y-137046671D01*
X53354500Y-84198201D01*
X53374185Y-84131162D01*
X53390819Y-84110520D01*
X53755840Y-83745499D01*
X54183671Y-83317668D01*
X54230341Y-83236832D01*
X54254500Y-83146671D01*
X54254500Y-83146668D01*
X54256225Y-83140231D01*
X54292590Y-83080571D01*
X54355438Y-83050042D01*
X54424813Y-83058337D01*
X54478691Y-83102822D01*
X54499965Y-83169375D01*
X54500000Y-83172325D01*
X54500000Y-173876000D01*
X54480315Y-173943039D01*
X54427511Y-173988794D01*
X54376000Y-174000000D01*
X22124000Y-174000000D01*
X22056961Y-173980315D01*
X22011206Y-173927511D01*
X22000000Y-173876000D01*
X22000000Y-170615186D01*
X22849500Y-170615186D01*
X22849500Y-170884813D01*
X22879686Y-171152719D01*
X22879688Y-171152731D01*
X22939684Y-171415594D01*
X22939687Y-171415602D01*
X23028734Y-171670082D01*
X23145714Y-171912994D01*
X23145716Y-171912997D01*
X23289162Y-172141289D01*
X23457266Y-172352085D01*
X23647915Y-172542734D01*
X23858711Y-172710838D01*
X24087003Y-172854284D01*
X24329921Y-172971267D01*
X24521049Y-173038145D01*
X24584397Y-173060312D01*
X24584405Y-173060315D01*
X24584408Y-173060315D01*
X24584409Y-173060316D01*
X24847268Y-173120312D01*
X25115187Y-173150499D01*
X25115188Y-173150500D01*
X25115191Y-173150500D01*
X25384812Y-173150500D01*
X25384812Y-173150499D01*
X25652732Y-173120312D01*
X25915591Y-173060316D01*
X26170079Y-172971267D01*
X26412997Y-172854284D01*
X26641289Y-172710838D01*
X26852085Y-172542734D01*
X27042734Y-172352085D01*
X27210838Y-172141289D01*
X27354284Y-171912997D01*
X27471267Y-171670079D01*
X27560316Y-171415591D01*
X27620312Y-171152732D01*
X27650500Y-170884809D01*
X27650500Y-170615191D01*
X27650499Y-170615186D01*
X48849500Y-170615186D01*
X48849500Y-170884813D01*
X48879686Y-171152719D01*
X48879688Y-171152731D01*
X48939684Y-171415594D01*
X48939687Y-171415602D01*
X49028734Y-171670082D01*
X49145714Y-171912994D01*
X49145716Y-171912997D01*
X49289162Y-172141289D01*
X49457266Y-172352085D01*
X49647915Y-172542734D01*
X49858711Y-172710838D01*
X50087003Y-172854284D01*
X50329921Y-172971267D01*
X50521049Y-173038145D01*
X50584397Y-173060312D01*
X50584405Y-173060315D01*
X50584408Y-173060315D01*
X50584409Y-173060316D01*
X50847268Y-173120312D01*
X51115187Y-173150499D01*
X51115188Y-173150500D01*
X51115191Y-173150500D01*
X51384812Y-173150500D01*
X51384812Y-173150499D01*
X51652732Y-173120312D01*
X51915591Y-173060316D01*
X52170079Y-172971267D01*
X52412997Y-172854284D01*
X52641289Y-172710838D01*
X52852085Y-172542734D01*
X53042734Y-172352085D01*
X53210838Y-172141289D01*
X53354284Y-171912997D01*
X53471267Y-171670079D01*
X53560316Y-171415591D01*
X53620312Y-171152732D01*
X53650500Y-170884809D01*
X53650500Y-170615191D01*
X53620312Y-170347268D01*
X53560316Y-170084409D01*
X53471267Y-169829921D01*
X53354284Y-169587003D01*
X53210838Y-169358711D01*
X53042734Y-169147915D01*
X52852085Y-168957266D01*
X52641289Y-168789162D01*
X52412997Y-168645716D01*
X52412994Y-168645714D01*
X52170082Y-168528734D01*
X51915602Y-168439687D01*
X51915594Y-168439684D01*
X51718446Y-168394687D01*
X51652732Y-168379688D01*
X51652728Y-168379687D01*
X51652719Y-168379686D01*
X51384813Y-168349500D01*
X51384809Y-168349500D01*
X51115191Y-168349500D01*
X51115186Y-168349500D01*
X50847280Y-168379686D01*
X50847268Y-168379688D01*
X50584405Y-168439684D01*
X50584397Y-168439687D01*
X50329917Y-168528734D01*
X50087005Y-168645714D01*
X49858712Y-168789161D01*
X49647915Y-168957265D01*
X49457265Y-169147915D01*
X49289161Y-169358712D01*
X49145714Y-169587005D01*
X49028734Y-169829917D01*
X48939687Y-170084397D01*
X48939684Y-170084405D01*
X48879688Y-170347268D01*
X48879686Y-170347280D01*
X48849500Y-170615186D01*
X27650499Y-170615186D01*
X27620312Y-170347268D01*
X27560316Y-170084409D01*
X27471267Y-169829921D01*
X27354284Y-169587003D01*
X27210838Y-169358711D01*
X27042734Y-169147915D01*
X26852085Y-168957266D01*
X26641289Y-168789162D01*
X26412997Y-168645716D01*
X26412994Y-168645714D01*
X26170082Y-168528734D01*
X25915602Y-168439687D01*
X25915594Y-168439684D01*
X25718446Y-168394687D01*
X25652732Y-168379688D01*
X25652728Y-168379687D01*
X25652719Y-168379686D01*
X25384813Y-168349500D01*
X25384809Y-168349500D01*
X25115191Y-168349500D01*
X25115186Y-168349500D01*
X24847280Y-168379686D01*
X24847268Y-168379688D01*
X24584405Y-168439684D01*
X24584397Y-168439687D01*
X24329917Y-168528734D01*
X24087005Y-168645714D01*
X23858712Y-168789161D01*
X23647915Y-168957265D01*
X23457265Y-169147915D01*
X23289161Y-169358712D01*
X23145714Y-169587005D01*
X23028734Y-169829917D01*
X22939687Y-170084397D01*
X22939684Y-170084405D01*
X22879688Y-170347268D01*
X22879686Y-170347280D01*
X22849500Y-170615186D01*
X22000000Y-170615186D01*
X22000000Y-165289999D01*
X28169364Y-165289999D01*
X28169364Y-165290000D01*
X29066988Y-165290000D01*
X29034075Y-165347007D01*
X29000000Y-165474174D01*
X29000000Y-165605826D01*
X29034075Y-165732993D01*
X29066988Y-165790000D01*
X28169364Y-165790000D01*
X28226567Y-166003486D01*
X28226570Y-166003492D01*
X28326399Y-166217578D01*
X28461894Y-166411082D01*
X28628917Y-166578105D01*
X28822421Y-166713600D01*
X29036507Y-166813429D01*
X29036516Y-166813433D01*
X29250000Y-166870634D01*
X29250000Y-165973012D01*
X29307007Y-166005925D01*
X29434174Y-166040000D01*
X29565826Y-166040000D01*
X29692993Y-166005925D01*
X29750000Y-165973012D01*
X29750000Y-166870633D01*
X29963483Y-166813433D01*
X29963492Y-166813429D01*
X30177578Y-166713600D01*
X30371082Y-166578105D01*
X30538105Y-166411082D01*
X30673600Y-166217578D01*
X30773429Y-166003492D01*
X30773432Y-166003486D01*
X30830636Y-165790000D01*
X29933012Y-165790000D01*
X29965925Y-165732993D01*
X30000000Y-165605826D01*
X30000000Y-165474174D01*
X29965925Y-165347007D01*
X29933012Y-165290000D01*
X30830636Y-165290000D01*
X30830635Y-165289999D01*
X30773432Y-165076513D01*
X30773429Y-165076507D01*
X30673600Y-164862422D01*
X30673599Y-164862420D01*
X30538113Y-164668926D01*
X30538108Y-164668920D01*
X30371082Y-164501894D01*
X30177578Y-164366399D01*
X30122853Y-164340881D01*
X30070414Y-164294709D01*
X30051262Y-164227515D01*
X30071478Y-164160634D01*
X30124643Y-164115299D01*
X30175257Y-164104499D01*
X30375066Y-164104499D01*
X30449301Y-164089734D01*
X30533484Y-164033484D01*
X30589734Y-163949301D01*
X30604500Y-163875067D01*
X30604499Y-162124934D01*
X30589734Y-162050699D01*
X30571068Y-162022765D01*
X30533484Y-161966515D01*
X30483019Y-161932796D01*
X30449301Y-161910266D01*
X30449299Y-161910265D01*
X30449296Y-161910264D01*
X30375069Y-161895500D01*
X28624936Y-161895500D01*
X28550698Y-161910266D01*
X28466515Y-161966515D01*
X28410266Y-162050699D01*
X28410264Y-162050703D01*
X28395500Y-162124928D01*
X28395500Y-163875063D01*
X28410266Y-163949301D01*
X28466515Y-164033484D01*
X28500234Y-164056014D01*
X28550699Y-164089734D01*
X28550702Y-164089734D01*
X28550703Y-164089735D01*
X28575666Y-164094700D01*
X28624933Y-164104500D01*
X28824742Y-164104499D01*
X28891779Y-164124183D01*
X28937534Y-164176987D01*
X28947478Y-164246145D01*
X28918453Y-164309701D01*
X28877146Y-164340880D01*
X28822427Y-164366396D01*
X28822420Y-164366400D01*
X28628926Y-164501886D01*
X28628920Y-164501891D01*
X28461891Y-164668920D01*
X28461886Y-164668926D01*
X28326400Y-164862420D01*
X28326399Y-164862422D01*
X28226570Y-165076507D01*
X28226567Y-165076513D01*
X28169364Y-165289999D01*
X22000000Y-165289999D01*
X22000000Y-152011709D01*
X22019685Y-151944670D01*
X22072489Y-151898915D01*
X22141647Y-151888971D01*
X22205203Y-151917996D01*
X22238561Y-151964257D01*
X22265642Y-152029638D01*
X22265645Y-152029644D01*
X22354525Y-152145473D01*
X22354526Y-152145474D01*
X22470355Y-152234354D01*
X22470361Y-152234357D01*
X22537801Y-152262291D01*
X22605246Y-152290228D01*
X22677623Y-152299756D01*
X22749999Y-152309285D01*
X22750000Y-152309285D01*
X22750001Y-152309285D01*
X22798251Y-152302932D01*
X22894754Y-152290228D01*
X23029643Y-152234355D01*
X23145474Y-152145474D01*
X23234355Y-152029643D01*
X23239779Y-152016547D01*
X23283618Y-151962145D01*
X23349912Y-151940079D01*
X23370520Y-151941060D01*
X23471147Y-151954308D01*
X23508948Y-151959285D01*
X23508949Y-151959285D01*
X23508950Y-151959285D01*
X23557200Y-151952932D01*
X23653703Y-151940228D01*
X23788592Y-151884355D01*
X23904423Y-151795474D01*
X23993304Y-151679643D01*
X24049177Y-151544754D01*
X24068234Y-151400000D01*
X24062246Y-151354519D01*
X24049177Y-151255247D01*
X24049177Y-151255246D01*
X23993304Y-151120358D01*
X23904423Y-151004526D01*
X23904420Y-151004524D01*
X23904419Y-151004522D01*
X23903011Y-151003442D01*
X23902121Y-151002223D01*
X23898673Y-150998775D01*
X23899210Y-150998237D01*
X23861810Y-150947013D01*
X23854500Y-150905068D01*
X23854500Y-143334999D01*
X28169364Y-143334999D01*
X28169364Y-143335000D01*
X29066988Y-143335000D01*
X29034075Y-143392007D01*
X29000000Y-143519174D01*
X29000000Y-143650826D01*
X29034075Y-143777993D01*
X29066988Y-143835000D01*
X28169364Y-143835000D01*
X28226567Y-144048486D01*
X28226570Y-144048492D01*
X28326399Y-144262578D01*
X28461894Y-144456082D01*
X28628917Y-144623105D01*
X28822421Y-144758600D01*
X29036507Y-144858429D01*
X29036516Y-144858433D01*
X29250000Y-144915634D01*
X29250000Y-144018012D01*
X29307007Y-144050925D01*
X29434174Y-144085000D01*
X29565826Y-144085000D01*
X29692993Y-144050925D01*
X29750000Y-144018012D01*
X29750000Y-144915633D01*
X29963483Y-144858433D01*
X29963492Y-144858429D01*
X30177578Y-144758600D01*
X30371082Y-144623105D01*
X30538105Y-144456082D01*
X30673600Y-144262578D01*
X30773429Y-144048492D01*
X30773432Y-144048486D01*
X30830636Y-143835000D01*
X29933012Y-143835000D01*
X29965925Y-143777993D01*
X30000000Y-143650826D01*
X30000000Y-143519174D01*
X29965925Y-143392007D01*
X29933012Y-143335000D01*
X30830636Y-143335000D01*
X30830635Y-143334999D01*
X30773432Y-143121513D01*
X30773429Y-143121507D01*
X30673600Y-142907422D01*
X30673599Y-142907420D01*
X30538113Y-142713926D01*
X30538108Y-142713920D01*
X30371082Y-142546894D01*
X30177578Y-142411399D01*
X29963492Y-142311570D01*
X29963477Y-142311564D01*
X29930960Y-142302851D01*
X29871300Y-142266486D01*
X29840772Y-142203638D01*
X29849067Y-142134263D01*
X29893553Y-142080386D01*
X29918257Y-142067452D01*
X29994427Y-142037944D01*
X30168462Y-141930186D01*
X30319732Y-141792285D01*
X30443088Y-141628935D01*
X30534328Y-141445701D01*
X30590345Y-141248821D01*
X30609232Y-141045000D01*
X30590345Y-140841179D01*
X30534328Y-140644299D01*
X30443088Y-140461065D01*
X30319732Y-140297715D01*
X30319730Y-140297712D01*
X30168462Y-140159814D01*
X30168460Y-140159812D01*
X29994430Y-140052057D01*
X29994424Y-140052054D01*
X29843993Y-139993777D01*
X29803556Y-139978112D01*
X29602347Y-139940500D01*
X29397653Y-139940500D01*
X29196444Y-139978112D01*
X29196441Y-139978112D01*
X29196441Y-139978113D01*
X29005575Y-140052054D01*
X29005569Y-140052057D01*
X28831539Y-140159812D01*
X28831537Y-140159814D01*
X28680269Y-140297712D01*
X28556912Y-140461064D01*
X28465673Y-140644295D01*
X28409654Y-140841183D01*
X28390768Y-141044999D01*
X28390768Y-141045000D01*
X28409654Y-141248816D01*
X28465673Y-141445704D01*
X28556912Y-141628935D01*
X28680269Y-141792287D01*
X28831537Y-141930185D01*
X28831539Y-141930187D01*
X29005569Y-142037942D01*
X29005571Y-142037943D01*
X29005573Y-142037944D01*
X29005576Y-142037945D01*
X29005578Y-142037946D01*
X29081737Y-142067450D01*
X29137139Y-142110023D01*
X29160730Y-142175789D01*
X29145019Y-142243870D01*
X29094996Y-142292649D01*
X29069040Y-142302851D01*
X29036519Y-142311565D01*
X29036507Y-142311570D01*
X28822422Y-142411399D01*
X28822420Y-142411400D01*
X28628926Y-142546886D01*
X28628920Y-142546891D01*
X28461891Y-142713920D01*
X28461886Y-142713926D01*
X28326400Y-142907420D01*
X28326399Y-142907422D01*
X28226570Y-143121507D01*
X28226567Y-143121513D01*
X28169364Y-143334999D01*
X23854500Y-143334999D01*
X23854500Y-138504999D01*
X28390768Y-138504999D01*
X28390768Y-138505000D01*
X28409654Y-138708816D01*
X28465673Y-138905704D01*
X28556912Y-139088935D01*
X28680269Y-139252287D01*
X28831537Y-139390185D01*
X28831539Y-139390187D01*
X29005569Y-139497942D01*
X29005575Y-139497945D01*
X29046010Y-139513609D01*
X29196444Y-139571888D01*
X29397653Y-139609500D01*
X29397656Y-139609500D01*
X29602344Y-139609500D01*
X29602347Y-139609500D01*
X29803556Y-139571888D01*
X29994427Y-139497944D01*
X30168462Y-139390186D01*
X30319732Y-139252285D01*
X30443088Y-139088935D01*
X30534328Y-138905701D01*
X30590345Y-138708821D01*
X30609232Y-138505000D01*
X30590345Y-138301179D01*
X30534328Y-138104299D01*
X30443088Y-137921065D01*
X30336291Y-137779643D01*
X30319730Y-137757712D01*
X30168462Y-137619814D01*
X30168460Y-137619812D01*
X29994430Y-137512057D01*
X29994424Y-137512054D01*
X29831132Y-137448795D01*
X29803556Y-137438112D01*
X29602347Y-137400500D01*
X29397653Y-137400500D01*
X29196444Y-137438112D01*
X29196441Y-137438112D01*
X29196441Y-137438113D01*
X29005575Y-137512054D01*
X29005569Y-137512057D01*
X28831539Y-137619812D01*
X28831537Y-137619814D01*
X28680269Y-137757712D01*
X28556912Y-137921064D01*
X28465673Y-138104295D01*
X28409654Y-138301183D01*
X28390768Y-138504999D01*
X23854500Y-138504999D01*
X23854500Y-135089928D01*
X28395500Y-135089928D01*
X28395500Y-136840063D01*
X28410266Y-136914301D01*
X28466515Y-136998484D01*
X28500234Y-137021014D01*
X28550699Y-137054734D01*
X28550702Y-137054734D01*
X28550703Y-137054735D01*
X28575666Y-137059700D01*
X28624933Y-137069500D01*
X30375066Y-137069499D01*
X30449301Y-137054734D01*
X30533484Y-136998484D01*
X30589734Y-136914301D01*
X30604500Y-136840067D01*
X30604499Y-135089934D01*
X30589734Y-135015699D01*
X30571068Y-134987765D01*
X30533484Y-134931515D01*
X30483019Y-134897796D01*
X30449301Y-134875266D01*
X30449299Y-134875265D01*
X30449296Y-134875264D01*
X30375069Y-134860500D01*
X28624936Y-134860500D01*
X28550698Y-134875266D01*
X28466515Y-134931515D01*
X28410266Y-135015699D01*
X28410264Y-135015703D01*
X28395500Y-135089928D01*
X23854500Y-135089928D01*
X23854500Y-128513331D01*
X28390768Y-128513331D01*
X28390768Y-128513332D01*
X28409654Y-128717148D01*
X28465673Y-128914036D01*
X28556912Y-129097267D01*
X28680269Y-129260619D01*
X28831537Y-129398517D01*
X28831539Y-129398519D01*
X29005569Y-129506274D01*
X29005575Y-129506277D01*
X29046010Y-129521941D01*
X29196444Y-129580220D01*
X29397653Y-129617832D01*
X29397656Y-129617832D01*
X29602344Y-129617832D01*
X29602347Y-129617832D01*
X29803556Y-129580220D01*
X29994427Y-129506276D01*
X30168462Y-129398518D01*
X30319732Y-129260617D01*
X30443088Y-129097267D01*
X30534328Y-128914033D01*
X30590345Y-128717153D01*
X30609232Y-128513332D01*
X30590345Y-128309511D01*
X30534328Y-128112631D01*
X30443088Y-127929397D01*
X30319732Y-127766047D01*
X30319730Y-127766044D01*
X30168462Y-127628146D01*
X30168460Y-127628144D01*
X29994430Y-127520389D01*
X29994424Y-127520386D01*
X29843993Y-127462109D01*
X29803556Y-127446444D01*
X29602347Y-127408832D01*
X29397653Y-127408832D01*
X29196444Y-127446444D01*
X29196441Y-127446444D01*
X29196441Y-127446445D01*
X29005575Y-127520386D01*
X29005569Y-127520389D01*
X28831539Y-127628144D01*
X28831537Y-127628146D01*
X28680269Y-127766044D01*
X28556912Y-127929396D01*
X28465673Y-128112627D01*
X28409654Y-128309515D01*
X28390768Y-128513331D01*
X23854500Y-128513331D01*
X23854500Y-125973331D01*
X28390768Y-125973331D01*
X28390768Y-125973332D01*
X28409654Y-126177148D01*
X28465673Y-126374036D01*
X28556912Y-126557267D01*
X28680269Y-126720619D01*
X28831537Y-126858517D01*
X28831539Y-126858519D01*
X29005569Y-126966274D01*
X29005575Y-126966277D01*
X29046010Y-126981941D01*
X29196444Y-127040220D01*
X29397653Y-127077832D01*
X29397656Y-127077832D01*
X29602344Y-127077832D01*
X29602347Y-127077832D01*
X29803556Y-127040220D01*
X29994427Y-126966276D01*
X30168462Y-126858518D01*
X30319732Y-126720617D01*
X30443088Y-126557267D01*
X30534328Y-126374033D01*
X30590345Y-126177153D01*
X30609232Y-125973332D01*
X30590345Y-125769511D01*
X30534328Y-125572631D01*
X30443088Y-125389397D01*
X30319732Y-125226047D01*
X30319730Y-125226044D01*
X30168462Y-125088146D01*
X30168460Y-125088144D01*
X29994430Y-124980389D01*
X29994424Y-124980386D01*
X29843993Y-124922109D01*
X29803556Y-124906444D01*
X29602347Y-124868832D01*
X29397653Y-124868832D01*
X29196444Y-124906444D01*
X29196441Y-124906444D01*
X29196441Y-124906445D01*
X29005575Y-124980386D01*
X29005569Y-124980389D01*
X28831539Y-125088144D01*
X28831537Y-125088146D01*
X28680269Y-125226044D01*
X28556912Y-125389396D01*
X28465673Y-125572627D01*
X28409654Y-125769515D01*
X28390768Y-125973331D01*
X23854500Y-125973331D01*
X23854500Y-123621944D01*
X23874185Y-123554905D01*
X23926989Y-123509150D01*
X23996147Y-123499206D01*
X24025948Y-123507381D01*
X24105246Y-123540228D01*
X24177623Y-123549756D01*
X24249999Y-123559285D01*
X24250000Y-123559285D01*
X24250001Y-123559285D01*
X24298251Y-123552932D01*
X24394754Y-123540228D01*
X24529643Y-123484355D01*
X24596138Y-123433331D01*
X28390768Y-123433331D01*
X28390768Y-123433332D01*
X28409654Y-123637148D01*
X28465673Y-123834036D01*
X28556912Y-124017267D01*
X28680269Y-124180619D01*
X28831537Y-124318517D01*
X28831539Y-124318519D01*
X29005569Y-124426274D01*
X29005575Y-124426277D01*
X29046010Y-124441941D01*
X29196444Y-124500220D01*
X29397653Y-124537832D01*
X29397656Y-124537832D01*
X29602344Y-124537832D01*
X29602347Y-124537832D01*
X29803556Y-124500220D01*
X29994427Y-124426276D01*
X30168462Y-124318518D01*
X30319732Y-124180617D01*
X30443088Y-124017267D01*
X30534328Y-123834033D01*
X30590345Y-123637153D01*
X30609232Y-123433332D01*
X30590345Y-123229511D01*
X30534328Y-123032631D01*
X30443088Y-122849397D01*
X30345645Y-122720361D01*
X30319730Y-122686044D01*
X30168462Y-122548146D01*
X30168460Y-122548144D01*
X29994430Y-122440389D01*
X29994424Y-122440386D01*
X29843993Y-122382109D01*
X29803556Y-122366444D01*
X29602347Y-122328832D01*
X29397653Y-122328832D01*
X29196444Y-122366444D01*
X29196441Y-122366444D01*
X29196441Y-122366445D01*
X29005575Y-122440386D01*
X29005569Y-122440389D01*
X28831539Y-122548144D01*
X28831537Y-122548146D01*
X28680269Y-122686044D01*
X28556912Y-122849396D01*
X28465673Y-123032627D01*
X28409654Y-123229515D01*
X28390768Y-123433331D01*
X24596138Y-123433331D01*
X24645474Y-123395474D01*
X24734355Y-123279643D01*
X24790228Y-123144754D01*
X24809285Y-123000000D01*
X24790228Y-122855246D01*
X24734355Y-122720358D01*
X24645474Y-122604526D01*
X24645470Y-122604522D01*
X24645467Y-122604519D01*
X24640815Y-122599866D01*
X24607333Y-122538541D01*
X24604500Y-122512189D01*
X24604500Y-121871944D01*
X24624185Y-121804905D01*
X24676989Y-121759150D01*
X24746147Y-121749206D01*
X24775948Y-121757381D01*
X24855246Y-121790228D01*
X24927623Y-121799756D01*
X24999999Y-121809285D01*
X25000000Y-121809285D01*
X25000001Y-121809285D01*
X25048251Y-121802932D01*
X25144754Y-121790228D01*
X25279643Y-121734355D01*
X25395474Y-121645474D01*
X25484355Y-121529643D01*
X25540228Y-121394754D01*
X25559285Y-121250000D01*
X25540228Y-121105246D01*
X25484355Y-120970358D01*
X25395474Y-120854526D01*
X25395470Y-120854522D01*
X25395467Y-120854519D01*
X25390815Y-120849866D01*
X25357333Y-120788541D01*
X25354500Y-120762189D01*
X25354500Y-120371944D01*
X25374185Y-120304905D01*
X25426989Y-120259150D01*
X25496147Y-120249206D01*
X25525948Y-120257381D01*
X25605246Y-120290228D01*
X25677623Y-120299756D01*
X25749999Y-120309285D01*
X25750000Y-120309285D01*
X25750001Y-120309285D01*
X25798251Y-120302932D01*
X25894754Y-120290228D01*
X26029643Y-120234355D01*
X26145474Y-120145474D01*
X26234355Y-120029643D01*
X26239070Y-120018260D01*
X28395500Y-120018260D01*
X28395500Y-121768395D01*
X28410266Y-121842633D01*
X28466515Y-121926816D01*
X28500234Y-121949346D01*
X28550699Y-121983066D01*
X28550702Y-121983066D01*
X28550703Y-121983067D01*
X28575666Y-121988032D01*
X28624933Y-121997832D01*
X30375066Y-121997831D01*
X30449301Y-121983066D01*
X30533484Y-121926816D01*
X30589734Y-121842633D01*
X30604500Y-121768399D01*
X30604499Y-120018266D01*
X30589734Y-119944031D01*
X30556808Y-119894754D01*
X30533484Y-119859847D01*
X30483019Y-119826128D01*
X30449301Y-119803598D01*
X30449299Y-119803597D01*
X30449296Y-119803596D01*
X30375069Y-119788832D01*
X28624936Y-119788832D01*
X28550698Y-119803598D01*
X28466515Y-119859847D01*
X28410266Y-119944031D01*
X28410264Y-119944035D01*
X28395500Y-120018260D01*
X26239070Y-120018260D01*
X26290228Y-119894754D01*
X26309285Y-119750000D01*
X26290228Y-119605246D01*
X26234355Y-119470358D01*
X26145474Y-119354526D01*
X26145470Y-119354522D01*
X26145467Y-119354519D01*
X26140815Y-119349866D01*
X26107333Y-119288541D01*
X26104500Y-119262189D01*
X26104500Y-118621944D01*
X26124185Y-118554905D01*
X26176989Y-118509150D01*
X26246147Y-118499206D01*
X26275948Y-118507381D01*
X26355246Y-118540228D01*
X26427623Y-118549756D01*
X26499999Y-118559285D01*
X26500000Y-118559285D01*
X26500001Y-118559285D01*
X26548251Y-118552932D01*
X26644754Y-118540228D01*
X26779643Y-118484355D01*
X26895474Y-118395474D01*
X26984355Y-118279643D01*
X27040228Y-118144754D01*
X27059285Y-118000000D01*
X27040228Y-117855246D01*
X26984355Y-117720358D01*
X26895474Y-117604526D01*
X26895470Y-117604522D01*
X26895467Y-117604519D01*
X26890815Y-117599866D01*
X26857333Y-117538541D01*
X26854500Y-117512189D01*
X26854500Y-113191665D01*
X28169364Y-113191665D01*
X28169364Y-113191666D01*
X29066988Y-113191666D01*
X29034075Y-113248673D01*
X29000000Y-113375840D01*
X29000000Y-113507492D01*
X29034075Y-113634659D01*
X29066988Y-113691666D01*
X28169364Y-113691666D01*
X28226567Y-113905152D01*
X28226570Y-113905158D01*
X28326399Y-114119244D01*
X28461894Y-114312748D01*
X28628917Y-114479771D01*
X28822421Y-114615266D01*
X29036507Y-114715095D01*
X29036516Y-114715099D01*
X29250000Y-114772300D01*
X29250000Y-113874678D01*
X29307007Y-113907591D01*
X29434174Y-113941666D01*
X29565826Y-113941666D01*
X29692993Y-113907591D01*
X29750000Y-113874678D01*
X29750000Y-114772299D01*
X29963483Y-114715099D01*
X29963492Y-114715095D01*
X30177578Y-114615266D01*
X30371082Y-114479771D01*
X30538105Y-114312748D01*
X30673600Y-114119244D01*
X30773429Y-113905158D01*
X30773432Y-113905152D01*
X30830636Y-113691666D01*
X29933012Y-113691666D01*
X29965925Y-113634659D01*
X30000000Y-113507492D01*
X30000000Y-113375840D01*
X29965925Y-113248673D01*
X29933012Y-113191666D01*
X30830636Y-113191666D01*
X30830635Y-113191665D01*
X30773432Y-112978179D01*
X30773429Y-112978173D01*
X30673600Y-112764088D01*
X30673599Y-112764086D01*
X30538113Y-112570592D01*
X30538108Y-112570586D01*
X30371082Y-112403560D01*
X30177578Y-112268065D01*
X29963492Y-112168236D01*
X29963477Y-112168230D01*
X29930960Y-112159517D01*
X29871300Y-112123152D01*
X29840772Y-112060304D01*
X29849067Y-111990929D01*
X29893553Y-111937052D01*
X29918257Y-111924118D01*
X29994427Y-111894610D01*
X30168462Y-111786852D01*
X30319732Y-111648951D01*
X30443088Y-111485601D01*
X30534328Y-111302367D01*
X30590345Y-111105487D01*
X30609232Y-110901666D01*
X30590345Y-110697845D01*
X30534328Y-110500965D01*
X30443088Y-110317731D01*
X30319732Y-110154381D01*
X30319730Y-110154378D01*
X30168462Y-110016480D01*
X30168460Y-110016478D01*
X29994430Y-109908723D01*
X29994424Y-109908720D01*
X29843993Y-109850443D01*
X29803556Y-109834778D01*
X29602347Y-109797166D01*
X29397653Y-109797166D01*
X29196444Y-109834778D01*
X29196441Y-109834778D01*
X29196441Y-109834779D01*
X29005575Y-109908720D01*
X29005569Y-109908723D01*
X28831539Y-110016478D01*
X28831537Y-110016480D01*
X28680269Y-110154378D01*
X28556912Y-110317730D01*
X28465673Y-110500961D01*
X28409654Y-110697849D01*
X28390768Y-110901665D01*
X28390768Y-110901666D01*
X28409654Y-111105482D01*
X28465673Y-111302370D01*
X28556912Y-111485601D01*
X28680269Y-111648953D01*
X28831537Y-111786851D01*
X28831539Y-111786853D01*
X29005569Y-111894608D01*
X29005571Y-111894609D01*
X29005573Y-111894610D01*
X29005576Y-111894611D01*
X29005578Y-111894612D01*
X29081737Y-111924116D01*
X29137139Y-111966689D01*
X29160730Y-112032455D01*
X29145019Y-112100536D01*
X29094996Y-112149315D01*
X29069040Y-112159517D01*
X29036519Y-112168231D01*
X29036507Y-112168236D01*
X28822422Y-112268065D01*
X28822420Y-112268066D01*
X28628926Y-112403552D01*
X28628920Y-112403557D01*
X28461891Y-112570586D01*
X28461886Y-112570592D01*
X28326400Y-112764086D01*
X28326399Y-112764088D01*
X28226570Y-112978173D01*
X28226567Y-112978179D01*
X28169364Y-113191665D01*
X26854500Y-113191665D01*
X26854500Y-108361665D01*
X28390768Y-108361665D01*
X28390768Y-108361666D01*
X28409654Y-108565482D01*
X28465673Y-108762370D01*
X28556912Y-108945601D01*
X28680269Y-109108953D01*
X28831537Y-109246851D01*
X28831539Y-109246853D01*
X29005569Y-109354608D01*
X29005575Y-109354611D01*
X29046010Y-109370275D01*
X29196444Y-109428554D01*
X29397653Y-109466166D01*
X29397656Y-109466166D01*
X29602344Y-109466166D01*
X29602347Y-109466166D01*
X29803556Y-109428554D01*
X29994427Y-109354610D01*
X30168462Y-109246852D01*
X30319732Y-109108951D01*
X30443088Y-108945601D01*
X30534328Y-108762367D01*
X30590345Y-108565487D01*
X30609232Y-108361666D01*
X30590345Y-108157845D01*
X30534328Y-107960965D01*
X30443088Y-107777731D01*
X30319732Y-107614381D01*
X30319730Y-107614378D01*
X30168462Y-107476480D01*
X30168460Y-107476478D01*
X29994430Y-107368723D01*
X29994424Y-107368720D01*
X29843993Y-107310443D01*
X29803556Y-107294778D01*
X29602347Y-107257166D01*
X29397653Y-107257166D01*
X29196444Y-107294778D01*
X29196441Y-107294778D01*
X29196441Y-107294779D01*
X29005575Y-107368720D01*
X29005569Y-107368723D01*
X28831539Y-107476478D01*
X28831537Y-107476480D01*
X28680269Y-107614378D01*
X28556912Y-107777730D01*
X28465673Y-107960961D01*
X28409654Y-108157849D01*
X28390768Y-108361665D01*
X26854500Y-108361665D01*
X26854500Y-104946594D01*
X28395500Y-104946594D01*
X28395500Y-106696729D01*
X28410266Y-106770967D01*
X28466515Y-106855150D01*
X28500234Y-106877680D01*
X28550699Y-106911400D01*
X28550702Y-106911400D01*
X28550703Y-106911401D01*
X28575666Y-106916366D01*
X28624933Y-106926166D01*
X30375066Y-106926165D01*
X30449301Y-106911400D01*
X30533484Y-106855150D01*
X30589734Y-106770967D01*
X30604500Y-106696733D01*
X30604499Y-104946600D01*
X30589734Y-104872365D01*
X30571068Y-104844431D01*
X30533484Y-104788181D01*
X30483019Y-104754462D01*
X30449301Y-104731932D01*
X30449299Y-104731931D01*
X30449296Y-104731930D01*
X30375069Y-104717166D01*
X28624936Y-104717166D01*
X28550698Y-104731932D01*
X28466515Y-104788181D01*
X28410266Y-104872365D01*
X28410264Y-104872369D01*
X28395500Y-104946594D01*
X26854500Y-104946594D01*
X26854500Y-85216660D01*
X27886892Y-85216660D01*
X27886892Y-85216661D01*
X27900692Y-85225333D01*
X27900691Y-85225333D01*
X28070861Y-85284878D01*
X28249997Y-85305062D01*
X28250003Y-85305062D01*
X28429138Y-85284878D01*
X28429141Y-85284877D01*
X28599305Y-85225334D01*
X28599306Y-85225334D01*
X28613106Y-85216661D01*
X28613106Y-85216660D01*
X28250001Y-84853553D01*
X28250000Y-84853553D01*
X27886892Y-85216660D01*
X26854500Y-85216660D01*
X26854500Y-84716660D01*
X27261892Y-84716660D01*
X27261892Y-84716661D01*
X27275692Y-84725333D01*
X27275691Y-84725333D01*
X27452431Y-84787177D01*
X27451588Y-84789585D01*
X27502299Y-84817950D01*
X27520409Y-84843751D01*
X27520959Y-84843406D01*
X27533338Y-84863107D01*
X27833946Y-84562500D01*
X27741609Y-84470163D01*
X28100000Y-84470163D01*
X28100000Y-84529837D01*
X28122836Y-84584968D01*
X28165032Y-84627164D01*
X28220163Y-84650000D01*
X28279837Y-84650000D01*
X28334968Y-84627164D01*
X28377164Y-84584968D01*
X28400000Y-84529837D01*
X28400000Y-84470163D01*
X28377164Y-84415032D01*
X28334968Y-84372836D01*
X28279837Y-84350000D01*
X28220163Y-84350000D01*
X28165032Y-84372836D01*
X28122836Y-84415032D01*
X28100000Y-84470163D01*
X27741609Y-84470163D01*
X27625000Y-84353553D01*
X27261892Y-84716660D01*
X26854500Y-84716660D01*
X26854500Y-84468308D01*
X26874185Y-84401269D01*
X26890819Y-84380627D01*
X27271446Y-84000000D01*
X27271446Y-83999999D01*
X27241610Y-83970163D01*
X27475000Y-83970163D01*
X27475000Y-84029837D01*
X27497836Y-84084968D01*
X27540032Y-84127164D01*
X27595163Y-84150000D01*
X27654837Y-84150000D01*
X27709968Y-84127164D01*
X27752164Y-84084968D01*
X27775000Y-84029837D01*
X27775000Y-83999999D01*
X28103553Y-83999999D01*
X28250000Y-84146446D01*
X28396446Y-84000001D01*
X28396446Y-84000000D01*
X28366609Y-83970163D01*
X28725000Y-83970163D01*
X28725000Y-84029837D01*
X28747836Y-84084968D01*
X28790032Y-84127164D01*
X28845163Y-84150000D01*
X28904837Y-84150000D01*
X28959968Y-84127164D01*
X29002164Y-84084968D01*
X29025000Y-84029837D01*
X29025000Y-83970163D01*
X29002164Y-83915032D01*
X28959968Y-83872836D01*
X28904837Y-83850000D01*
X28845163Y-83850000D01*
X28790032Y-83872836D01*
X28747836Y-83915032D01*
X28725000Y-83970163D01*
X28366609Y-83970163D01*
X28250000Y-83853553D01*
X28103553Y-83999999D01*
X27775000Y-83999999D01*
X27775000Y-83970163D01*
X27752164Y-83915032D01*
X27709968Y-83872836D01*
X27654837Y-83850000D01*
X27595163Y-83850000D01*
X27540032Y-83872836D01*
X27497836Y-83915032D01*
X27475000Y-83970163D01*
X27241610Y-83970163D01*
X26890819Y-83619372D01*
X26857334Y-83558049D01*
X26854500Y-83531691D01*
X26854500Y-83283337D01*
X27261891Y-83283337D01*
X27261891Y-83283338D01*
X27624999Y-83646445D01*
X27801281Y-83470163D01*
X28100000Y-83470163D01*
X28100000Y-83529837D01*
X28122836Y-83584968D01*
X28165032Y-83627164D01*
X28220163Y-83650000D01*
X28279837Y-83650000D01*
X28334968Y-83627164D01*
X28377164Y-83584968D01*
X28400000Y-83529837D01*
X28400000Y-83470163D01*
X28377164Y-83415032D01*
X28334968Y-83372836D01*
X28279837Y-83350000D01*
X28220163Y-83350000D01*
X28165032Y-83372836D01*
X28122836Y-83415032D01*
X28100000Y-83470163D01*
X27801281Y-83470163D01*
X27833946Y-83437498D01*
X27533338Y-83136891D01*
X27520960Y-83156592D01*
X27519493Y-83155670D01*
X27478605Y-83200941D01*
X27452063Y-83211779D01*
X27452429Y-83212824D01*
X27275701Y-83274662D01*
X27275691Y-83274667D01*
X27261891Y-83283337D01*
X26854500Y-83283337D01*
X26854500Y-82783337D01*
X27886891Y-82783337D01*
X27886891Y-82783338D01*
X28250000Y-83146446D01*
X28250001Y-83146446D01*
X28613107Y-82783338D01*
X28599304Y-82774665D01*
X28429138Y-82715121D01*
X28250003Y-82694938D01*
X28249997Y-82694938D01*
X28070861Y-82715121D01*
X28070858Y-82715122D01*
X27900701Y-82774662D01*
X27900691Y-82774667D01*
X27886891Y-82783337D01*
X26854500Y-82783337D01*
X26854500Y-66948201D01*
X26874185Y-66881162D01*
X26890819Y-66860520D01*
X26905735Y-66845604D01*
X26967058Y-66812119D01*
X26993416Y-66809285D01*
X27000001Y-66809285D01*
X27051211Y-66802543D01*
X27144754Y-66790228D01*
X27224049Y-66757382D01*
X27293516Y-66749914D01*
X27355995Y-66781189D01*
X27391648Y-66841277D01*
X27395500Y-66871944D01*
X27395500Y-77262189D01*
X27375815Y-77329228D01*
X27359185Y-77349866D01*
X27354532Y-77354519D01*
X27354527Y-77354524D01*
X27354526Y-77354526D01*
X27265645Y-77470358D01*
X27265643Y-77470361D01*
X27209772Y-77605245D01*
X27209771Y-77605247D01*
X27190715Y-77749998D01*
X27190715Y-77750001D01*
X27209771Y-77894752D01*
X27209773Y-77894757D01*
X27265642Y-78029638D01*
X27265645Y-78029644D01*
X27354525Y-78145473D01*
X27354526Y-78145474D01*
X27470355Y-78234354D01*
X27470361Y-78234357D01*
X27525951Y-78257383D01*
X27605246Y-78290228D01*
X27677623Y-78299756D01*
X27749999Y-78309285D01*
X27750000Y-78309285D01*
X27750001Y-78309285D01*
X27798251Y-78302932D01*
X27894754Y-78290228D01*
X27974049Y-78257382D01*
X28043516Y-78249914D01*
X28105995Y-78281189D01*
X28141648Y-78341277D01*
X28145500Y-78371944D01*
X28145500Y-78456797D01*
X28125815Y-78523836D01*
X28109181Y-78544478D01*
X28094263Y-78559396D01*
X28032940Y-78592881D01*
X28006582Y-78595715D01*
X27999999Y-78595715D01*
X27855247Y-78614771D01*
X27855245Y-78614772D01*
X27720361Y-78670643D01*
X27720358Y-78670644D01*
X27720358Y-78670645D01*
X27604526Y-78759526D01*
X27581773Y-78789179D01*
X27515643Y-78875361D01*
X27459772Y-79010245D01*
X27459771Y-79010247D01*
X27440715Y-79154998D01*
X27440715Y-79155001D01*
X27459771Y-79299752D01*
X27459773Y-79299757D01*
X27515642Y-79434638D01*
X27515645Y-79434644D01*
X27604525Y-79550473D01*
X27604526Y-79550474D01*
X27720355Y-79639354D01*
X27720361Y-79639357D01*
X27787801Y-79667291D01*
X27855246Y-79695228D01*
X27927623Y-79704756D01*
X27999999Y-79714285D01*
X28000000Y-79714285D01*
X28000001Y-79714285D01*
X28048251Y-79707932D01*
X28144754Y-79695228D01*
X28279643Y-79639355D01*
X28395474Y-79550474D01*
X28484355Y-79434643D01*
X28540228Y-79299754D01*
X28559285Y-79155000D01*
X28559285Y-79154998D01*
X28559285Y-79148415D01*
X28578970Y-79081376D01*
X28595604Y-79060734D01*
X28646093Y-79010245D01*
X28783671Y-78872668D01*
X28811957Y-78823674D01*
X28830341Y-78791832D01*
X28854500Y-78701671D01*
X28854500Y-60934926D01*
X28874185Y-60867887D01*
X28926989Y-60822132D01*
X28996147Y-60812188D01*
X29059703Y-60841213D01*
X29076876Y-60859440D01*
X29104527Y-60895476D01*
X29109181Y-60900130D01*
X29142666Y-60961453D01*
X29145500Y-60987811D01*
X29145500Y-83018285D01*
X29125815Y-83085324D01*
X29073011Y-83131079D01*
X29007620Y-83141506D01*
X28966660Y-83136892D01*
X28666053Y-83437498D01*
X28666053Y-83437499D01*
X28875000Y-83646447D01*
X29109181Y-83880628D01*
X29142666Y-83941951D01*
X29145500Y-83968309D01*
X29145500Y-84031691D01*
X29125815Y-84098730D01*
X29109181Y-84119372D01*
X28666053Y-84562500D01*
X28966660Y-84863106D01*
X29007621Y-84858493D01*
X29076442Y-84870550D01*
X29127820Y-84917901D01*
X29145500Y-84981714D01*
X29145500Y-87703329D01*
X29145500Y-87796671D01*
X29169659Y-87886832D01*
X29216328Y-87967666D01*
X29216330Y-87967669D01*
X31109181Y-89860520D01*
X31142666Y-89921843D01*
X31145500Y-89948201D01*
X31145500Y-91091798D01*
X31125815Y-91158837D01*
X31109181Y-91179479D01*
X30816180Y-91472479D01*
X30754857Y-91505964D01*
X30685165Y-91500980D01*
X30629232Y-91459108D01*
X30604815Y-91393644D01*
X30604499Y-91384822D01*
X30604499Y-89874934D01*
X30589734Y-89800699D01*
X30571068Y-89772765D01*
X30533484Y-89716515D01*
X30483019Y-89682796D01*
X30449301Y-89660266D01*
X30449299Y-89660265D01*
X30449296Y-89660264D01*
X30375069Y-89645500D01*
X28624936Y-89645500D01*
X28550698Y-89660266D01*
X28466515Y-89716515D01*
X28410266Y-89800699D01*
X28410264Y-89800703D01*
X28395500Y-89874928D01*
X28395500Y-91625063D01*
X28410266Y-91699301D01*
X28466515Y-91783484D01*
X28500234Y-91806014D01*
X28550699Y-91839734D01*
X28550702Y-91839734D01*
X28550703Y-91839735D01*
X28575666Y-91844700D01*
X28624933Y-91854500D01*
X30134798Y-91854499D01*
X30201837Y-91874184D01*
X30247592Y-91926987D01*
X30257536Y-91996146D01*
X30228511Y-92059702D01*
X30222479Y-92066180D01*
X30049524Y-92239135D01*
X29988201Y-92272620D01*
X29918509Y-92267636D01*
X29917087Y-92267094D01*
X29803556Y-92223112D01*
X29602347Y-92185500D01*
X29397653Y-92185500D01*
X29196444Y-92223112D01*
X29196441Y-92223112D01*
X29196441Y-92223113D01*
X29005575Y-92297054D01*
X29005569Y-92297057D01*
X28831539Y-92404812D01*
X28831537Y-92404814D01*
X28680269Y-92542712D01*
X28556912Y-92706064D01*
X28465673Y-92889295D01*
X28409654Y-93086183D01*
X28390768Y-93289999D01*
X28390768Y-93290000D01*
X28409654Y-93493816D01*
X28465673Y-93690704D01*
X28556912Y-93873935D01*
X28680269Y-94037287D01*
X28831537Y-94175185D01*
X28831539Y-94175187D01*
X29005569Y-94282942D01*
X29005575Y-94282945D01*
X29046010Y-94298609D01*
X29196444Y-94356888D01*
X29397653Y-94394500D01*
X29397656Y-94394500D01*
X29602344Y-94394500D01*
X29602347Y-94394500D01*
X29803556Y-94356888D01*
X29994427Y-94282944D01*
X30168462Y-94175186D01*
X30319732Y-94037285D01*
X30443088Y-93873935D01*
X30534328Y-93690701D01*
X30590345Y-93493821D01*
X30609232Y-93290000D01*
X30590345Y-93086179D01*
X30534328Y-92889299D01*
X30530121Y-92880851D01*
X30517859Y-92812068D01*
X30544731Y-92747572D01*
X30553430Y-92737907D01*
X31683821Y-91607517D01*
X31745142Y-91574034D01*
X31814834Y-91579018D01*
X31870767Y-91620890D01*
X31895184Y-91686354D01*
X31895500Y-91695200D01*
X31895500Y-92801798D01*
X31875815Y-92868837D01*
X31859181Y-92889479D01*
X29991864Y-94756795D01*
X29930541Y-94790280D01*
X29860849Y-94785296D01*
X29859390Y-94784741D01*
X29803561Y-94763113D01*
X29803556Y-94763112D01*
X29602347Y-94725500D01*
X29397653Y-94725500D01*
X29196444Y-94763112D01*
X29196441Y-94763112D01*
X29196441Y-94763113D01*
X29005575Y-94837054D01*
X29005569Y-94837057D01*
X28831539Y-94944812D01*
X28831537Y-94944814D01*
X28680269Y-95082712D01*
X28556912Y-95246064D01*
X28465673Y-95429295D01*
X28409654Y-95626183D01*
X28390768Y-95829999D01*
X28390768Y-95830000D01*
X28409654Y-96033816D01*
X28465673Y-96230704D01*
X28556912Y-96413935D01*
X28680269Y-96577287D01*
X28831537Y-96715185D01*
X28831539Y-96715187D01*
X29005569Y-96822942D01*
X29005571Y-96822943D01*
X29005573Y-96822944D01*
X29005576Y-96822945D01*
X29005578Y-96822946D01*
X29081737Y-96852450D01*
X29137139Y-96895023D01*
X29160730Y-96960789D01*
X29145019Y-97028870D01*
X29094996Y-97077649D01*
X29069040Y-97087851D01*
X29036519Y-97096565D01*
X29036507Y-97096570D01*
X28822422Y-97196399D01*
X28822420Y-97196400D01*
X28628926Y-97331886D01*
X28628920Y-97331891D01*
X28461891Y-97498920D01*
X28461886Y-97498926D01*
X28326400Y-97692420D01*
X28326399Y-97692422D01*
X28226570Y-97906507D01*
X28226567Y-97906513D01*
X28169364Y-98119999D01*
X28169364Y-98120000D01*
X29066988Y-98120000D01*
X29034075Y-98177007D01*
X29000000Y-98304174D01*
X29000000Y-98435826D01*
X29034075Y-98562993D01*
X29066988Y-98620000D01*
X28169364Y-98620000D01*
X28226567Y-98833486D01*
X28226570Y-98833492D01*
X28326399Y-99047578D01*
X28461894Y-99241082D01*
X28628917Y-99408105D01*
X28822421Y-99543600D01*
X29036507Y-99643429D01*
X29036516Y-99643433D01*
X29250000Y-99700634D01*
X29250000Y-98803012D01*
X29307007Y-98835925D01*
X29434174Y-98870000D01*
X29565826Y-98870000D01*
X29692993Y-98835925D01*
X29750000Y-98803012D01*
X29750000Y-99700633D01*
X29963483Y-99643433D01*
X29963492Y-99643429D01*
X30177578Y-99543600D01*
X30371082Y-99408105D01*
X30538105Y-99241082D01*
X30673600Y-99047578D01*
X30773429Y-98833492D01*
X30773432Y-98833486D01*
X30830636Y-98620000D01*
X29933012Y-98620000D01*
X29965925Y-98562993D01*
X30000000Y-98435826D01*
X30000000Y-98304174D01*
X29965925Y-98177007D01*
X29933012Y-98120000D01*
X30830636Y-98120000D01*
X30830635Y-98119999D01*
X30773432Y-97906513D01*
X30773429Y-97906507D01*
X30673600Y-97692422D01*
X30673599Y-97692420D01*
X30538113Y-97498926D01*
X30538108Y-97498920D01*
X30371082Y-97331894D01*
X30177578Y-97196399D01*
X29963492Y-97096570D01*
X29963477Y-97096564D01*
X29930960Y-97087851D01*
X29871300Y-97051486D01*
X29840772Y-96988638D01*
X29849067Y-96919263D01*
X29893553Y-96865386D01*
X29918257Y-96852452D01*
X29994427Y-96822944D01*
X30168462Y-96715186D01*
X30319732Y-96577285D01*
X30443088Y-96413935D01*
X30534328Y-96230701D01*
X30590345Y-96033821D01*
X30609232Y-95830000D01*
X30590345Y-95626179D01*
X30534328Y-95429299D01*
X30503526Y-95367442D01*
X30491266Y-95298659D01*
X30518139Y-95234164D01*
X30526836Y-95224501D01*
X32533671Y-93217668D01*
X32580341Y-93136832D01*
X32604500Y-93046671D01*
X32604500Y-92953329D01*
X32604500Y-89203329D01*
X32580341Y-89113168D01*
X32533671Y-89032332D01*
X32467668Y-88966329D01*
X30640819Y-87139480D01*
X30607334Y-87078157D01*
X30604500Y-87051799D01*
X30604500Y-86131978D01*
X30624185Y-86064939D01*
X30676989Y-86019184D01*
X30746147Y-86009240D01*
X30809703Y-86038265D01*
X30843060Y-86084523D01*
X30883987Y-86183329D01*
X30923058Y-86277656D01*
X30923063Y-86277667D01*
X31038052Y-86476832D01*
X31038063Y-86476848D01*
X31178065Y-86659302D01*
X31178071Y-86659309D01*
X35209181Y-90690418D01*
X35242666Y-90751741D01*
X35245500Y-90778099D01*
X35245500Y-93881131D01*
X35245499Y-93881165D01*
X35245499Y-94114989D01*
X35245500Y-94115005D01*
X35275518Y-94343018D01*
X35324419Y-94525519D01*
X35335044Y-94565171D01*
X35423054Y-94777649D01*
X35423061Y-94777664D01*
X35538055Y-94976839D01*
X35678064Y-95159303D01*
X35678070Y-95159310D01*
X35843785Y-95325025D01*
X35843828Y-95325065D01*
X37459181Y-96940418D01*
X37492666Y-97001741D01*
X37495500Y-97028099D01*
X37495500Y-151059571D01*
X37475815Y-151126610D01*
X37423011Y-151172365D01*
X37353853Y-151182309D01*
X37290297Y-151153284D01*
X37280514Y-151143818D01*
X35763786Y-149505752D01*
X35763781Y-149505747D01*
X35710545Y-149458606D01*
X35710543Y-149458604D01*
X35604519Y-149406029D01*
X35604517Y-149406028D01*
X35604514Y-149406027D01*
X35487169Y-149390729D01*
X30645853Y-149563632D01*
X30578153Y-149546353D01*
X30530543Y-149495215D01*
X30518137Y-149426456D01*
X30539853Y-149368587D01*
X30673595Y-149177585D01*
X30673599Y-149177579D01*
X30773429Y-148963492D01*
X30773432Y-148963486D01*
X30830636Y-148750000D01*
X29933012Y-148750000D01*
X29965925Y-148692993D01*
X30000000Y-148565826D01*
X30000000Y-148434174D01*
X29965925Y-148307007D01*
X29933012Y-148250000D01*
X30830636Y-148250000D01*
X30830635Y-148249999D01*
X30773432Y-148036513D01*
X30773429Y-148036507D01*
X30673600Y-147822422D01*
X30673599Y-147822420D01*
X30538113Y-147628926D01*
X30538108Y-147628920D01*
X30371082Y-147461894D01*
X30177578Y-147326399D01*
X29963492Y-147226570D01*
X29963486Y-147226567D01*
X29750000Y-147169364D01*
X29750000Y-148066988D01*
X29692993Y-148034075D01*
X29565826Y-148000000D01*
X29434174Y-148000000D01*
X29307007Y-148034075D01*
X29250000Y-148066988D01*
X29250000Y-147169364D01*
X29249999Y-147169364D01*
X29036513Y-147226567D01*
X29036507Y-147226570D01*
X28822422Y-147326399D01*
X28822420Y-147326400D01*
X28628926Y-147461886D01*
X28628920Y-147461891D01*
X28461891Y-147628920D01*
X28461886Y-147628926D01*
X28326400Y-147822420D01*
X28326399Y-147822422D01*
X28226570Y-148036507D01*
X28226567Y-148036513D01*
X28169364Y-148249999D01*
X28169364Y-148250000D01*
X29066988Y-148250000D01*
X29034075Y-148307007D01*
X29000000Y-148434174D01*
X29000000Y-148565826D01*
X29034075Y-148692993D01*
X29066988Y-148750000D01*
X28169364Y-148750000D01*
X28226567Y-148963486D01*
X28226570Y-148963492D01*
X28326399Y-149177578D01*
X28461891Y-149371079D01*
X28526713Y-149435901D01*
X28560197Y-149497225D01*
X28555212Y-149566916D01*
X28513341Y-149622850D01*
X28465075Y-149644816D01*
X28367671Y-149665740D01*
X28266309Y-149726816D01*
X28266304Y-149726821D01*
X28190268Y-149817498D01*
X28147792Y-149927956D01*
X25897792Y-160927957D01*
X25897792Y-160927958D01*
X25891728Y-160970313D01*
X25891728Y-160970315D01*
X25891728Y-160970317D01*
X25891727Y-160970320D01*
X25901500Y-161088249D01*
X25901500Y-161088250D01*
X25949040Y-161196630D01*
X25949041Y-161196632D01*
X25992706Y-161244063D01*
X26011109Y-161272876D01*
X26011581Y-161272604D01*
X26015645Y-161279644D01*
X26104525Y-161395473D01*
X26104526Y-161395474D01*
X26220355Y-161484354D01*
X26220361Y-161484357D01*
X26287801Y-161512291D01*
X26355246Y-161540228D01*
X26427623Y-161549756D01*
X26499999Y-161559285D01*
X26500000Y-161559285D01*
X26500001Y-161559285D01*
X26548251Y-161552932D01*
X26644754Y-161540228D01*
X26779643Y-161484355D01*
X26895474Y-161395474D01*
X26984355Y-161279643D01*
X27040228Y-161144754D01*
X27048106Y-161084905D01*
X27076371Y-161021010D01*
X27096642Y-161001892D01*
X27586766Y-160634299D01*
X27652208Y-160609824D01*
X27661166Y-160609500D01*
X31542785Y-160609500D01*
X31609824Y-160629185D01*
X31632578Y-160647983D01*
X36228951Y-165474174D01*
X36489672Y-165747931D01*
X36579561Y-165816529D01*
X36994579Y-166040000D01*
X39444545Y-167359213D01*
X39829561Y-167566529D01*
X39896954Y-167594415D01*
X40014369Y-167609213D01*
X45764348Y-167379213D01*
X46264346Y-167359214D01*
X46264347Y-167359213D01*
X46264369Y-167359213D01*
X46300909Y-167355877D01*
X46413703Y-167320065D01*
X46508758Y-167249568D01*
X46575773Y-167152027D01*
X48325773Y-163402027D01*
X48348753Y-163337243D01*
X48358185Y-163219276D01*
X48328801Y-163104638D01*
X48263787Y-163005753D01*
X44818255Y-159284578D01*
X43313927Y-157659903D01*
X43282823Y-157597338D01*
X43290483Y-157527889D01*
X43334473Y-157473606D01*
X43372813Y-157455883D01*
X43596100Y-157396054D01*
X43820212Y-157303224D01*
X44030289Y-157181936D01*
X44222738Y-157034265D01*
X44394265Y-156862738D01*
X44541936Y-156670289D01*
X44663224Y-156460212D01*
X44756054Y-156236100D01*
X44818838Y-156001789D01*
X44850500Y-155761288D01*
X44850500Y-155518712D01*
X44818838Y-155278211D01*
X44756054Y-155043900D01*
X44663224Y-154819788D01*
X44541936Y-154609711D01*
X44394265Y-154417262D01*
X44394260Y-154417256D01*
X44222743Y-154245739D01*
X44222736Y-154245733D01*
X44030293Y-154098067D01*
X44030292Y-154098066D01*
X44030289Y-154098064D01*
X43820212Y-153976776D01*
X43820205Y-153976773D01*
X43596104Y-153883947D01*
X43361785Y-153821161D01*
X43121289Y-153789500D01*
X43121288Y-153789500D01*
X42878712Y-153789500D01*
X42878711Y-153789500D01*
X42638214Y-153821161D01*
X42403895Y-153883947D01*
X42179794Y-153976773D01*
X42179785Y-153976777D01*
X41969706Y-154098067D01*
X41777263Y-154245733D01*
X41777256Y-154245739D01*
X41605739Y-154417256D01*
X41605733Y-154417263D01*
X41458067Y-154609706D01*
X41336777Y-154819785D01*
X41336772Y-154819794D01*
X41243061Y-155046035D01*
X41199220Y-155100438D01*
X41132926Y-155122503D01*
X41065226Y-155105224D01*
X41017616Y-155054086D01*
X41004500Y-154998582D01*
X41004500Y-100671417D01*
X41024185Y-100604378D01*
X41076989Y-100558623D01*
X41146147Y-100548679D01*
X41209703Y-100577704D01*
X41243061Y-100623964D01*
X41262717Y-100671417D01*
X41336776Y-100850212D01*
X41458064Y-101060289D01*
X41458066Y-101060292D01*
X41458067Y-101060293D01*
X41605733Y-101252736D01*
X41605739Y-101252743D01*
X41777256Y-101424260D01*
X41777262Y-101424265D01*
X41969711Y-101571936D01*
X42179788Y-101693224D01*
X42403900Y-101786054D01*
X42638211Y-101848838D01*
X42818586Y-101872584D01*
X42878711Y-101880500D01*
X42878712Y-101880500D01*
X43121289Y-101880500D01*
X43169388Y-101874167D01*
X43361789Y-101848838D01*
X43596100Y-101786054D01*
X43820212Y-101693224D01*
X44030289Y-101571936D01*
X44222738Y-101424265D01*
X44394265Y-101252738D01*
X44541936Y-101060289D01*
X44663224Y-100850212D01*
X44756054Y-100626100D01*
X44818838Y-100391789D01*
X44850500Y-100151288D01*
X44850500Y-99908712D01*
X44818838Y-99668211D01*
X44756054Y-99433900D01*
X44663224Y-99209788D01*
X44541936Y-98999711D01*
X44481018Y-98920321D01*
X44394266Y-98807263D01*
X44394260Y-98807256D01*
X44222743Y-98635739D01*
X44222736Y-98635733D01*
X44030293Y-98488067D01*
X44030292Y-98488066D01*
X44030289Y-98488064D01*
X43820212Y-98366776D01*
X43820205Y-98366773D01*
X43596104Y-98273947D01*
X43361785Y-98211161D01*
X43121289Y-98179500D01*
X43121288Y-98179500D01*
X42878712Y-98179500D01*
X42878711Y-98179500D01*
X42638214Y-98211161D01*
X42403895Y-98273947D01*
X42179794Y-98366773D01*
X42179785Y-98366777D01*
X41969706Y-98488067D01*
X41777263Y-98635733D01*
X41777256Y-98635739D01*
X41605739Y-98807256D01*
X41605733Y-98807263D01*
X41458067Y-98999706D01*
X41336777Y-99209785D01*
X41336772Y-99209794D01*
X41243061Y-99436035D01*
X41199220Y-99490438D01*
X41132926Y-99512503D01*
X41065226Y-99495224D01*
X41017616Y-99444086D01*
X41004500Y-99388582D01*
X41004500Y-96369411D01*
X41004501Y-96369382D01*
X41004501Y-96135010D01*
X41004501Y-96135004D01*
X40974481Y-95906980D01*
X40914955Y-95684825D01*
X40830048Y-95479843D01*
X40828300Y-95474695D01*
X40802088Y-95429295D01*
X40711944Y-95273160D01*
X40571934Y-95090695D01*
X40571929Y-95090689D01*
X40406898Y-94925658D01*
X40406859Y-94925621D01*
X38790819Y-93309581D01*
X38757334Y-93248258D01*
X38754500Y-93221900D01*
X38754500Y-90119411D01*
X38754501Y-90119382D01*
X38754501Y-89885010D01*
X38754501Y-89885004D01*
X38724481Y-89656980D01*
X38664954Y-89434824D01*
X38576940Y-89222339D01*
X38461944Y-89023160D01*
X38321934Y-88840695D01*
X38159305Y-88678066D01*
X38159300Y-88678062D01*
X38156578Y-88675340D01*
X38156578Y-88675339D01*
X38156560Y-88675323D01*
X33659309Y-84178071D01*
X33659302Y-84178065D01*
X33476848Y-84038063D01*
X33476846Y-84038061D01*
X33476840Y-84038057D01*
X33476835Y-84038054D01*
X33476832Y-84038052D01*
X33277667Y-83923063D01*
X33277656Y-83923058D01*
X33065176Y-83835046D01*
X32843016Y-83775518D01*
X32615005Y-83745500D01*
X32615002Y-83745499D01*
X32614996Y-83745499D01*
X32385004Y-83745499D01*
X32384998Y-83745499D01*
X32384994Y-83745500D01*
X32156983Y-83775518D01*
X31934823Y-83835046D01*
X31722343Y-83923058D01*
X31722332Y-83923063D01*
X31523167Y-84038052D01*
X31523151Y-84038063D01*
X31340697Y-84178065D01*
X31340690Y-84178071D01*
X31178071Y-84340690D01*
X31178065Y-84340697D01*
X31038063Y-84523151D01*
X31038052Y-84523167D01*
X30923063Y-84722332D01*
X30923058Y-84722343D01*
X30843061Y-84915474D01*
X30799220Y-84969877D01*
X30732926Y-84991942D01*
X30665227Y-84974663D01*
X30617616Y-84923526D01*
X30604500Y-84868021D01*
X30604500Y-73670416D01*
X30895500Y-73670416D01*
X30895500Y-74122499D01*
X30895500Y-74281665D01*
X30926397Y-74396973D01*
X30936696Y-74435411D01*
X30936697Y-74435412D01*
X31016277Y-74573250D01*
X31016281Y-74573255D01*
X46282356Y-89839330D01*
X46315841Y-89900653D01*
X46310857Y-89970345D01*
X46268985Y-90026278D01*
X46203521Y-90050695D01*
X46135248Y-90035843D01*
X46119189Y-90025387D01*
X45956020Y-89900183D01*
X45956005Y-89900173D01*
X45703990Y-89754672D01*
X45703976Y-89754665D01*
X45435127Y-89643305D01*
X45154026Y-89567984D01*
X44865515Y-89530001D01*
X44865499Y-89530000D01*
X43250000Y-89530000D01*
X43250000Y-91060000D01*
X42750000Y-91060000D01*
X42750000Y-89530000D01*
X41134501Y-89530000D01*
X41134484Y-89530001D01*
X40845973Y-89567984D01*
X40564872Y-89643305D01*
X40296023Y-89754665D01*
X40296009Y-89754672D01*
X40043994Y-89900173D01*
X40043979Y-89900183D01*
X39813113Y-90077333D01*
X39813106Y-90077339D01*
X39607339Y-90283106D01*
X39607333Y-90283113D01*
X39430183Y-90513979D01*
X39430173Y-90513994D01*
X39284672Y-90766009D01*
X39284665Y-90766023D01*
X39173305Y-91034872D01*
X39097984Y-91315973D01*
X39073756Y-91500000D01*
X41846702Y-91500000D01*
X41826516Y-91548734D01*
X41800000Y-91682041D01*
X41800000Y-91817959D01*
X41826516Y-91951266D01*
X41846702Y-92000000D01*
X39073757Y-92000000D01*
X39097984Y-92184026D01*
X39173305Y-92465127D01*
X39284665Y-92733976D01*
X39284672Y-92733990D01*
X39430173Y-92986005D01*
X39430183Y-92986020D01*
X39607333Y-93216886D01*
X39607339Y-93216893D01*
X39813106Y-93422660D01*
X39813113Y-93422666D01*
X40043979Y-93599816D01*
X40043994Y-93599826D01*
X40296009Y-93745327D01*
X40296023Y-93745334D01*
X40564872Y-93856694D01*
X40845973Y-93932015D01*
X41134484Y-93969998D01*
X41134501Y-93970000D01*
X42750000Y-93970000D01*
X42750000Y-92440000D01*
X43250000Y-92440000D01*
X43250000Y-93970000D01*
X44865499Y-93970000D01*
X44865515Y-93969998D01*
X45154026Y-93932015D01*
X45435127Y-93856694D01*
X45703976Y-93745334D01*
X45703990Y-93745327D01*
X45956005Y-93599826D01*
X45956020Y-93599816D01*
X46186886Y-93422666D01*
X46186893Y-93422660D01*
X46392660Y-93216893D01*
X46392666Y-93216886D01*
X46569816Y-92986020D01*
X46569826Y-92986005D01*
X46715327Y-92733990D01*
X46715334Y-92733976D01*
X46826694Y-92465127D01*
X46902015Y-92184026D01*
X46926243Y-92000000D01*
X44153298Y-92000000D01*
X44173484Y-91951266D01*
X44200000Y-91817959D01*
X44200000Y-91682041D01*
X44173484Y-91548734D01*
X44153298Y-91500000D01*
X46926243Y-91500000D01*
X46902015Y-91315973D01*
X46826694Y-91034872D01*
X46715334Y-90766023D01*
X46715327Y-90766009D01*
X46569826Y-90513994D01*
X46569821Y-90513987D01*
X46444612Y-90350811D01*
X46419418Y-90285641D01*
X46433456Y-90217197D01*
X46482270Y-90167207D01*
X46550361Y-90151543D01*
X46616112Y-90175180D01*
X46630669Y-90187643D01*
X47859181Y-91416155D01*
X47892666Y-91477478D01*
X47895500Y-91503836D01*
X47895500Y-91829584D01*
X47907451Y-91874184D01*
X47936696Y-91983329D01*
X47936697Y-91983330D01*
X48016277Y-92121168D01*
X48016279Y-92121171D01*
X48016280Y-92121172D01*
X48128828Y-92233720D01*
X48266672Y-92313304D01*
X48420416Y-92354500D01*
X48420419Y-92354500D01*
X48579581Y-92354500D01*
X48579584Y-92354500D01*
X48733328Y-92313304D01*
X48871172Y-92233720D01*
X48983720Y-92121172D01*
X49063304Y-91983328D01*
X49104500Y-91829584D01*
X49104500Y-91122498D01*
X49063304Y-90968754D01*
X48983720Y-90830910D01*
X48871172Y-90718362D01*
X46549006Y-88396196D01*
X46515521Y-88334873D01*
X46520505Y-88265181D01*
X46561197Y-88210141D01*
X46645474Y-88145474D01*
X46734355Y-88029643D01*
X46790228Y-87894754D01*
X46809285Y-87750000D01*
X46809285Y-87743415D01*
X46828970Y-87676376D01*
X46845599Y-87655739D01*
X47033671Y-87467668D01*
X47034444Y-87466329D01*
X47080341Y-87386832D01*
X47104500Y-87296671D01*
X47104500Y-86448200D01*
X47124185Y-86381161D01*
X47140815Y-86360523D01*
X47905734Y-85595603D01*
X47967057Y-85562119D01*
X47993415Y-85559285D01*
X48000001Y-85559285D01*
X48051211Y-85552543D01*
X48144754Y-85540228D01*
X48279643Y-85484355D01*
X48395474Y-85395474D01*
X48484355Y-85279643D01*
X48540228Y-85144754D01*
X48559285Y-85000000D01*
X48555949Y-84974663D01*
X48540228Y-84855247D01*
X48540228Y-84855246D01*
X48484355Y-84720358D01*
X48395474Y-84604526D01*
X48279643Y-84515645D01*
X48279640Y-84515644D01*
X48279638Y-84515642D01*
X48144757Y-84459773D01*
X48144752Y-84459771D01*
X48000001Y-84440715D01*
X47999999Y-84440715D01*
X47855247Y-84459771D01*
X47855245Y-84459772D01*
X47720361Y-84515643D01*
X47720358Y-84515644D01*
X47720358Y-84515645D01*
X47604529Y-84604524D01*
X47604526Y-84604526D01*
X47515643Y-84720361D01*
X47459772Y-84855245D01*
X47459771Y-84855247D01*
X47440715Y-84999998D01*
X47440715Y-85006583D01*
X47421030Y-85073622D01*
X47404396Y-85094264D01*
X46532332Y-85966329D01*
X46466330Y-86032330D01*
X46466328Y-86032333D01*
X46419659Y-86113167D01*
X46395500Y-86203330D01*
X46395500Y-87051797D01*
X46375815Y-87118836D01*
X46359181Y-87139478D01*
X46344263Y-87154396D01*
X46282940Y-87187881D01*
X46256582Y-87190715D01*
X46249999Y-87190715D01*
X46105247Y-87209771D01*
X46105245Y-87209772D01*
X45970361Y-87265643D01*
X45970358Y-87265644D01*
X45970358Y-87265645D01*
X45854526Y-87354526D01*
X45789859Y-87438801D01*
X45733433Y-87480002D01*
X45663687Y-87484157D01*
X45603804Y-87450994D01*
X32140819Y-73988009D01*
X32107334Y-73926686D01*
X32104500Y-73900328D01*
X32104500Y-73670418D01*
X32104500Y-73670416D01*
X32063304Y-73516672D01*
X31983720Y-73378828D01*
X31871172Y-73266280D01*
X31871171Y-73266279D01*
X31871168Y-73266277D01*
X31733330Y-73186697D01*
X31733329Y-73186696D01*
X31694892Y-73176397D01*
X31579584Y-73145500D01*
X31420416Y-73145500D01*
X31328169Y-73170217D01*
X31266670Y-73186696D01*
X31266669Y-73186697D01*
X31128831Y-73266277D01*
X31128826Y-73266281D01*
X31016281Y-73378826D01*
X31016277Y-73378831D01*
X30936697Y-73516669D01*
X30936696Y-73516670D01*
X30916098Y-73593544D01*
X30895500Y-73670416D01*
X30604500Y-73670416D01*
X30604500Y-64487811D01*
X30624185Y-64420772D01*
X30640819Y-64400130D01*
X30645469Y-64395479D01*
X30645471Y-64395476D01*
X30645474Y-64395474D01*
X30734355Y-64279643D01*
X30790228Y-64144754D01*
X30809285Y-64000000D01*
X30790228Y-63855246D01*
X30734355Y-63720358D01*
X30645474Y-63604526D01*
X30529643Y-63515645D01*
X30529640Y-63515644D01*
X30529638Y-63515642D01*
X30394757Y-63459773D01*
X30394752Y-63459771D01*
X30250001Y-63440715D01*
X30249999Y-63440715D01*
X30105247Y-63459771D01*
X30105242Y-63459773D01*
X30025952Y-63492616D01*
X29956483Y-63500085D01*
X29894004Y-63468809D01*
X29858352Y-63408720D01*
X29854500Y-63378055D01*
X29854500Y-60987811D01*
X29874185Y-60920772D01*
X29890819Y-60900130D01*
X29895469Y-60895479D01*
X29895471Y-60895476D01*
X29895474Y-60895474D01*
X29984355Y-60779643D01*
X30040228Y-60644754D01*
X30059285Y-60500000D01*
X30058931Y-60497314D01*
X30040228Y-60355247D01*
X30040228Y-60355246D01*
X29984355Y-60220358D01*
X29895474Y-60104526D01*
X29779643Y-60015645D01*
X29779640Y-60015644D01*
X29779638Y-60015642D01*
X29644757Y-59959773D01*
X29644752Y-59959771D01*
X29500001Y-59940715D01*
X29499999Y-59940715D01*
X29355247Y-59959771D01*
X29355245Y-59959772D01*
X29220361Y-60015643D01*
X29220358Y-60015644D01*
X29220358Y-60015645D01*
X29104526Y-60104526D01*
X29104525Y-60104527D01*
X29104524Y-60104528D01*
X29076875Y-60140561D01*
X29020447Y-60181763D01*
X28950701Y-60185918D01*
X28889781Y-60151705D01*
X28857029Y-60089988D01*
X28854500Y-60065074D01*
X28854500Y-59453330D01*
X28854500Y-59453329D01*
X28830341Y-59363168D01*
X28822107Y-59348907D01*
X28805635Y-59281008D01*
X28806553Y-59270746D01*
X28809285Y-59250000D01*
X28790228Y-59105246D01*
X28734355Y-58970358D01*
X28645474Y-58854526D01*
X28529643Y-58765645D01*
X28529640Y-58765644D01*
X28529638Y-58765642D01*
X28394757Y-58709773D01*
X28394752Y-58709771D01*
X28250001Y-58690715D01*
X28249999Y-58690715D01*
X28105247Y-58709771D01*
X28105245Y-58709772D01*
X27970361Y-58765643D01*
X27970358Y-58765644D01*
X27970358Y-58765645D01*
X27905421Y-58815473D01*
X27854526Y-58854526D01*
X27765643Y-58970361D01*
X27709772Y-59105245D01*
X27709771Y-59105247D01*
X27690715Y-59249998D01*
X27690715Y-59250001D01*
X27709771Y-59394752D01*
X27709773Y-59394757D01*
X27765642Y-59529638D01*
X27765645Y-59529644D01*
X27854525Y-59645473D01*
X27854526Y-59645474D01*
X27970355Y-59734354D01*
X27970361Y-59734357D01*
X28010798Y-59751106D01*
X28068953Y-59775195D01*
X28123356Y-59819034D01*
X28145421Y-59885328D01*
X28145500Y-59889755D01*
X28145500Y-60374909D01*
X28125815Y-60441948D01*
X28073011Y-60487703D01*
X28003853Y-60497647D01*
X27974048Y-60489471D01*
X27918551Y-60466484D01*
X27858097Y-60441443D01*
X27858094Y-60441442D01*
X27858095Y-60441442D01*
X27713344Y-60422386D01*
X27713342Y-60422386D01*
X27568590Y-60441442D01*
X27568588Y-60441443D01*
X27433704Y-60497314D01*
X27433701Y-60497315D01*
X27433701Y-60497316D01*
X27430202Y-60500001D01*
X27317869Y-60586197D01*
X27228986Y-60702032D01*
X27173115Y-60836916D01*
X27173114Y-60836918D01*
X27154058Y-60981669D01*
X27154058Y-60981672D01*
X27173114Y-61126423D01*
X27173116Y-61126428D01*
X27228985Y-61261309D01*
X27228985Y-61261310D01*
X27228987Y-61261313D01*
X27228988Y-61261314D01*
X27317869Y-61377145D01*
X27346987Y-61399488D01*
X27388188Y-61455912D01*
X27395500Y-61497862D01*
X27395500Y-65628055D01*
X27375815Y-65695094D01*
X27323011Y-65740849D01*
X27253853Y-65750793D01*
X27224048Y-65742616D01*
X27144757Y-65709773D01*
X27144752Y-65709771D01*
X27000001Y-65690715D01*
X26999997Y-65690715D01*
X26940586Y-65698536D01*
X26871551Y-65687770D01*
X26819296Y-65641389D01*
X26800411Y-65574120D01*
X26801463Y-65559411D01*
X26804020Y-65539994D01*
X26809285Y-65500000D01*
X26808509Y-65494108D01*
X26790228Y-65355247D01*
X26790228Y-65355246D01*
X26734355Y-65220358D01*
X26645474Y-65104526D01*
X26529643Y-65015645D01*
X26529640Y-65015644D01*
X26529638Y-65015642D01*
X26394757Y-64959773D01*
X26394752Y-64959771D01*
X26250001Y-64940715D01*
X26249997Y-64940715D01*
X26190586Y-64948536D01*
X26121551Y-64937770D01*
X26069296Y-64891389D01*
X26050411Y-64824120D01*
X26051463Y-64809411D01*
X26055863Y-64775995D01*
X26059285Y-64750000D01*
X26040228Y-64605246D01*
X25984355Y-64470358D01*
X25895474Y-64354526D01*
X25779643Y-64265645D01*
X25779640Y-64265644D01*
X25779638Y-64265642D01*
X25644757Y-64209773D01*
X25644752Y-64209771D01*
X25500001Y-64190715D01*
X25499999Y-64190715D01*
X25355247Y-64209771D01*
X25355245Y-64209772D01*
X25220361Y-64265643D01*
X25220358Y-64265644D01*
X25220358Y-64265645D01*
X25104529Y-64354524D01*
X25104526Y-64354526D01*
X25015643Y-64470361D01*
X24959772Y-64605245D01*
X24959771Y-64605247D01*
X24940715Y-64749998D01*
X24940715Y-64756582D01*
X24921030Y-64823621D01*
X24904396Y-64844263D01*
X24816181Y-64932478D01*
X24754858Y-64965963D01*
X24685166Y-64960979D01*
X24629233Y-64919107D01*
X24604816Y-64853643D01*
X24604500Y-64844797D01*
X24604500Y-58987811D01*
X24624185Y-58920772D01*
X24640819Y-58900130D01*
X24645469Y-58895479D01*
X24645471Y-58895476D01*
X24645474Y-58895474D01*
X24734355Y-58779643D01*
X24790228Y-58644754D01*
X24809285Y-58500000D01*
X24790228Y-58355246D01*
X24734355Y-58220358D01*
X24645474Y-58104526D01*
X24529643Y-58015645D01*
X24529640Y-58015644D01*
X24529638Y-58015642D01*
X24394757Y-57959773D01*
X24394752Y-57959771D01*
X24250001Y-57940715D01*
X24249999Y-57940715D01*
X24105247Y-57959771D01*
X24105242Y-57959773D01*
X24025952Y-57992616D01*
X23956483Y-58000085D01*
X23894004Y-57968809D01*
X23858352Y-57908720D01*
X23854500Y-57878055D01*
X23854500Y-46953330D01*
X23850033Y-46936658D01*
X23830341Y-46863168D01*
X23783671Y-46782332D01*
X23717668Y-46716329D01*
X23636832Y-46669659D01*
X23636833Y-46669659D01*
X23606778Y-46661606D01*
X23546671Y-46645500D01*
X23453329Y-46645500D01*
X23393221Y-46661606D01*
X23363167Y-46669659D01*
X23282333Y-46716328D01*
X23282330Y-46716330D01*
X23212681Y-46785980D01*
X23151358Y-46819465D01*
X23081666Y-46814481D01*
X23037319Y-46785980D01*
X22967669Y-46716330D01*
X22967668Y-46716329D01*
X22886832Y-46669659D01*
X22886833Y-46669659D01*
X22856778Y-46661606D01*
X22796671Y-46645500D01*
X22703329Y-46645500D01*
X22643221Y-46661606D01*
X22613167Y-46669659D01*
X22532333Y-46716328D01*
X22532330Y-46716330D01*
X22466330Y-46782330D01*
X22466328Y-46782333D01*
X22419659Y-46863167D01*
X22395500Y-46953330D01*
X22395500Y-67512189D01*
X22375815Y-67579228D01*
X22359185Y-67599866D01*
X22354532Y-67604519D01*
X22354527Y-67604524D01*
X22354526Y-67604526D01*
X22354501Y-67604559D01*
X22265643Y-67720361D01*
X22238561Y-67785743D01*
X22194720Y-67840146D01*
X22128425Y-67862211D01*
X22060726Y-67844932D01*
X22013116Y-67793794D01*
X22000000Y-67738290D01*
X22000000Y-28865186D01*
X22849500Y-28865186D01*
X22849500Y-29134813D01*
X22879686Y-29402719D01*
X22879688Y-29402731D01*
X22939684Y-29665594D01*
X22939687Y-29665602D01*
X23028734Y-29920082D01*
X23145714Y-30162994D01*
X23145716Y-30162997D01*
X23289162Y-30391289D01*
X23457266Y-30602085D01*
X23647915Y-30792734D01*
X23858711Y-30960838D01*
X24087003Y-31104284D01*
X24329921Y-31221267D01*
X24521049Y-31288145D01*
X24584397Y-31310312D01*
X24584405Y-31310315D01*
X24584408Y-31310315D01*
X24584409Y-31310316D01*
X24847268Y-31370312D01*
X25115187Y-31400499D01*
X25115188Y-31400500D01*
X25115191Y-31400500D01*
X25384812Y-31400500D01*
X25384812Y-31400499D01*
X25652732Y-31370312D01*
X25915591Y-31310316D01*
X26170079Y-31221267D01*
X26412997Y-31104284D01*
X26641289Y-30960838D01*
X26852085Y-30792734D01*
X27042734Y-30602085D01*
X27210838Y-30391289D01*
X27354284Y-30162997D01*
X27409739Y-30047844D01*
X37250000Y-30047844D01*
X37256401Y-30107372D01*
X37256403Y-30107379D01*
X37306645Y-30242086D01*
X37306649Y-30242093D01*
X37392809Y-30357187D01*
X37392812Y-30357190D01*
X37507906Y-30443350D01*
X37507913Y-30443354D01*
X37642620Y-30493596D01*
X37642627Y-30493598D01*
X37702155Y-30499999D01*
X37702172Y-30500000D01*
X38175000Y-30500000D01*
X38675000Y-30500000D01*
X39147828Y-30500000D01*
X39147844Y-30499999D01*
X39207372Y-30493598D01*
X39207379Y-30493596D01*
X39342086Y-30443354D01*
X39342093Y-30443350D01*
X39457187Y-30357190D01*
X39457190Y-30357187D01*
X39543350Y-30242093D01*
X39543354Y-30242086D01*
X39593596Y-30107379D01*
X39593598Y-30107372D01*
X39599999Y-30047844D01*
X42900000Y-30047844D01*
X42906401Y-30107372D01*
X42906403Y-30107379D01*
X42956645Y-30242086D01*
X42956649Y-30242093D01*
X43042809Y-30357187D01*
X43042812Y-30357190D01*
X43157906Y-30443350D01*
X43157913Y-30443354D01*
X43292620Y-30493596D01*
X43292627Y-30493598D01*
X43352155Y-30499999D01*
X43352172Y-30500000D01*
X43825000Y-30500000D01*
X44325000Y-30500000D01*
X44797828Y-30500000D01*
X44797844Y-30499999D01*
X44857372Y-30493598D01*
X44857379Y-30493596D01*
X44992086Y-30443354D01*
X44992093Y-30443350D01*
X45107187Y-30357190D01*
X45107190Y-30357187D01*
X45193350Y-30242093D01*
X45193354Y-30242086D01*
X45243596Y-30107379D01*
X45243598Y-30107372D01*
X45249999Y-30047844D01*
X45250000Y-30047827D01*
X45250000Y-28865186D01*
X48849500Y-28865186D01*
X48849500Y-29134813D01*
X48879686Y-29402719D01*
X48879688Y-29402731D01*
X48939684Y-29665594D01*
X48939687Y-29665602D01*
X49028734Y-29920082D01*
X49145714Y-30162994D01*
X49145716Y-30162997D01*
X49289162Y-30391289D01*
X49457266Y-30602085D01*
X49647915Y-30792734D01*
X49858711Y-30960838D01*
X50087003Y-31104284D01*
X50329921Y-31221267D01*
X50521049Y-31288145D01*
X50584397Y-31310312D01*
X50584405Y-31310315D01*
X50584408Y-31310315D01*
X50584409Y-31310316D01*
X50847268Y-31370312D01*
X51115187Y-31400499D01*
X51115188Y-31400500D01*
X51115191Y-31400500D01*
X51384812Y-31400500D01*
X51384812Y-31400499D01*
X51652732Y-31370312D01*
X51915591Y-31310316D01*
X52170079Y-31221267D01*
X52412997Y-31104284D01*
X52641289Y-30960838D01*
X52852085Y-30792734D01*
X53042734Y-30602085D01*
X53210838Y-30391289D01*
X53354284Y-30162997D01*
X53471267Y-29920079D01*
X53560316Y-29665591D01*
X53620312Y-29402732D01*
X53650500Y-29134809D01*
X53650500Y-28865191D01*
X53620312Y-28597268D01*
X53560316Y-28334409D01*
X53471267Y-28079921D01*
X53354284Y-27837003D01*
X53210838Y-27608711D01*
X53042734Y-27397915D01*
X52852085Y-27207266D01*
X52641289Y-27039162D01*
X52412997Y-26895716D01*
X52412994Y-26895714D01*
X52170082Y-26778734D01*
X51915602Y-26689687D01*
X51915594Y-26689684D01*
X51718446Y-26644687D01*
X51652732Y-26629688D01*
X51652728Y-26629687D01*
X51652719Y-26629686D01*
X51384813Y-26599500D01*
X51384809Y-26599500D01*
X51115191Y-26599500D01*
X51115186Y-26599500D01*
X50847280Y-26629686D01*
X50847268Y-26629688D01*
X50584405Y-26689684D01*
X50584397Y-26689687D01*
X50329917Y-26778734D01*
X50087005Y-26895714D01*
X49858712Y-27039161D01*
X49647915Y-27207265D01*
X49457265Y-27397915D01*
X49289161Y-27608712D01*
X49145714Y-27837005D01*
X49028734Y-28079917D01*
X48939687Y-28334397D01*
X48939684Y-28334405D01*
X48879688Y-28597268D01*
X48879686Y-28597280D01*
X48849500Y-28865186D01*
X45250000Y-28865186D01*
X45250000Y-28150000D01*
X44325000Y-28150000D01*
X44325000Y-30500000D01*
X43825000Y-30500000D01*
X43825000Y-28150000D01*
X42900000Y-28150000D01*
X42900000Y-30047844D01*
X39599999Y-30047844D01*
X39600000Y-30047827D01*
X39600000Y-28150000D01*
X38675000Y-28150000D01*
X38675000Y-30500000D01*
X38175000Y-30500000D01*
X38175000Y-28150000D01*
X37250000Y-28150000D01*
X37250000Y-30047844D01*
X27409739Y-30047844D01*
X27471267Y-29920079D01*
X27560316Y-29665591D01*
X27620312Y-29402732D01*
X27650500Y-29134809D01*
X27650500Y-28865191D01*
X27620312Y-28597268D01*
X27560316Y-28334409D01*
X27471267Y-28079921D01*
X27354284Y-27837003D01*
X27210838Y-27608711D01*
X27042734Y-27397915D01*
X26852085Y-27207266D01*
X26641289Y-27039162D01*
X26412997Y-26895716D01*
X26412994Y-26895714D01*
X26170082Y-26778734D01*
X25915602Y-26689687D01*
X25915594Y-26689684D01*
X25718446Y-26644687D01*
X25652732Y-26629688D01*
X25652728Y-26629687D01*
X25652719Y-26629686D01*
X25384813Y-26599500D01*
X25384809Y-26599500D01*
X25115191Y-26599500D01*
X25115186Y-26599500D01*
X24847280Y-26629686D01*
X24847268Y-26629688D01*
X24584405Y-26689684D01*
X24584397Y-26689687D01*
X24329917Y-26778734D01*
X24087005Y-26895714D01*
X23858712Y-27039161D01*
X23647915Y-27207265D01*
X23457265Y-27397915D01*
X23289161Y-27608712D01*
X23145714Y-27837005D01*
X23028734Y-28079917D01*
X22939687Y-28334397D01*
X22939684Y-28334405D01*
X22879688Y-28597268D01*
X22879686Y-28597280D01*
X22849500Y-28865186D01*
X22000000Y-28865186D01*
X22000000Y-25874000D01*
X22019685Y-25806961D01*
X22072489Y-25761206D01*
X22124000Y-25750000D01*
X37126000Y-25750000D01*
X37193039Y-25769685D01*
G37*
%TD.AperFunction*%
%TA.AperFunction,Conductor*%
G36*
X39848128Y-53174185D02*
G01*
X39868770Y-53190819D01*
X46662886Y-59984935D01*
X46696371Y-60046258D01*
X46698144Y-60056431D01*
X46709771Y-60144752D01*
X46709773Y-60144757D01*
X46765642Y-60279638D01*
X46765645Y-60279644D01*
X46854525Y-60395473D01*
X46854526Y-60395474D01*
X46970355Y-60484354D01*
X46970357Y-60484355D01*
X46974225Y-60485957D01*
X46976989Y-60488184D01*
X46977399Y-60488421D01*
X46977362Y-60488484D01*
X47028630Y-60529796D01*
X47050698Y-60596089D01*
X47033422Y-60663789D01*
X47014459Y-60688201D01*
X46826478Y-60876182D01*
X46765158Y-60909666D01*
X46738799Y-60912500D01*
X46653500Y-60912500D01*
X46586461Y-60892815D01*
X46540706Y-60840011D01*
X46529500Y-60788500D01*
X46529500Y-60633144D01*
X46529501Y-60633131D01*
X46529501Y-60529801D01*
X46521516Y-60500001D01*
X46505342Y-60439640D01*
X46499503Y-60429526D01*
X46458675Y-60358809D01*
X46458669Y-60358801D01*
X44537444Y-58437576D01*
X44503959Y-58376253D01*
X44502186Y-58366080D01*
X44492114Y-58289572D01*
X44490228Y-58275246D01*
X44434355Y-58140358D01*
X44345474Y-58024526D01*
X44229643Y-57935645D01*
X44229640Y-57935644D01*
X44229638Y-57935642D01*
X44094757Y-57879773D01*
X44094752Y-57879771D01*
X43950001Y-57860715D01*
X43949999Y-57860715D01*
X43805247Y-57879771D01*
X43805245Y-57879772D01*
X43670361Y-57935643D01*
X43670358Y-57935644D01*
X43670358Y-57935645D01*
X43554526Y-58024526D01*
X43493142Y-58104524D01*
X43465643Y-58140361D01*
X43409772Y-58275245D01*
X43409771Y-58275247D01*
X43390715Y-58419998D01*
X43390715Y-58420001D01*
X43409771Y-58564752D01*
X43409773Y-58564757D01*
X43465642Y-58699638D01*
X43465645Y-58699644D01*
X43554525Y-58815473D01*
X43554526Y-58815474D01*
X43670355Y-58904354D01*
X43670361Y-58904357D01*
X43709991Y-58920772D01*
X43805246Y-58960228D01*
X43950000Y-58979285D01*
X44001135Y-58972552D01*
X44070167Y-58983316D01*
X44105000Y-59007810D01*
X45275994Y-60178804D01*
X45309479Y-60240127D01*
X45304495Y-60309819D01*
X45263801Y-60364859D01*
X45179526Y-60429526D01*
X45179524Y-60429527D01*
X45179519Y-60429532D01*
X45174866Y-60434185D01*
X45113541Y-60467667D01*
X45087189Y-60470500D01*
X44023201Y-60470500D01*
X43956162Y-60450815D01*
X43935520Y-60434181D01*
X37001644Y-53500305D01*
X36968159Y-53438982D01*
X36973143Y-53369290D01*
X37015015Y-53313357D01*
X37061708Y-53294342D01*
X37061169Y-53292331D01*
X37069010Y-53290229D01*
X37069019Y-53290228D01*
X37203908Y-53234355D01*
X37274581Y-53180124D01*
X37339750Y-53154930D01*
X37350068Y-53154500D01*
X39781089Y-53154500D01*
X39848128Y-53174185D01*
G37*
%TD.AperFunction*%
%TD*%
M02*
