M48
; DRILL file {KiCad 8.0.3} date 2024-07-11T13:48:42-0700
; FORMAT={-:-/ absolute / inch / decimal}
; #@! TF.CreationDate,2024-07-11T13:48:42-07:00
; #@! TF.GenerationSoftware,Kicad,Pcbnew,8.0.3
; #@! TF.FileFunction,Plated,1,2,PTH
FMAT,2
INCH
; #@! TA.AperFunction,Plated,PTH,ViaDrill
T1C0.0118
; #@! TA.AperFunction,Plated,PTH,ComponentDrill
T2C0.0118
; #@! TA.AperFunction,Plated,PTH,ViaDrill
T3C0.0276
; #@! TA.AperFunction,Plated,PTH,ComponentDrill
T4C0.0394
; #@! TA.AperFunction,Plated,PTH,ComponentDrill
T5C0.0543
%
G90
G05
T1
X0.8957Y-2.6772
X0.8957Y-4.3504
X0.8957Y-5.9744
X0.8976Y-1.0749
X0.8976Y-1.2167
X0.8976Y-1.2639
X0.8976Y-1.3111
X0.8976Y-1.3584
X0.8976Y-1.4056
X0.8976Y-1.4529
X0.8976Y-1.5001
X0.8976Y-1.5474
X0.8976Y-1.5946
X0.8976Y-1.6419
X0.8976Y-1.6891
X0.8976Y-1.7363
X0.8976Y-1.7836
X0.8976Y-3.435
X0.9252Y-2.6378
X0.9252Y-3.4744
X0.9252Y-4.2362
X0.9255Y-5.9606
X0.9449Y-1.2639
X0.9449Y-1.3111
X0.9449Y-1.3584
X0.9449Y-1.4056
X0.9449Y-1.4529
X0.9449Y-1.5001
X0.9449Y-1.5474
X0.9449Y-1.5946
X0.9449Y-1.6419
X0.9449Y-1.6891
X0.9547Y-2.3031
X0.9547Y-4.8425
X0.9744Y-2.2047
X0.9843Y-4.7736
X0.9921Y-1.2639
X0.9921Y-1.3111
X0.9921Y-1.3584
X0.9921Y-1.4056
X0.9921Y-1.4529
X0.9921Y-1.5001
X0.9921Y-1.5474
X0.9921Y-1.9253
X0.9921Y-1.9726
X0.9921Y-2.0198
X0.9921Y-2.0671
X0.9921Y-2.1143
X0.9921Y-2.3505
X0.9921Y-2.3978
X0.9921Y-2.445
X0.9921Y-2.4922
X1.0039Y-2.5492
X1.0138Y-1.5945
X1.0138Y-4.7146
X1.0335Y-2.5787
X1.0394Y-1.2639
X1.0394Y-1.3111
X1.0394Y-1.3584
X1.0394Y-1.4056
X1.0394Y-1.4529
X1.0394Y-1.5001
X1.0394Y-1.5474
X1.0394Y-1.6419
X1.0394Y-1.6891
X1.0394Y-1.8308
X1.0394Y-1.8781
X1.0394Y-1.9253
X1.0394Y-1.9726
X1.0394Y-2.0198
X1.0394Y-2.0671
X1.0394Y-2.1143
X1.0394Y-2.1615
X1.0394Y-2.3033
X1.0394Y-2.3505
X1.0394Y-2.3978
X1.0394Y-2.445
X1.0394Y-2.4922
X1.0433Y-4.6457
X1.0433Y-6.3386
X1.063Y-2.6083
X1.0827Y-2.2047
X1.0866Y-1.2167
X1.0866Y-1.2639
X1.0866Y-1.3111
X1.0866Y-1.3584
X1.0866Y-1.4056
X1.0866Y-1.4529
X1.0866Y-1.5001
X1.0866Y-1.5474
X1.0866Y-1.6419
X1.0866Y-1.6891
X1.0866Y-1.8308
X1.0866Y-1.8781
X1.0866Y-1.9253
X1.0866Y-1.9726
X1.0866Y-2.0198
X1.0866Y-2.0671
X1.0866Y-2.1143
X1.0911Y-2.4009
X1.0925Y-3.061
X1.1024Y-3.1163
X1.1122Y-2.3327
X1.1319Y-4.0157
X1.1319Y-4.0453
X1.1339Y-1.0749
X1.1339Y-1.1222
X1.1339Y-1.1694
X1.1339Y-1.2167
X1.1339Y-1.2639
X1.1339Y-1.3111
X1.1339Y-1.3584
X1.1339Y-1.4056
X1.1339Y-1.4529
X1.1339Y-1.5001
X1.1339Y-1.5474
X1.1339Y-1.6419
X1.1339Y-1.6891
X1.1339Y-1.9253
X1.1614Y-2.3819
X1.1614Y-4.0157
X1.1614Y-4.0453
X1.1811Y-1.0749
X1.1811Y-1.1222
X1.1811Y-1.1694
X1.1811Y-1.2167
X1.1811Y-1.2639
X1.1811Y-1.3111
X1.1811Y-1.3584
X1.1811Y-1.4056
X1.1811Y-1.4529
X1.1811Y-1.5001
X1.1811Y-1.5474
X1.1811Y-1.6419
X1.1811Y-1.6891
X1.1811Y-1.7363
X1.1811Y-1.7836
X1.1811Y-1.8308
X1.1811Y-1.9253
X1.1909Y-2.5197
X1.2283Y-1.0749
X1.2283Y-1.1222
X1.2283Y-1.1694
X1.2283Y-1.2167
X1.2283Y-1.2639
X1.2283Y-1.3111
X1.2283Y-1.3584
X1.2283Y-1.4056
X1.2283Y-1.4529
X1.2283Y-1.5001
X1.2283Y-1.5474
X1.2283Y-1.7836
X1.2283Y-1.8308
X1.2283Y-1.9253
X1.2303Y-2.7067
X1.2402Y-2.9035
X1.25Y-2.4409
X1.25Y-3.2283
X1.25Y-3.2579
X1.252Y-1.6378
X1.252Y-1.6811
X1.252Y-1.7244
X1.2598Y-2.0768
X1.2697Y-1.9783
X1.2756Y-1.0749
X1.2756Y-1.1222
X1.2756Y-1.1694
X1.2756Y-1.2167
X1.2756Y-1.2639
X1.2756Y-1.3111
X1.2756Y-1.3584
X1.2756Y-1.4056
X1.2756Y-1.4529
X1.2756Y-1.5001
X1.2756Y-1.5474
X1.2756Y-1.8308
X1.2756Y-1.9253
X1.2795Y-3.2283
X1.2795Y-3.2579
X1.3228Y-1.0749
X1.3228Y-1.1222
X1.3228Y-1.1694
X1.3228Y-1.2167
X1.3228Y-1.2639
X1.3228Y-1.3111
X1.3228Y-1.3584
X1.3228Y-1.4056
X1.3228Y-1.4529
X1.3228Y-1.5001
X1.3228Y-1.5474
X1.3228Y-2.3978
X1.3228Y-2.445
X1.3228Y-2.4922
X1.3504Y-1.6378
X1.3504Y-1.6811
X1.3504Y-1.7244
X1.3701Y-1.0749
X1.3701Y-1.1222
X1.3701Y-1.1694
X1.3701Y-1.2167
X1.3701Y-1.2639
X1.3701Y-1.3111
X1.3701Y-1.3584
X1.3701Y-1.4056
X1.3701Y-1.4529
X1.3701Y-1.5001
X1.3701Y-1.5474
X1.3701Y-2.3978
X1.3701Y-2.445
X1.3701Y-2.4922
X1.3753Y-1.8479
X1.3976Y-1.9291
X1.3996Y-2.1496
X1.3996Y-2.0611
X1.4035Y-2.0276
X1.4173Y-1.0749
X1.4173Y-1.1222
X1.4173Y-1.1694
X1.4173Y-1.2167
X1.4173Y-1.2639
X1.4173Y-1.3111
X1.4173Y-1.3584
X1.4173Y-1.4056
X1.4173Y-1.4529
X1.4173Y-1.5001
X1.4173Y-1.5474
X1.4291Y-2.0984
X1.4537Y-2.0768
X1.4646Y-1.2167
X1.4646Y-1.2639
X1.4646Y-1.3111
X1.4646Y-1.3584
X1.4646Y-1.4056
X1.4646Y-1.4529
X1.4646Y-1.5001
X1.4646Y-1.7836
X1.4646Y-1.9587
X1.4961Y-2.8937
X1.4961Y-2.9331
X1.5059Y-2.3228
X1.5118Y-1.2167
X1.5118Y-1.2639
X1.5118Y-1.3111
X1.5118Y-1.3584
X1.5118Y-1.4056
X1.5118Y-1.4529
X1.5118Y-1.5001
X1.5118Y-1.8976
X1.5157Y-1.9488
X1.5354Y-2.8937
X1.5354Y-2.9331
X1.5453Y-2.7067
X1.5551Y-2.4902
X1.5568Y-2.3139
X1.5591Y-1.2167
X1.5591Y-1.2639
X1.5591Y-1.3111
X1.5591Y-1.3584
X1.5591Y-1.4056
X1.5591Y-1.4529
X1.5591Y-1.5001
X1.5748Y-1.9528
X1.5748Y-2.8937
X1.5748Y-2.9331
X1.5854Y-1.8889
X1.5955Y-1.6358
X1.6142Y-2.2047
X1.622Y-1.6555
X1.622Y-1.9134
X1.624Y-1.7618
X1.6437Y-2.0571
X1.6486Y-1.6791
X1.6634Y-2.3819
X1.6635Y-1.8859
X1.7008Y-1.2167
X1.7008Y-1.2639
X1.7008Y-1.3111
X1.7008Y-1.3584
X1.7008Y-1.4056
X1.7008Y-1.4529
X1.7126Y-2.126
X1.7224Y-2.4803
X1.7303Y-2.3
X1.7323Y-2.4213
X1.748Y-1.2167
X1.748Y-1.2639
X1.748Y-1.3111
X1.748Y-1.3584
X1.748Y-1.4056
X1.748Y-1.4529
X1.748Y-1.8308
X1.7618Y-2.1752
X1.7943Y-2.3947
X1.7953Y-1.0749
X1.7953Y-1.1222
X1.7953Y-1.1694
X1.7953Y-1.2167
X1.7953Y-1.2639
X1.7953Y-1.3111
X1.7953Y-1.3584
X1.7953Y-1.4056
X1.7953Y-1.4529
X1.8012Y-1.6043
X1.8012Y-1.6831
X1.8209Y-3.4547
X1.8307Y-1.9429
X1.8307Y-2.9921
X1.8425Y-1.0749
X1.8425Y-1.1222
X1.8425Y-1.1694
X1.8425Y-1.2167
X1.8425Y-1.2639
X1.8425Y-1.3111
X1.8425Y-1.3584
X1.8425Y-1.5001
X1.8504Y-2.2638
X1.8602Y-2.3622
X1.8621Y-1.9902
X1.8701Y-1.9488
X1.8799Y-1.6043
X1.88Y-2.1358
X1.8898Y-1.0749
X1.8898Y-1.1222
X1.8898Y-1.1694
X1.8898Y-1.2167
X1.8898Y-1.2639
X1.8898Y-1.3111
X1.8898Y-1.3584
X1.8898Y-3.3465
X1.8918Y-2.0006
X1.9073Y-2.1201
X1.9094Y-3.6122
X1.9281Y-2.0965
X1.937Y-1.2639
X1.937Y-1.3111
X1.937Y-1.3584
X1.937Y-1.4056
X1.937Y-1.4529
X1.937Y-1.5001
X1.937Y-1.5474
X1.9587Y-1.6929
X1.9843Y-1.2639
X1.9843Y-1.3111
X1.9843Y-1.3584
X1.9843Y-1.9726
X1.9882Y-1.6043
X1.998Y-2.1949
X2.0079Y-1.811
X2.0297Y-2.5612
X2.0315Y-1.2639
X2.0315Y-1.3111
X2.0315Y-1.3584
X2.0315Y-1.4056
X2.0315Y-1.4529
X2.0315Y-1.5001
X2.0315Y-1.5474
X2.0315Y-1.9253
X2.0315Y-2.256
X2.0374Y-1.9882
X2.0571Y-5.374
X2.06Y-2.72
X2.0669Y-5.4134
X2.0787Y-1.2639
X2.0787Y-1.3111
X2.0787Y-1.3584
X2.0787Y-1.4056
X2.0787Y-1.4529
X2.0787Y-1.5001
X2.0787Y-1.5474
X2.0787Y-2.2088
X2.0787Y-2.256
X2.0787Y-2.3033
X2.0787Y-2.3505
X2.0787Y-2.3978
X2.0787Y-2.445
X2.0787Y-2.4922
X2.0787Y-2.5395
X2.0906Y-2.0965
X2.1Y-1.77
X2.1142Y-2.0669
T2
X1.0876Y-3.3071
X1.1122Y-3.2874
X1.1122Y-3.3268
X1.1368Y-3.3071
T3
X1.2795Y-3.3661
T4
X1.1614Y-3.5728
X1.1614Y-3.6728
X1.1614Y-3.7728
X1.1614Y-3.8728
X1.1614Y-4.1662
X1.1614Y-4.2662
X1.1614Y-4.3662
X1.1614Y-4.4662
X1.1614Y-4.7596
X1.1614Y-4.8596
X1.1614Y-4.9596
X1.1614Y-5.0596
X1.1614Y-5.353
X1.1614Y-5.453
X1.1614Y-5.553
X1.1614Y-5.653
X1.1614Y-5.8465
X1.1614Y-5.9465
X1.1614Y-6.4173
X1.1614Y-6.5173
X2.05Y-2.9173
X2.05Y-3.0173
X2.05Y-3.1173
X2.05Y-3.2173
T5
G00X1.713Y-3.6122
M15
G01X1.6728Y-3.6122
M16
G05
G00X1.713Y-6.4823
M15
G01X1.6728Y-6.4823
M16
G05
M30
