%TF.GenerationSoftware,KiCad,Pcbnew,8.0.3*%
%TF.CreationDate,2024-07-11T13:48:36-07:00*%
%TF.ProjectId,radioboard_dev,72616469-6f62-46f6-9172-645f6465762e,rev?*%
%TF.SameCoordinates,Original*%
%TF.FileFunction,Paste,Top*%
%TF.FilePolarity,Positive*%
%FSLAX46Y46*%
G04 Gerber Fmt 4.6, Leading zero omitted, Abs format (unit mm)*
G04 Created by KiCad (PCBNEW 8.0.3) date 2024-07-11 13:48:36*
%MOMM*%
%LPD*%
G01*
G04 APERTURE LIST*
G04 Aperture macros list*
%AMRoundRect*
0 Rectangle with rounded corners*
0 $1 Rounding radius*
0 $2 $3 $4 $5 $6 $7 $8 $9 X,Y pos of 4 corners*
0 Add a 4 corners polygon primitive as box body*
4,1,4,$2,$3,$4,$5,$6,$7,$8,$9,$2,$3,0*
0 Add four circle primitives for the rounded corners*
1,1,$1+$1,$2,$3*
1,1,$1+$1,$4,$5*
1,1,$1+$1,$6,$7*
1,1,$1+$1,$8,$9*
0 Add four rect primitives between the rounded corners*
20,1,$1+$1,$2,$3,$4,$5,0*
20,1,$1+$1,$4,$5,$6,$7,0*
20,1,$1+$1,$6,$7,$8,$9,0*
20,1,$1+$1,$8,$9,$2,$3,0*%
G04 Aperture macros list end*
%ADD10C,0.010000*%
%ADD11RoundRect,0.038750X-0.116250X0.261250X-0.116250X-0.261250X0.116250X-0.261250X0.116250X0.261250X0*%
%ADD12RoundRect,0.033750X0.346250X0.101250X-0.346250X0.101250X-0.346250X-0.101250X0.346250X-0.101250X0*%
%ADD13RoundRect,0.140000X-0.170000X0.140000X-0.170000X-0.140000X0.170000X-0.140000X0.170000X0.140000X0*%
%ADD14R,0.640000X0.890000*%
%ADD15RoundRect,0.140000X0.170000X-0.140000X0.170000X0.140000X-0.170000X0.140000X-0.170000X-0.140000X0*%
%ADD16R,0.510000X0.560000*%
%ADD17RoundRect,0.147500X0.172500X-0.147500X0.172500X0.147500X-0.172500X0.147500X-0.172500X-0.147500X0*%
%ADD18RoundRect,0.140000X0.140000X0.170000X-0.140000X0.170000X-0.140000X-0.170000X0.140000X-0.170000X0*%
%ADD19R,0.300000X0.400000*%
%ADD20R,0.510000X0.700000*%
%ADD21R,1.270000X3.600000*%
%ADD22R,1.350000X4.200000*%
%ADD23R,0.560000X0.510000*%
%ADD24R,0.990600X1.244600*%
%ADD25RoundRect,0.147500X-0.172500X0.147500X-0.172500X-0.147500X0.172500X-0.147500X0.172500X0.147500X0*%
%ADD26RoundRect,0.218750X0.256250X-0.218750X0.256250X0.218750X-0.256250X0.218750X-0.256250X-0.218750X0*%
%ADD27R,0.890000X0.640000*%
%ADD28RoundRect,0.135000X0.185000X-0.135000X0.185000X0.135000X-0.185000X0.135000X-0.185000X-0.135000X0*%
%ADD29R,1.803400X1.498600*%
%ADD30R,1.498600X1.803400*%
%ADD31R,1.000000X0.640000*%
%ADD32R,0.900000X1.000000*%
%ADD33R,1.700000X0.800000*%
%ADD34RoundRect,0.140000X-0.140000X-0.170000X0.140000X-0.170000X0.140000X0.170000X-0.140000X0.170000X0*%
%ADD35R,0.800000X0.800000*%
%ADD36R,0.254000X0.254000*%
%ADD37R,0.863600X0.609600*%
%ADD38R,0.700000X0.510000*%
%ADD39R,1.270000X0.558800*%
%ADD40RoundRect,0.218750X-0.218750X-0.381250X0.218750X-0.381250X0.218750X0.381250X-0.218750X0.381250X0*%
%ADD41RoundRect,0.147500X-0.147500X-0.172500X0.147500X-0.172500X0.147500X0.172500X-0.147500X0.172500X0*%
%ADD42R,0.800000X0.900000*%
%ADD43R,0.650000X0.900000*%
%ADD44RoundRect,0.250000X0.315000X0.315000X-0.315000X0.315000X-0.315000X-0.315000X0.315000X-0.315000X0*%
%ADD45RoundRect,0.062500X0.375000X0.062500X-0.375000X0.062500X-0.375000X-0.062500X0.375000X-0.062500X0*%
%ADD46RoundRect,0.062500X0.062500X0.375000X-0.062500X0.375000X-0.062500X-0.375000X0.062500X-0.375000X0*%
%ADD47RoundRect,0.072500X0.532500X0.217500X-0.532500X0.217500X-0.532500X-0.217500X0.532500X-0.217500X0*%
%ADD48RoundRect,0.076250X0.748750X0.228750X-0.748750X0.228750X-0.748750X-0.228750X0.748750X-0.228750X0*%
G04 APERTURE END LIST*
D10*
%TO.C,U12*%
X27275000Y-83790000D02*
X26550000Y-83790000D01*
X26550000Y-83560000D01*
X27275000Y-83560000D01*
X27275000Y-83790000D01*
G36*
X27275000Y-83790000D02*
G01*
X26550000Y-83790000D01*
X26550000Y-83560000D01*
X27275000Y-83560000D01*
X27275000Y-83790000D01*
G37*
X27275000Y-84440000D02*
X26550000Y-84440000D01*
X26550000Y-84210000D01*
X27275000Y-84210000D01*
X27275000Y-84440000D01*
G36*
X27275000Y-84440000D02*
G01*
X26550000Y-84440000D01*
X26550000Y-84210000D01*
X27275000Y-84210000D01*
X27275000Y-84440000D01*
G37*
X29025000Y-84670000D02*
X27475000Y-84670000D01*
X27475000Y-83330000D01*
X29025000Y-83330000D01*
X29025000Y-84670000D01*
G36*
X29025000Y-84670000D02*
G01*
X27475000Y-84670000D01*
X27475000Y-83330000D01*
X29025000Y-83330000D01*
X29025000Y-84670000D01*
G37*
X29950000Y-83790000D02*
X29225000Y-83790000D01*
X29225000Y-83560000D01*
X29950000Y-83560000D01*
X29950000Y-83790000D01*
G36*
X29950000Y-83790000D02*
G01*
X29225000Y-83790000D01*
X29225000Y-83560000D01*
X29950000Y-83560000D01*
X29950000Y-83790000D01*
G37*
X29950000Y-84440000D02*
X29225000Y-84440000D01*
X29225000Y-84210000D01*
X29950000Y-84210000D01*
X29950000Y-84440000D01*
G36*
X29950000Y-84440000D02*
G01*
X29225000Y-84440000D01*
X29225000Y-84210000D01*
X29950000Y-84210000D01*
X29950000Y-84440000D01*
G37*
%TO.C,U11*%
X25780000Y-151660000D02*
X25220000Y-151660000D01*
X25220000Y-150840000D01*
X25780000Y-150840000D01*
X25780000Y-151660000D01*
G36*
X25780000Y-151660000D02*
G01*
X25220000Y-151660000D01*
X25220000Y-150840000D01*
X25780000Y-150840000D01*
X25780000Y-151660000D01*
G37*
%TO.C,R26*%
G36*
X52750000Y-41280000D02*
G01*
X53750000Y-41280000D01*
X53750000Y-41920000D01*
X52750000Y-41920000D01*
X52750000Y-41280000D01*
G37*
G36*
X52750080Y-39880310D02*
G01*
X53750080Y-39880310D01*
X53750080Y-40520310D01*
X52750080Y-40520310D01*
X52750080Y-39880310D01*
G37*
%TO.C,R4*%
G36*
X53749920Y-44719690D02*
G01*
X52749920Y-44719690D01*
X52749920Y-44079690D01*
X53749920Y-44079690D01*
X53749920Y-44719690D01*
G37*
G36*
X53750000Y-43320000D02*
G01*
X52750000Y-43320000D01*
X52750000Y-42680000D01*
X53750000Y-42680000D01*
X53750000Y-43320000D01*
G37*
%TD*%
D11*
%TO.C,U12*%
X28575000Y-82600000D03*
X28575000Y-85400000D03*
X27925000Y-85400000D03*
X29225000Y-82600000D03*
X27925000Y-82600000D03*
X27275000Y-82600000D03*
X27275000Y-85400000D03*
X29225000Y-85400000D03*
%TD*%
D12*
%TO.C,U11*%
X24515000Y-152000000D03*
X24515000Y-151500000D03*
X24515000Y-151000000D03*
X24515000Y-150500000D03*
X26485000Y-150500000D03*
X26485000Y-151000000D03*
X26485000Y-151500000D03*
X26485000Y-152000000D03*
%TD*%
D13*
%TO.C,C11*%
X37750000Y-41670000D03*
X37750000Y-42630000D03*
%TD*%
D14*
%TO.C,C3*%
X31000000Y-159000000D03*
X29600000Y-159000000D03*
%TD*%
D15*
%TO.C,C82*%
X46500000Y-62660000D03*
X46500000Y-61700000D03*
%TD*%
D16*
%TO.C,C10*%
X48150000Y-51650000D03*
X49050000Y-51650000D03*
%TD*%
%TO.C,C76*%
X38400000Y-49900000D03*
X39300000Y-49900000D03*
%TD*%
D17*
%TO.C,L3*%
X38850000Y-40760000D03*
X38850000Y-39790000D03*
%TD*%
D16*
%TO.C,C7*%
X37875000Y-39800000D03*
X36975000Y-39800000D03*
%TD*%
D18*
%TO.C,C25*%
X42530000Y-46450000D03*
X41570000Y-46450000D03*
%TD*%
D17*
%TO.C,L9*%
X38850000Y-47435000D03*
X38850000Y-46465000D03*
%TD*%
D16*
%TO.C,C6*%
X42150000Y-33450000D03*
X41250000Y-33450000D03*
%TD*%
D19*
%TO.C,U4*%
X41700000Y-47350000D03*
X41200000Y-47350000D03*
X40700000Y-47350000D03*
X40700000Y-47950000D03*
X41200000Y-47950000D03*
X41700000Y-47950000D03*
%TD*%
D13*
%TO.C,C2*%
X41250000Y-34270000D03*
X41250000Y-35230000D03*
%TD*%
D20*
%TO.C,R3*%
X27609200Y-154250000D03*
X26709200Y-154250000D03*
%TD*%
D21*
%TO.C,CN12*%
X41250000Y-27700000D03*
D22*
X44075000Y-27900000D03*
X38425000Y-27900000D03*
%TD*%
D13*
%TO.C,C18*%
X44000000Y-58970000D03*
X44000000Y-59930000D03*
%TD*%
D23*
%TO.C,C44*%
X38500000Y-62375000D03*
X38500000Y-63275000D03*
%TD*%
D24*
%TO.C,XTAL2*%
X38500000Y-60748600D03*
X37001400Y-60748600D03*
%TD*%
D25*
%TO.C,L2*%
X41250000Y-31515000D03*
X41250000Y-32485000D03*
%TD*%
D16*
%TO.C,C5*%
X42150000Y-30500000D03*
X41250000Y-30500000D03*
%TD*%
D20*
%TO.C,R2*%
X33575000Y-51450000D03*
X34475000Y-51450000D03*
%TD*%
D23*
%TO.C,C43*%
X37000000Y-62374300D03*
X37000000Y-63274300D03*
%TD*%
D15*
%TO.C,C8*%
X44675000Y-40780000D03*
X44675000Y-39820000D03*
%TD*%
D26*
%TO.C,L1*%
X39985000Y-63075000D03*
X39985000Y-61500000D03*
%TD*%
D16*
%TO.C,C71*%
X36000000Y-42700000D03*
X35100000Y-42700000D03*
%TD*%
D27*
%TO.C,C35*%
X47800000Y-63140000D03*
X47800000Y-61740000D03*
%TD*%
D28*
%TO.C,R6*%
X31000000Y-56210000D03*
X31000000Y-55190000D03*
%TD*%
D29*
%TO.C,U2*%
X35149998Y-74099998D03*
X35149998Y-75999999D03*
X35149998Y-77899998D03*
X35149998Y-79799997D03*
X35149998Y-81699998D03*
D30*
X37950000Y-84500000D03*
X39850001Y-84500000D03*
X41750000Y-84500000D03*
X43649999Y-84500000D03*
X45550000Y-84500000D03*
D29*
X48350002Y-81699998D03*
X48350002Y-79799997D03*
X48350002Y-77899998D03*
X48350002Y-75999999D03*
X48350002Y-74099998D03*
D30*
X45550000Y-71299996D03*
X43649999Y-71299996D03*
X41750000Y-71299996D03*
X39850001Y-71299996D03*
X37950000Y-71299996D03*
%TD*%
D13*
%TO.C,C14*%
X44625000Y-41645000D03*
X44625000Y-42605000D03*
%TD*%
D16*
%TO.C,C72*%
X36000000Y-43800000D03*
X35100000Y-43800000D03*
%TD*%
D17*
%TO.C,L4*%
X43550000Y-40810000D03*
X43550000Y-39840000D03*
%TD*%
%TO.C,L7*%
X40175000Y-45485000D03*
X40175000Y-44515000D03*
%TD*%
D31*
%TO.C,R26*%
X53250000Y-40200000D03*
X53250000Y-41600000D03*
%TD*%
D16*
%TO.C,C77*%
X37050000Y-55100000D03*
X36150000Y-55100000D03*
%TD*%
D14*
%TO.C,C1*%
X27675000Y-81250000D03*
X29075000Y-81250000D03*
%TD*%
D17*
%TO.C,L10*%
X43525000Y-47435000D03*
X43525000Y-46465000D03*
%TD*%
D32*
%TO.C,B4*%
X53300000Y-47700000D03*
X53300000Y-49300000D03*
X49200000Y-47700000D03*
X49200000Y-49300000D03*
D33*
X51250000Y-47300000D03*
%TD*%
D23*
%TO.C,C13*%
X43525000Y-42600000D03*
X43525000Y-41700000D03*
%TD*%
D20*
%TO.C,R27*%
X32600000Y-43800000D03*
X33500000Y-43800000D03*
%TD*%
D34*
%TO.C,C24*%
X39870000Y-46450000D03*
X40830000Y-46450000D03*
%TD*%
D35*
%TO.C,LED1*%
X50500000Y-37000000D03*
X50500000Y-35500000D03*
%TD*%
D23*
%TO.C,C12*%
X38850000Y-42625000D03*
X38850000Y-41725000D03*
%TD*%
D36*
%TO.C,U8*%
X40800002Y-40625000D03*
X41200001Y-40625000D03*
X41600000Y-40625000D03*
X41593701Y-40231300D03*
X41600000Y-39837600D03*
X41200001Y-39837600D03*
X40800002Y-39837600D03*
X40806301Y-40231300D03*
%TD*%
D15*
%TO.C,C16*%
X44625000Y-44480000D03*
X44625000Y-43520000D03*
%TD*%
D23*
%TO.C,C38*%
X29500000Y-56150000D03*
X29500000Y-55250000D03*
%TD*%
D16*
%TO.C,C74*%
X38400000Y-49000000D03*
X39300000Y-49000000D03*
%TD*%
D27*
%TO.C,C85*%
X45000000Y-62800000D03*
X45000000Y-61400000D03*
%TD*%
D37*
%TO.C,XTAL1*%
X29552200Y-52750000D03*
X29552200Y-54100000D03*
X31000000Y-54100000D03*
X31000000Y-52750000D03*
%TD*%
D16*
%TO.C,C79*%
X36150000Y-54100000D03*
X37050000Y-54100000D03*
%TD*%
D35*
%TO.C,LED2*%
X47750000Y-37000000D03*
X47750000Y-35500000D03*
%TD*%
D38*
%TO.C,R35*%
X50500000Y-39400000D03*
X50500000Y-38500000D03*
%TD*%
D19*
%TO.C,U3*%
X36250000Y-48800000D03*
X36750000Y-48800000D03*
X37250000Y-48800000D03*
X37250000Y-48200000D03*
X36750000Y-48200000D03*
X36250000Y-48200000D03*
%TD*%
D39*
%TO.C,U5*%
X27159200Y-155810200D03*
X27159200Y-156750000D03*
X27159200Y-157689800D03*
X29750000Y-157689800D03*
X29750000Y-155810200D03*
%TD*%
D40*
%TO.C,L13*%
X46181500Y-60000000D03*
X48306500Y-60000000D03*
%TD*%
D13*
%TO.C,C80*%
X44958000Y-59182000D03*
X44958000Y-60142000D03*
%TD*%
%TO.C,C37*%
X49200000Y-61700000D03*
X49200000Y-62660000D03*
%TD*%
D23*
%TO.C,C32*%
X46000000Y-67700000D03*
X46000000Y-66800000D03*
%TD*%
%TO.C,C28*%
X41535000Y-60350000D03*
X41535000Y-59450000D03*
%TD*%
D41*
%TO.C,L12*%
X33530000Y-57100000D03*
X34500000Y-57100000D03*
%TD*%
D17*
%TO.C,L5*%
X38875000Y-44510000D03*
X38875000Y-43540000D03*
%TD*%
D42*
%TO.C,Y1*%
X34750000Y-54600000D03*
X34750000Y-52750000D03*
X33300000Y-52750000D03*
X33300000Y-54600000D03*
%TD*%
D23*
%TO.C,C19*%
X45775000Y-44775000D03*
X45775000Y-45675000D03*
%TD*%
D27*
%TO.C,C26*%
X41485000Y-62900000D03*
X41485000Y-61500000D03*
%TD*%
D16*
%TO.C,C73*%
X36000000Y-41600000D03*
X35100000Y-41600000D03*
%TD*%
D43*
%TO.C,L11*%
X45750000Y-46725000D03*
X46700000Y-46725000D03*
%TD*%
D17*
%TO.C,L8*%
X42225000Y-45485000D03*
X42225000Y-44515000D03*
%TD*%
D35*
%TO.C,LED4*%
X25250000Y-155900000D03*
X25250000Y-157400000D03*
%TD*%
D16*
%TO.C,C9*%
X26650000Y-153000000D03*
X25750000Y-153000000D03*
%TD*%
D44*
%TO.C,U10*%
X45300000Y-56000000D03*
X45300000Y-54600000D03*
X45300000Y-53200000D03*
X45300000Y-51800000D03*
X43900000Y-56000000D03*
X43900000Y-54600000D03*
X43900000Y-53200000D03*
X43900000Y-51800000D03*
X42500000Y-56000000D03*
X42500000Y-54600000D03*
X42500000Y-53200000D03*
X42500000Y-51800000D03*
X41100000Y-56000000D03*
X41100000Y-54600000D03*
X41100000Y-53200000D03*
X41100000Y-51800000D03*
D45*
X46637500Y-56650000D03*
X46637500Y-56150000D03*
X46637500Y-55650000D03*
X46637500Y-55150000D03*
X46637500Y-54650000D03*
X46637500Y-54150000D03*
X46637500Y-53650000D03*
X46637500Y-53150000D03*
X46637500Y-52650000D03*
X46637500Y-52150000D03*
X46637500Y-51650000D03*
X46637500Y-51150000D03*
D46*
X45950000Y-50462500D03*
X45450000Y-50462500D03*
X44950000Y-50462500D03*
X44450000Y-50462500D03*
X43950000Y-50462500D03*
X43450000Y-50462500D03*
X42950000Y-50462500D03*
X42450000Y-50462500D03*
X41950000Y-50462500D03*
X41450000Y-50462500D03*
X40950000Y-50462500D03*
X40450000Y-50462500D03*
D45*
X39762500Y-51150000D03*
X39762500Y-51650000D03*
X39762500Y-52150000D03*
X39762500Y-52650000D03*
X39762500Y-53150000D03*
X39762500Y-53650000D03*
X39762500Y-54150000D03*
X39762500Y-54650000D03*
X39762500Y-55150000D03*
X39762500Y-55650000D03*
X39762500Y-56150000D03*
X39762500Y-56650000D03*
D46*
X40450000Y-57337500D03*
X40950000Y-57337500D03*
X41450000Y-57337500D03*
X41950000Y-57337500D03*
X42450000Y-57337500D03*
X42950000Y-57337500D03*
X43450000Y-57337500D03*
X43950000Y-57337500D03*
X44450000Y-57337500D03*
X44950000Y-57337500D03*
X45450000Y-57337500D03*
X45950000Y-57337500D03*
%TD*%
D34*
%TO.C,C78*%
X37540000Y-51000000D03*
X38500000Y-51000000D03*
%TD*%
D14*
%TO.C,C4*%
X25754600Y-159000000D03*
X27154600Y-159000000D03*
%TD*%
D17*
%TO.C,L6*%
X43525000Y-44535000D03*
X43525000Y-43565000D03*
%TD*%
D16*
%TO.C,C27*%
X34475000Y-55850000D03*
X33575000Y-55850000D03*
%TD*%
D38*
%TO.C,R34*%
X47750000Y-39400000D03*
X47750000Y-38500000D03*
%TD*%
D16*
%TO.C,C31*%
X34475000Y-50350000D03*
X33575000Y-50350000D03*
%TD*%
%TO.C,C23*%
X39750000Y-58250000D03*
X38850000Y-58250000D03*
%TD*%
D20*
%TO.C,R29*%
X33500000Y-41600000D03*
X32600000Y-41600000D03*
%TD*%
D31*
%TO.C,R4*%
X53250000Y-44400000D03*
X53250000Y-43000000D03*
%TD*%
D23*
%TO.C,C30*%
X31000000Y-50750000D03*
X31000000Y-51650000D03*
%TD*%
%TO.C,C20*%
X46675000Y-45675000D03*
X46675000Y-44775000D03*
%TD*%
D15*
%TO.C,C15*%
X37750000Y-44455000D03*
X37750000Y-43495000D03*
%TD*%
D47*
%TO.C,U1*%
X52255000Y-68200000D03*
X52255000Y-67250000D03*
X52255000Y-66300000D03*
X49745000Y-66300000D03*
X49745000Y-67250000D03*
X49745000Y-68200000D03*
%TD*%
D16*
%TO.C,C67*%
X52100000Y-46000000D03*
X53000000Y-46000000D03*
%TD*%
D20*
%TO.C,R28*%
X32600000Y-42700000D03*
X33500000Y-42700000D03*
%TD*%
D48*
%TO.C,U13*%
X31510000Y-79155000D03*
X31510000Y-77885000D03*
X31510000Y-76615000D03*
X31510000Y-75345000D03*
X26240000Y-75345000D03*
X26240000Y-76615000D03*
X26240000Y-77885000D03*
X26240000Y-79155000D03*
%TD*%
D27*
%TO.C,C29*%
X47750000Y-66550000D03*
X47750000Y-67950000D03*
%TD*%
D32*
%TO.C,B1*%
X28800000Y-45900000D03*
X28800000Y-47500000D03*
X24700000Y-45900000D03*
X24700000Y-47500000D03*
D33*
X26750000Y-45500000D03*
%TD*%
D20*
%TO.C,R1*%
X30200000Y-154250000D03*
X29300000Y-154250000D03*
%TD*%
D28*
%TO.C,R5*%
X29540200Y-51587400D03*
X29540200Y-50567400D03*
%TD*%
M02*
